<ttFont>
<head>
    <!-- Most of this table will be recalculated by the compiler -->
    <tableVersion value="1.0"/>
    <fontRevision value="1.29999"/>
    <checkSumAdjustment value="0xbb2d304"/>
    <magicNumber value="0x5f0f3cf5"/>
    <flags value="00000000 00001001"/>
    <unitsPerEm value="1000"/>
    <created value="Mon Oct 19 13:12:54 2015"/>
    <modified value="Mon Aug  1 23:07:49 2016"/>
    <xMin value="-76"/>
    <yMin value="-403"/>
    <xMax value="834"/>
    <yMax value="1262"/>
    <macStyle value="00000000 00000010"/>
    <lowestRecPPEM value="9"/>
    <fontDirectionHint value="2"/>
    <indexToLocFormat value="0"/>
    <glyphDataFormat value="0"/>
  </head>
    <TTGlyph name=".notdef" xMin="-7" yMin="-200" xMax="548" yMax="800">
      <contour>
        <pt x="-7" y="800" on="1"/>
        <pt x="533" y="800" on="1"/>
        <pt x="548" y="-200" on="1"/>
        <pt x="8" y="-200" on="1"/>
      </contour>
      <contour>
        <pt x="269" y="360" on="1"/>
        <pt x="457" y="750" on="1"/>
        <pt x="70" y="750" on="1"/>
      </contour>
      <contour>
        <pt x="301" y="300" on="1"/>
        <pt x="492" y="-76" on="1"/>
        <pt x="481" y="676" on="1"/>
      </contour>
      <contour>
        <pt x="240" y="300" on="1"/>
        <pt x="49" y="676" on="1"/>
        <pt x="60" y="-76" on="1"/>
      </contour>
      <contour>
        <pt x="84" y="-150" on="1"/>
        <pt x="471" y="-150" on="1"/>
        <pt x="271" y="240" on="1"/>
      </contour>
    </TTGlyph>
    <TTGlyph name="A" xMin="-6" yMin="-4" xMax="538" yMax="689">
      <contour>
        <pt x="415" y="-4" on="1"/>
        <pt x="413" y="44" on="0"/>
        <pt x="407" y="140" on="0"/>
        <pt x="405" y="189" on="1"/>
        <pt x="199" y="189" on="1"/>
        <pt x="179" y="141" on="0"/>
        <pt x="140" y="48" on="0"/>
        <pt x="120" y="0" on="1"/>
        <pt x="-6" y="0" on="1"/>
        <pt x="69" y="173" on="0"/>
        <pt x="229" y="516" on="0"/>
        <pt x="312" y="689" on="1"/>
        <pt x="484" y="689" on="1"/>
        <pt x="516" y="349" on="0"/>
        <pt x="538" y="4" on="1"/>
      </contour>
      <contour>
        <pt x="373" y="583" on="1"/>
        <pt x="340" y="508" on="0"/>
        <pt x="273" y="358" on="0"/>
        <pt x="240" y="282" on="1"/>
        <pt x="400" y="282" on="1"/>
        <pt x="396" y="357" on="0"/>
        <pt x="387" y="508" on="0"/>
        <pt x="382" y="583" on="1"/>
      </contour>
    </TTGlyph>
    <TTGlyph name="AE" xMin="-27" yMin="0" xMax="675" yMax="688">
      <contour>
        <pt x="367" y="586" on="1"/>
        <pt x="331" y="508" on="0"/>
        <pt x="259" y="352" on="0"/>
        <pt x="223" y="274" on="1"/>
        <pt x="318" y="274" on="1"/>
        <pt x="379" y="586" on="1"/>
      </contour>
      <contour>
        <pt x="300" y="185" on="1"/>
        <pt x="182" y="185" on="1"/>
        <pt x="160" y="138" on="0"/>
        <pt x="117" y="46" on="0"/>
        <pt x="95" y="0" on="1"/>
        <pt x="-27" y="0" on="1"/>
        <pt x="58" y="172" on="0"/>
        <pt x="229" y="515" on="0"/>
        <pt x="317" y="688" on="1"/>
        <pt x="675" y="688" on="1"/>
        <pt x="655" y="586" on="1"/>
        <pt x="484" y="586" on="1"/>
        <pt x="445" y="389" on="1"/>
        <pt x="584" y="389" on="1"/>
        <pt x="568" y="304" on="1"/>
        <pt x="429" y="304" on="1"/>
        <pt x="389" y="102" on="1"/>
        <pt x="566" y="102" on="1"/>
        <pt x="540" y="0" on="1"/>
        <pt x="264" y="0" on="1"/>
      </contour>
    </TTGlyph>
    <TTGlyph name="AEacute" xMin="-27" yMin="0" xMax="676" yMax="994">
      <component glyphName="acute.cap" x="174" y="135" flags="0x204"/>
      <component glyphName="AE" x="0" y="0" flags="0x4"/>
    </TTGlyph>
    <TTGlyph name="Aacute" xMin="-6" yMin="-4" xMax="598" yMax="995">
      <component glyphName="A" x="0" y="0" flags="0x204"/>
      <component glyphName="acute.cap" x="96" y="136" flags="0x4"/>
    </TTGlyph>
    <TTGlyph name="Abreve" xMin="-6" yMin="-4" xMax="663" yMax="973">
      <component glyphName="A" x="0" y="0" flags="0x204"/>
      <component glyphName="breve.cap" x="109" y="136" flags="0x4"/>
    </TTGlyph>
    <TTGlyph name="Acircumflex" xMin="-6" yMin="-4" xMax="631" yMax="983">
      <component glyphName="A" x="0" y="0" flags="0x204"/>
      <component glyphName="circumflex.cap" x="104" y="136" flags="0x4"/>
    </TTGlyph>
    <TTGlyph name="Adieresis" xMin="-6" yMin="-4" xMax="640" yMax="927">
      <component glyphName="A" x="0" y="0" flags="0x204"/>
      <component glyphName="dieresis.cap" x="97" y="136" flags="0x4"/>
    </TTGlyph>
    <TTGlyph name="Agrave" xMin="-6" yMin="-4" xMax="576" yMax="1000">
      <component glyphName="A" x="0" y="0" flags="0x204"/>
      <component glyphName="grave.cap" x="113" y="136" flags="0x4"/>
    </TTGlyph>
    <TTGlyph name="Amacron" xMin="-6" yMin="-4" xMax="632" yMax="902">
      <component glyphName="A" x="0" y="0" flags="0x204"/>
      <component glyphName="macron.cap" x="110" y="136" flags="0x4"/>
    </TTGlyph>
    <TTGlyph name="Aogonek" xMin="-6" yMin="-234" xMax="538" yMax="689">
      <contour>
        <pt x="373" y="583" on="1"/>
        <pt x="340" y="508" on="0"/>
        <pt x="273" y="358" on="0"/>
        <pt x="240" y="282" on="1"/>
        <pt x="400" y="282" on="1"/>
        <pt x="396" y="357" on="0"/>
        <pt x="387" y="508" on="0"/>
        <pt x="382" y="583" on="1"/>
      </contour>
      <contour>
        <pt x="538" y="4" on="1"/>
        <pt x="484" y="-11" on="0"/>
        <pt x="408" y="-42" on="0"/>
        <pt x="360" y="-73" on="0"/>
        <pt x="338" y="-103" on="0"/>
        <pt x="338" y="-117" on="1"/>
        <pt x="338" y="-133" on="0"/>
        <pt x="363" y="-152" on="0"/>
        <pt x="391" y="-152" on="1"/>
        <pt x="408" y="-152" on="0"/>
        <pt x="457" y="-143" on="0"/>
        <pt x="489" y="-132" on="1"/>
        <pt x="502" y="-187" on="1"/>
        <pt x="451" y="-212" on="0"/>
        <pt x="367" y="-234" on="0"/>
        <pt x="335" y="-234" on="1"/>
        <pt x="282" y="-234" on="0"/>
        <pt x="229" y="-187" on="0"/>
        <pt x="228" y="-152" on="1"/>
        <pt x="228" y="-111" on="0"/>
        <pt x="313" y="-23" on="0"/>
        <pt x="414" y="19" on="1"/>
        <pt x="412" y="61" on="0"/>
        <pt x="407" y="146" on="0"/>
        <pt x="405" y="189" on="1"/>
        <pt x="199" y="189" on="1"/>
        <pt x="179" y="141" on="0"/>
        <pt x="140" y="48" on="0"/>
        <pt x="120" y="0" on="1"/>
        <pt x="-6" y="0" on="1"/>
        <pt x="69" y="173" on="0"/>
        <pt x="229" y="516" on="0"/>
        <pt x="312" y="689" on="1"/>
        <pt x="484" y="689" on="1"/>
        <pt x="516" y="349" on="0"/>
      </contour>
    </TTGlyph>
    <TTGlyph name="Aring" xMin="-6" yMin="-4" xMax="582" yMax="986">
      <component glyphName="A" x="0" y="0" flags="0x204"/>
      <component glyphName="ring.cap" x="72" y="136" flags="0x4"/>
    </TTGlyph>
    <TTGlyph name="Aringacute" xMin="-6" yMin="-4" xMax="657" yMax="1262">
      <contour>
        <pt x="415" y="-4" on="1"/>
        <pt x="413" y="44" on="0"/>
        <pt x="407" y="140" on="0"/>
        <pt x="405" y="189" on="1"/>
        <pt x="199" y="189" on="1"/>
        <pt x="179" y="141" on="0"/>
        <pt x="140" y="48" on="0"/>
        <pt x="120" y="0" on="1"/>
        <pt x="-6" y="0" on="1"/>
        <pt x="69" y="173" on="0"/>
        <pt x="229" y="516" on="0"/>
        <pt x="312" y="689" on="1"/>
        <pt x="484" y="689" on="1"/>
        <pt x="516" y="349" on="0"/>
        <pt x="538" y="4" on="1"/>
      </contour>
      <contour>
        <pt x="373" y="583" on="1"/>
        <pt x="340" y="508" on="0"/>
        <pt x="273" y="358" on="0"/>
        <pt x="240" y="282" on="1"/>
        <pt x="400" y="282" on="1"/>
        <pt x="396" y="357" on="0"/>
        <pt x="387" y="508" on="0"/>
        <pt x="382" y="583" on="1"/>
      </contour>
      <contour>
        <pt x="325" y="1076" on="1"/>
        <pt x="352" y="1091" on="0"/>
        <pt x="419" y="1136" on="0"/>
        <pt x="488" y="1186" on="0"/>
        <pt x="553" y="1238" on="0"/>
        <pt x="579" y="1262" on="1"/>
        <pt x="657" y="1169" on="1"/>
        <pt x="627" y="1148" on="0"/>
        <pt x="546" y="1105" on="0"/>
        <pt x="462" y="1066" on="0"/>
        <pt x="380" y="1034" on="0"/>
        <pt x="348" y="1024" on="1"/>
        <pt x="325" y="1076" on="1"/>
      </contour>
      <contour>
        <pt x="444" y="986" on="1"/>
        <pt x="475" y="986" on="0"/>
        <pt x="526" y="968" on="0"/>
        <pt x="562" y="938" on="0"/>
        <pt x="582" y="898" on="0"/>
        <pt x="582" y="875" on="1"/>
        <pt x="582" y="849" on="0"/>
        <pt x="558" y="803" on="0"/>
        <pt x="516" y="769" on="0"/>
        <pt x="458" y="748" on="0"/>
        <pt x="423" y="748" on="1"/>
        <pt x="391" y="748" on="0"/>
        <pt x="340" y="765" on="0"/>
        <pt x="304" y="795" on="0"/>
        <pt x="285" y="836" on="0"/>
        <pt x="285" y="859" on="1"/>
        <pt x="285" y="885" on="0"/>
        <pt x="309" y="931" on="0"/>
        <pt x="351" y="966" on="0"/>
        <pt x="409" y="986" on="0"/>
      </contour>
    </TTGlyph>
    <TTGlyph name="Atilde" xMin="-6" yMin="-4" xMax="673" yMax="960">
      <component glyphName="A" x="0" y="0" flags="0x204"/>
      <component glyphName="tilde.cap" x="110" y="136" flags="0x4"/>
    </TTGlyph>
    <TTGlyph name="B" xMin="50" yMin="-9" xMax="590" yMax="696">
      <contour>
        <pt x="554" y="214" on="1"/>
        <pt x="554" y="172" on="0"/>
        <pt x="515" y="92" on="0"/>
        <pt x="428" y="29" on="0"/>
        <pt x="291" y="-9" on="0"/>
        <pt x="193" y="-9" on="1"/>
        <pt x="161" y="-9" on="0"/>
        <pt x="89" y="-4" on="0"/>
        <pt x="50" y="1" on="1"/>
        <pt x="182" y="684" on="1"/>
        <pt x="225" y="691" on="0"/>
        <pt x="300" y="696" on="0"/>
        <pt x="332" y="696" on="1"/>
        <pt x="400" y="696" on="0"/>
        <pt x="498" y="672" on="0"/>
        <pt x="561" y="631" on="0"/>
        <pt x="590" y="574" on="0"/>
        <pt x="590" y="541" on="1"/>
        <pt x="590" y="481" on="0"/>
        <pt x="508" y="385" on="0"/>
        <pt x="434" y="357" on="1"/>
        <pt x="491" y="341" on="0"/>
        <pt x="554" y="265" on="0"/>
      </contour>
      <contour>
        <pt x="469" y="513" on="1"/>
        <pt x="469" y="551" on="0"/>
        <pt x="404" y="597" on="0"/>
        <pt x="338" y="597" on="1"/>
        <pt x="316" y="597" on="0"/>
        <pt x="289" y="594" on="1"/>
        <pt x="247" y="376" on="1"/>
        <pt x="305" y="380" on="0"/>
        <pt x="389" y="405" on="0"/>
        <pt x="443" y="442" on="0"/>
        <pt x="469" y="488" on="0"/>
      </contour>
      <contour>
        <pt x="434" y="207" on="1"/>
        <pt x="434" y="252" on="0"/>
        <pt x="360" y="307" on="0"/>
        <pt x="278" y="307" on="1"/>
        <pt x="267" y="307" on="0"/>
        <pt x="245" y="306" on="0"/>
        <pt x="233" y="305" on="1"/>
        <pt x="193" y="98" on="1"/>
        <pt x="210" y="96" on="0"/>
        <pt x="243" y="94" on="0"/>
        <pt x="257" y="94" on="1"/>
        <pt x="346" y="94" on="0"/>
        <pt x="434" y="160" on="0"/>
      </contour>
    </TTGlyph>
    <TTGlyph name="C" xMin="71" yMin="-15" xMax="591" yMax="703">
      <contour>
        <pt x="424" y="703" on="1"/>
        <pt x="515" y="703" on="0"/>
        <pt x="591" y="589" on="0"/>
        <pt x="591" y="474" on="1"/>
        <pt x="591" y="465" on="0"/>
        <pt x="591" y="446" on="0"/>
        <pt x="590" y="435" on="1"/>
        <pt x="473" y="434" on="1"/>
        <pt x="473" y="455" on="1"/>
        <pt x="473" y="527" on="0"/>
        <pt x="444" y="593" on="0"/>
        <pt x="398" y="593" on="1"/>
        <pt x="354" y="593" on="0"/>
        <pt x="280" y="534" on="0"/>
        <pt x="226" y="441" on="0"/>
        <pt x="196" y="326" on="0"/>
        <pt x="196" y="270" on="1"/>
        <pt x="196" y="183" on="0"/>
        <pt x="271" y="97" on="0"/>
        <pt x="349" y="97" on="1"/>
        <pt x="385" y="97" on="0"/>
        <pt x="473" y="116" on="0"/>
        <pt x="527" y="134" on="1"/>
        <pt x="514" y="24" on="1"/>
        <pt x="400" y="-15" on="0"/>
        <pt x="314" y="-15" on="1"/>
        <pt x="196" y="-15" on="0"/>
        <pt x="71" y="123" on="0"/>
        <pt x="71" y="251" on="1"/>
        <pt x="71" y="339" on="0"/>
        <pt x="126" y="502" on="0"/>
        <pt x="222" y="628" on="0"/>
        <pt x="350" y="703" on="0"/>
      </contour>
    </TTGlyph>
    <TTGlyph name="Cacute" xMin="71" yMin="-15" xMax="610" yMax="1008">
      <component glyphName="C" x="0" y="0" flags="0x204"/>
      <component glyphName="acute.cap" x="108" y="149" flags="0x4"/>
    </TTGlyph>
    <TTGlyph name="Ccaron" xMin="71" yMin="-15" xMax="661" yMax="992">
      <component glyphName="C" x="0" y="0" flags="0x204"/>
      <component glyphName="caron.cap" x="110" y="149" flags="0x4"/>
    </TTGlyph>
    <TTGlyph name="Ccedilla" xMin="71" yMin="-208" xMax="591" yMax="703">
      <contour>
        <pt x="310" y="-208" on="1"/>
        <pt x="311" y="-199" on="0"/>
        <pt x="311" y="-181" on="0"/>
        <pt x="311" y="-173" on="1"/>
        <pt x="311" y="-119" on="0"/>
        <pt x="287" y="-74" on="0"/>
        <pt x="267" y="-74" on="1"/>
        <pt x="243" y="-74" on="0"/>
        <pt x="195" y="-130" on="0"/>
        <pt x="170" y="-181" on="1"/>
        <pt x="109" y="-161" on="1"/>
        <pt x="161" y="-36" on="0"/>
        <pt x="226" y="-2" on="1"/>
        <pt x="150" y="21" on="0"/>
        <pt x="71" y="149" on="0"/>
        <pt x="71" y="251" on="1"/>
        <pt x="71" y="339" on="0"/>
        <pt x="126" y="502" on="0"/>
        <pt x="222" y="628" on="0"/>
        <pt x="350" y="703" on="0"/>
        <pt x="424" y="703" on="1"/>
        <pt x="515" y="703" on="0"/>
        <pt x="591" y="589" on="0"/>
        <pt x="591" y="474" on="1"/>
        <pt x="591" y="465" on="0"/>
        <pt x="591" y="446" on="0"/>
        <pt x="590" y="435" on="1"/>
        <pt x="473" y="434" on="1"/>
        <pt x="473" y="455" on="1"/>
        <pt x="473" y="527" on="0"/>
        <pt x="444" y="593" on="0"/>
        <pt x="398" y="593" on="1"/>
        <pt x="354" y="593" on="0"/>
        <pt x="280" y="534" on="0"/>
        <pt x="226" y="441" on="0"/>
        <pt x="196" y="326" on="0"/>
        <pt x="196" y="270" on="1"/>
        <pt x="196" y="183" on="0"/>
        <pt x="271" y="97" on="0"/>
        <pt x="349" y="97" on="1"/>
        <pt x="385" y="97" on="0"/>
        <pt x="473" y="116" on="0"/>
        <pt x="527" y="134" on="1"/>
        <pt x="514" y="24" on="1"/>
        <pt x="469" y="9" on="0"/>
        <pt x="389" y="-10" on="0"/>
        <pt x="353" y="-13" on="1"/>
        <pt x="381" y="-34" on="0"/>
        <pt x="415" y="-116" on="0"/>
        <pt x="415" y="-179" on="1"/>
        <pt x="415" y="-185" on="0"/>
        <pt x="415" y="-199" on="0"/>
        <pt x="414" y="-206" on="1"/>
      </contour>
    </TTGlyph>
    <TTGlyph name="Cdotaccent" xMin="71" yMin="-15" xMax="591" yMax="938">
      <component glyphName="dotaccent.cap" x="121" y="149" flags="0x204"/>
      <component glyphName="C" x="0" y="0" flags="0x4"/>
    </TTGlyph>
    <TTGlyph name="D" xMin="44" yMin="-6" xMax="593" yMax="696">
      <contour>
        <pt x="593" y="429" on="1"/>
        <pt x="593" y="344" on="0"/>
        <pt x="543" y="187" on="0"/>
        <pt x="436" y="66" on="0"/>
        <pt x="268" y="-6" on="0"/>
        <pt x="150" y="-6" on="1"/>
        <pt x="125" y="-6" on="0"/>
        <pt x="73" y="-3" on="0"/>
        <pt x="44" y="1" on="1"/>
        <pt x="176" y="685" on="1"/>
        <pt x="211" y="691" on="0"/>
        <pt x="277" y="696" on="0"/>
        <pt x="306" y="696" on="1"/>
        <pt x="593" y="696" on="0"/>
      </contour>
      <contour>
        <pt x="469" y="417" on="1"/>
        <pt x="469" y="594" on="0"/>
        <pt x="313" y="594" on="1"/>
        <pt x="305" y="594" on="0"/>
        <pt x="290" y="593" on="0"/>
        <pt x="282" y="592" on="1"/>
        <pt x="187" y="98" on="1"/>
        <pt x="192" y="97" on="0"/>
        <pt x="204" y="97" on="0"/>
        <pt x="209" y="97" on="1"/>
        <pt x="274" y="97" on="0"/>
        <pt x="372" y="150" on="0"/>
        <pt x="437" y="238" on="0"/>
        <pt x="469" y="354" on="0"/>
      </contour>
    </TTGlyph>
    <TTGlyph name="Dcaron" xMin="44" yMin="-6" xMax="646" yMax="986">
      <component glyphName="caron.cap" x="95" y="143" flags="0x204"/>
      <component glyphName="D" x="0" y="0" flags="0x4"/>
    </TTGlyph>
    <TTGlyph name="Dcroat" xMin="33" yMin="-6" xMax="593" yMax="696">
      <contour>
        <pt x="593" y="429" on="1"/>
        <pt x="593" y="344" on="0"/>
        <pt x="543" y="187" on="0"/>
        <pt x="436" y="66" on="0"/>
        <pt x="268" y="-6" on="0"/>
        <pt x="150" y="-6" on="1"/>
        <pt x="125" y="-6" on="0"/>
        <pt x="73" y="-3" on="0"/>
        <pt x="44" y="1" on="1"/>
        <pt x="102" y="304" on="1"/>
        <pt x="33" y="304" on="1"/>
        <pt x="50" y="391" on="1"/>
        <pt x="119" y="391" on="1"/>
        <pt x="176" y="685" on="1"/>
        <pt x="211" y="691" on="0"/>
        <pt x="277" y="696" on="0"/>
        <pt x="306" y="696" on="1"/>
        <pt x="593" y="696" on="0"/>
      </contour>
      <contour>
        <pt x="227" y="304" on="1"/>
        <pt x="187" y="98" on="1"/>
        <pt x="192" y="97" on="0"/>
        <pt x="204" y="97" on="0"/>
        <pt x="209" y="97" on="1"/>
        <pt x="274" y="97" on="0"/>
        <pt x="372" y="150" on="0"/>
        <pt x="437" y="238" on="0"/>
        <pt x="469" y="354" on="0"/>
        <pt x="469" y="417" on="1"/>
        <pt x="469" y="594" on="0"/>
        <pt x="313" y="594" on="1"/>
        <pt x="305" y="594" on="0"/>
        <pt x="290" y="593" on="0"/>
        <pt x="282" y="592" on="1"/>
        <pt x="243" y="391" on="1"/>
        <pt x="366" y="391" on="1"/>
        <pt x="344" y="304" on="1"/>
      </contour>
    </TTGlyph>
    <TTGlyph name="E" xMin="59" yMin="0" xMax="616" yMax="688">
      <contour>
        <pt x="479" y="0" on="1"/>
        <pt x="59" y="0" on="1"/>
        <pt x="193" y="688" on="1"/>
        <pt x="616" y="688" on="1"/>
        <pt x="595" y="583" on="1"/>
        <pt x="297" y="583" on="1"/>
        <pt x="260" y="392" on="1"/>
        <pt x="512" y="392" on="1"/>
        <pt x="494" y="300" on="1"/>
        <pt x="242" y="300" on="1"/>
        <pt x="204" y="105" on="1"/>
        <pt x="507" y="105" on="1"/>
      </contour>
    </TTGlyph>
    <TTGlyph name="Eacute" xMin="59" yMin="0" xMax="616" yMax="994">
      <component glyphName="acute.cap" x="103" y="135" flags="0x204"/>
      <component glyphName="E" x="0" y="0" flags="0x4"/>
    </TTGlyph>
    <TTGlyph name="Ebreve" xMin="59" yMin="0" xMax="670" yMax="972">
      <component glyphName="breve.cap" x="116" y="135" flags="0x204"/>
      <component glyphName="E" x="0" y="0" flags="0x4"/>
    </TTGlyph>
    <TTGlyph name="Ecaron" xMin="59" yMin="0" xMax="656" yMax="978">
      <component glyphName="caron.cap" x="105" y="135" flags="0x204"/>
      <component glyphName="E" x="0" y="0" flags="0x4"/>
    </TTGlyph>
    <TTGlyph name="Ecircumflex" xMin="59" yMin="0" xMax="638" yMax="982">
      <component glyphName="E" x="0" y="0" flags="0x204"/>
      <component glyphName="circumflex.cap" x="111" y="135" flags="0x4"/>
    </TTGlyph>
    <TTGlyph name="Edieresis" xMin="59" yMin="0" xMax="647" yMax="926">
      <component glyphName="dieresis.cap" x="104" y="135" flags="0x204"/>
      <component glyphName="E" x="0" y="0" flags="0x4"/>
    </TTGlyph>
    <TTGlyph name="Edotaccent" xMin="59" yMin="0" xMax="616" yMax="924">
      <component glyphName="dotaccent.cap" x="116" y="135" flags="0x204"/>
      <component glyphName="E" x="0" y="0" flags="0x4"/>
    </TTGlyph>
    <TTGlyph name="Egrave" xMin="59" yMin="0" xMax="616" yMax="999">
      <component glyphName="grave.cap" x="120" y="135" flags="0x204"/>
      <component glyphName="E" x="0" y="0" flags="0x4"/>
    </TTGlyph>
    <TTGlyph name="Emacron" xMin="59" yMin="0" xMax="639" yMax="901">
      <component glyphName="macron.cap" x="117" y="135" flags="0x204"/>
      <component glyphName="E" x="0" y="0" flags="0x4"/>
    </TTGlyph>
    <TTGlyph name="Eogonek" xMin="59" yMin="-235" xMax="616" yMax="688">
      <contour>
        <pt x="479" y="0" on="1"/>
        <pt x="370" y="-29" on="0"/>
        <pt x="279" y="-91" on="0"/>
        <pt x="279" y="-117" on="1"/>
        <pt x="279" y="-133" on="0"/>
        <pt x="304" y="-153" on="0"/>
        <pt x="332" y="-153" on="1"/>
        <pt x="349" y="-153" on="0"/>
        <pt x="398" y="-144" on="0"/>
        <pt x="430" y="-133" on="1"/>
        <pt x="443" y="-188" on="1"/>
        <pt x="392" y="-213" on="0"/>
        <pt x="308" y="-235" on="0"/>
        <pt x="276" y="-235" on="1"/>
        <pt x="223" y="-235" on="0"/>
        <pt x="169" y="-187" on="0"/>
        <pt x="169" y="-152" on="1"/>
        <pt x="169" y="-116" on="0"/>
        <pt x="239" y="-38" on="0"/>
        <pt x="320" y="0" on="1"/>
        <pt x="59" y="0" on="1"/>
        <pt x="193" y="688" on="1"/>
        <pt x="616" y="688" on="1"/>
        <pt x="595" y="583" on="1"/>
        <pt x="297" y="583" on="1"/>
        <pt x="260" y="392" on="1"/>
        <pt x="512" y="392" on="1"/>
        <pt x="494" y="300" on="1"/>
        <pt x="242" y="300" on="1"/>
        <pt x="204" y="105" on="1"/>
        <pt x="507" y="105" on="1"/>
        <pt x="479" y="0" on="1"/>
      </contour>
    </TTGlyph>
    <TTGlyph name="Eth" xMin="33" yMin="-6" xMax="593" yMax="696">
      <contour>
        <pt x="593" y="429" on="1"/>
        <pt x="593" y="344" on="0"/>
        <pt x="543" y="187" on="0"/>
        <pt x="436" y="66" on="0"/>
        <pt x="268" y="-6" on="0"/>
        <pt x="150" y="-6" on="1"/>
        <pt x="125" y="-6" on="0"/>
        <pt x="73" y="-3" on="0"/>
        <pt x="44" y="1" on="1"/>
        <pt x="102" y="304" on="1"/>
        <pt x="33" y="304" on="1"/>
        <pt x="50" y="391" on="1"/>
        <pt x="119" y="391" on="1"/>
        <pt x="176" y="685" on="1"/>
        <pt x="211" y="691" on="0"/>
        <pt x="277" y="696" on="0"/>
        <pt x="306" y="696" on="1"/>
        <pt x="593" y="696" on="0"/>
      </contour>
      <contour>
        <pt x="227" y="304" on="1"/>
        <pt x="187" y="98" on="1"/>
        <pt x="192" y="97" on="0"/>
        <pt x="204" y="97" on="0"/>
        <pt x="209" y="97" on="1"/>
        <pt x="274" y="97" on="0"/>
        <pt x="372" y="150" on="0"/>
        <pt x="437" y="238" on="0"/>
        <pt x="469" y="354" on="0"/>
        <pt x="469" y="417" on="1"/>
        <pt x="469" y="594" on="0"/>
        <pt x="313" y="594" on="1"/>
        <pt x="305" y="594" on="0"/>
        <pt x="290" y="593" on="0"/>
        <pt x="282" y="592" on="1"/>
        <pt x="243" y="391" on="1"/>
        <pt x="366" y="391" on="1"/>
        <pt x="344" y="304" on="1"/>
      </contour>
    </TTGlyph>
    <TTGlyph name="Euro" xMin="38" yMin="-14" xMax="629" yMax="703">
      <contour>
        <pt x="543" y="41" on="1"/>
        <pt x="481" y="12" on="0"/>
        <pt x="377" y="-14" on="0"/>
        <pt x="334" y="-14" on="1"/>
        <pt x="285" y="-14" on="0"/>
        <pt x="211" y="17" on="0"/>
        <pt x="159" y="74" on="0"/>
        <pt x="128" y="152" on="0"/>
        <pt x="124" y="200" on="1"/>
        <pt x="38" y="200" on="1"/>
        <pt x="56" y="288" on="1"/>
        <pt x="124" y="288" on="1"/>
        <pt x="126" y="310" on="0"/>
        <pt x="132" y="353" on="0"/>
        <pt x="137" y="374" on="1"/>
        <pt x="70" y="374" on="1"/>
        <pt x="88" y="461" on="1"/>
        <pt x="166" y="461" on="1"/>
        <pt x="188" y="513" on="0"/>
        <pt x="253" y="602" on="0"/>
        <pt x="331" y="667" on="0"/>
        <pt x="421" y="703" on="0"/>
        <pt x="469" y="703" on="1"/>
        <pt x="545" y="703" on="0"/>
        <pt x="622" y="615" on="0"/>
        <pt x="629" y="521" on="1"/>
        <pt x="521" y="504" on="1"/>
        <pt x="515" y="552" on="0"/>
        <pt x="482" y="602" on="0"/>
        <pt x="441" y="602" on="1"/>
        <pt x="414" y="602" on="0"/>
        <pt x="366" y="579" on="0"/>
        <pt x="324" y="539" on="0"/>
        <pt x="288" y="484" on="0"/>
        <pt x="275" y="452" on="1"/>
        <pt x="517" y="452" on="1"/>
        <pt x="497" y="374" on="1"/>
        <pt x="249" y="374" on="1"/>
        <pt x="244" y="353" on="0"/>
        <pt x="238" y="311" on="0"/>
        <pt x="236" y="291" on="1"/>
        <pt x="479" y="291" on="1"/>
        <pt x="459" y="212" on="1"/>
        <pt x="238" y="212" on="1"/>
        <pt x="246" y="149" on="0"/>
        <pt x="313" y="87" on="0"/>
        <pt x="379" y="87" on="1"/>
        <pt x="437" y="87" on="0"/>
        <pt x="532" y="113" on="1"/>
        <pt x="543" y="41" on="1"/>
      </contour>
    </TTGlyph>
    <TTGlyph name="F" xMin="63" yMin="0" xMax="629" yMax="688">
      <contour>
        <pt x="243" y="283" on="1"/>
        <pt x="188" y="0" on="1"/>
        <pt x="63" y="0" on="1"/>
        <pt x="196" y="688" on="1"/>
        <pt x="629" y="688" on="1"/>
        <pt x="610" y="582" on="1"/>
        <pt x="301" y="582" on="1"/>
        <pt x="262" y="379" on="1"/>
        <pt x="523" y="379" on="1"/>
        <pt x="504" y="283" on="1"/>
      </contour>
    </TTGlyph>
    <TTGlyph name="G" xMin="70" yMin="-121" xMax="581" yMax="703">
      <contour>
        <pt x="352" y="-121" on="1"/>
        <pt x="379" y="0" on="1"/>
        <pt x="354" y="-6" on="0"/>
        <pt x="308" y="-11" on="0"/>
        <pt x="287" y="-11" on="1"/>
        <pt x="182" y="-11" on="0"/>
        <pt x="70" y="121" on="0"/>
        <pt x="70" y="243" on="1"/>
        <pt x="70" y="333" on="0"/>
        <pt x="124" y="500" on="0"/>
        <pt x="218" y="627" on="0"/>
        <pt x="344" y="703" on="0"/>
        <pt x="415" y="703" on="1"/>
        <pt x="503" y="703" on="0"/>
        <pt x="581" y="594" on="0"/>
        <pt x="581" y="480" on="1"/>
        <pt x="581" y="469" on="0"/>
        <pt x="581" y="447" on="0"/>
        <pt x="580" y="435" on="1"/>
        <pt x="463" y="434" on="1"/>
        <pt x="463" y="460" on="1"/>
        <pt x="463" y="527" on="0"/>
        <pt x="434" y="592" on="0"/>
        <pt x="391" y="592" on="1"/>
        <pt x="349" y="592" on="0"/>
        <pt x="277" y="533" on="0"/>
        <pt x="224" y="438" on="0"/>
        <pt x="195" y="320" on="0"/>
        <pt x="195" y="261" on="1"/>
        <pt x="195" y="95" on="0"/>
        <pt x="321" y="95" on="1"/>
        <pt x="356" y="95" on="0"/>
        <pt x="404" y="109" on="1"/>
        <pt x="440" y="270" on="1"/>
        <pt x="557" y="274" on="1"/>
        <pt x="464" y="-119" on="1"/>
      </contour>
    </TTGlyph>
    <TTGlyph name="Gbreve" xMin="70" yMin="-121" xMax="669" yMax="986">
      <component glyphName="breve.cap" x="115" y="149" flags="0x204"/>
      <component glyphName="G" x="0" y="0" flags="0x4"/>
    </TTGlyph>
    <TTGlyph name="Gcommaaccent" xMin="70" yMin="-403" xMax="581" yMax="703">
      <component glyphName="G" x="0" y="0" flags="0x204"/>
      <component glyphName="commaaccent.cap" x="-71" y="-92" flags="0x4"/>
    </TTGlyph>
    <TTGlyph name="Gdotaccent" xMin="70" yMin="-121" xMax="581" yMax="938">
      <component glyphName="dotaccent.cap" x="115" y="149" flags="0x204"/>
      <component glyphName="G" x="0" y="0" flags="0x4"/>
    </TTGlyph>
    <TTGlyph name="H" xMin="39" yMin="0" xMax="629" yMax="688">
      <contour>
        <pt x="428" y="299" on="1"/>
        <pt x="223" y="299" on="1"/>
        <pt x="165" y="0" on="1"/>
        <pt x="39" y="0" on="1"/>
        <pt x="172" y="688" on="1"/>
        <pt x="298" y="688" on="1"/>
        <pt x="242" y="396" on="1"/>
        <pt x="447" y="396" on="1"/>
        <pt x="503" y="688" on="1"/>
        <pt x="629" y="688" on="1"/>
        <pt x="496" y="0" on="1"/>
        <pt x="370" y="0" on="1"/>
      </contour>
    </TTGlyph>
    <TTGlyph name="Hbar" xMin="39" yMin="0" xMax="676" yMax="688">
      <contour>
        <pt x="464" y="488" on="1"/>
        <pt x="259" y="488" on="1"/>
        <pt x="238" y="377" on="1"/>
        <pt x="443" y="377" on="1"/>
      </contour>
      <contour>
        <pt x="424" y="280" on="1"/>
        <pt x="219" y="280" on="1"/>
        <pt x="165" y="0" on="1"/>
        <pt x="39" y="0" on="1"/>
        <pt x="133" y="484" on="1"/>
        <pt x="62" y="484" on="1"/>
        <pt x="78" y="570" on="1"/>
        <pt x="149" y="570" on="1"/>
        <pt x="172" y="688" on="1"/>
        <pt x="298" y="688" on="1"/>
        <pt x="274" y="566" on="1"/>
        <pt x="479" y="566" on="1"/>
        <pt x="503" y="688" on="1"/>
        <pt x="629" y="688" on="1"/>
        <pt x="606" y="570" on="1"/>
        <pt x="676" y="570" on="1"/>
        <pt x="660" y="484" on="1"/>
        <pt x="590" y="484" on="1"/>
        <pt x="496" y="0" on="1"/>
        <pt x="370" y="0" on="1"/>
      </contour>
    </TTGlyph>
    <TTGlyph name="I" xMin="38" yMin="0" xMax="603" yMax="688">
      <contour>
        <pt x="495" y="98" on="1"/>
        <pt x="471" y="0" on="1"/>
        <pt x="38" y="0" on="1"/>
        <pt x="57" y="98" on="1"/>
        <pt x="211" y="98" on="1"/>
        <pt x="306" y="590" on="1"/>
        <pt x="150" y="590" on="1"/>
        <pt x="169" y="688" on="1"/>
        <pt x="603" y="688" on="1"/>
        <pt x="584" y="590" on="1"/>
        <pt x="431" y="590" on="1"/>
        <pt x="336" y="98" on="1"/>
      </contour>
    </TTGlyph>
    <TTGlyph name="Iacute" xMin="38" yMin="0" xMax="603" yMax="994">
      <component glyphName="I" x="0" y="0" flags="0x204"/>
      <component glyphName="acute.cap" x="85" y="135" flags="0x4"/>
    </TTGlyph>
    <TTGlyph name="Ibreve" xMin="38" yMin="0" xMax="653" yMax="972">
      <component glyphName="I" x="0" y="0" flags="0x204"/>
      <component glyphName="breve.cap" x="99" y="135" flags="0x4"/>
    </TTGlyph>
    <TTGlyph name="Icircumflex" xMin="38" yMin="0" xMax="620" yMax="982">
      <component glyphName="I" x="0" y="0" flags="0x204"/>
      <component glyphName="circumflex.cap" x="93" y="135" flags="0x4"/>
    </TTGlyph>
    <TTGlyph name="Idieresis" xMin="38" yMin="0" xMax="630" yMax="926">
      <component glyphName="I" x="0" y="0" flags="0x204"/>
      <component glyphName="dieresis.cap" x="87" y="135" flags="0x4"/>
    </TTGlyph>
    <TTGlyph name="Idotaccent" xMin="38" yMin="0" xMax="603" yMax="924">
      <component glyphName="I" x="0" y="0" flags="0x204"/>
      <component glyphName="dotaccent.cap" x="99" y="135" flags="0x4"/>
    </TTGlyph>
    <TTGlyph name="Igrave" xMin="38" yMin="0" xMax="603" yMax="999">
      <component glyphName="I" x="0" y="0" flags="0x204"/>
      <component glyphName="grave.cap" x="103" y="135" flags="0x4"/>
    </TTGlyph>
    <TTGlyph name="Imacron" xMin="38" yMin="0" xMax="622" yMax="901">
      <component glyphName="I" x="0" y="0" flags="0x204"/>
      <component glyphName="macron.cap" x="100" y="135" flags="0x4"/>
    </TTGlyph>
    <TTGlyph name="Iogonek" xMin="38" yMin="-234" xMax="603" yMax="688">
      <contour>
        <pt x="360" y="-187" on="1"/>
        <pt x="309" y="-212" on="0"/>
        <pt x="225" y="-234" on="0"/>
        <pt x="193" y="-234" on="1"/>
        <pt x="140" y="-234" on="0"/>
        <pt x="87" y="-186" on="0"/>
        <pt x="87" y="-151" on="1"/>
        <pt x="87" y="-115" on="0"/>
        <pt x="140" y="-38" on="0"/>
        <pt x="201" y="0" on="1"/>
        <pt x="38" y="0" on="1"/>
        <pt x="57" y="98" on="1"/>
        <pt x="211" y="98" on="1"/>
        <pt x="306" y="590" on="1"/>
        <pt x="150" y="590" on="1"/>
        <pt x="169" y="688" on="1"/>
        <pt x="603" y="688" on="1"/>
        <pt x="584" y="590" on="1"/>
        <pt x="431" y="590" on="1"/>
        <pt x="336" y="98" on="1"/>
        <pt x="495" y="98" on="1"/>
        <pt x="471" y="0" on="1"/>
        <pt x="329" y="0" on="1"/>
        <pt x="257" y="-29" on="0"/>
        <pt x="196" y="-90" on="0"/>
        <pt x="196" y="-117" on="1"/>
        <pt x="196" y="-133" on="0"/>
        <pt x="221" y="-152" on="0"/>
        <pt x="249" y="-152" on="1"/>
        <pt x="267" y="-152" on="0"/>
        <pt x="316" y="-143" on="0"/>
        <pt x="348" y="-132" on="1"/>
        <pt x="360" y="-187" on="1"/>
      </contour>
    </TTGlyph>
    <TTGlyph name="J" xMin="40" yMin="-12" xMax="568" yMax="688">
      <contour>
        <pt x="412" y="58" on="1"/>
        <pt x="395" y="41" on="0"/>
        <pt x="342" y="15" on="0"/>
        <pt x="259" y="-3" on="0"/>
        <pt x="143" y="-12" on="0"/>
        <pt x="64" y="-12" on="1"/>
        <pt x="40" y="-12" on="1"/>
        <pt x="59" y="101" on="1"/>
        <pt x="129" y="101" on="1"/>
        <pt x="177" y="101" on="0"/>
        <pt x="240" y="104" on="0"/>
        <pt x="282" y="110" on="0"/>
        <pt x="307" y="120" on="0"/>
        <pt x="315" y="128" on="1"/>
        <pt x="321" y="135" on="0"/>
        <pt x="332" y="155" on="0"/>
        <pt x="344" y="196" on="0"/>
        <pt x="358" y="261" on="0"/>
        <pt x="369" y="313" on="1"/>
        <pt x="423" y="590" on="1"/>
        <pt x="207" y="590" on="1"/>
        <pt x="227" y="688" on="1"/>
        <pt x="568" y="688" on="1"/>
        <pt x="497" y="326" on="1"/>
        <pt x="483" y="250" on="0"/>
        <pt x="461" y="156" on="0"/>
        <pt x="442" y="99" on="0"/>
        <pt x="423" y="70" on="0"/>
      </contour>
    </TTGlyph>
    <TTGlyph name="K" xMin="47" yMin="-8" xMax="664" yMax="688">
      <contour>
        <pt x="253" y="344" on="1"/>
        <pt x="531" y="688" on="1"/>
        <pt x="664" y="688" on="1"/>
        <pt x="387" y="344" on="1"/>
        <pt x="551" y="8" on="1"/>
        <pt x="420" y="-8" on="1"/>
      </contour>
      <contour>
        <pt x="304" y="688" on="1"/>
        <pt x="171" y="0" on="1"/>
        <pt x="47" y="0" on="1"/>
        <pt x="180" y="688" on="1"/>
      </contour>
    </TTGlyph>
    <TTGlyph name="Kcommaaccent" xMin="47" yMin="-319" xMax="664" yMax="688">
      <component glyphName="K" x="0" y="0" flags="0x204"/>
      <component glyphName="commaaccent.cap" x="-25" y="-8" flags="0x4"/>
    </TTGlyph>
    <TTGlyph name="L" xMin="65" yMin="0" xMax="527" yMax="688">
      <contour>
        <pt x="65" y="0" on="1"/>
        <pt x="198" y="688" on="1"/>
        <pt x="324" y="688" on="1"/>
        <pt x="212" y="106" on="1"/>
        <pt x="527" y="106" on="1"/>
        <pt x="505" y="0" on="1"/>
      </contour>
    </TTGlyph>
    <TTGlyph name="Lacute" xMin="65" yMin="0" xMax="617" yMax="994">
      <component glyphName="acute.cap" x="115" y="135" flags="0x204"/>
      <component glyphName="L" x="0" y="0" flags="0x4"/>
    </TTGlyph>
    <TTGlyph name="Lcaron" xMin="65" yMin="0" xMax="653" yMax="778">
      <component glyphName="L" x="0" y="0" flags="0x204"/>
      <component glyphName="caron.alt" x="201" y="-115" flags="0x4"/>
    </TTGlyph>
    <TTGlyph name="Lcommaaccent" xMin="65" yMin="-311" xMax="527" yMax="688">
      <component glyphName="L" x="0" y="0" flags="0x204"/>
      <component glyphName="commaaccent.cap" x="-37" y="0" flags="0x4"/>
    </TTGlyph>
    <TTGlyph name="Ldot" xMin="65" yMin="0" xMax="582" yMax="688">
      <contour>
        <pt x="65" y="0" on="1"/>
        <pt x="198" y="688" on="1"/>
        <pt x="324" y="688" on="1"/>
        <pt x="212" y="106" on="1"/>
        <pt x="527" y="106" on="1"/>
        <pt x="505" y="0" on="1"/>
      </contour>
      <contour>
        <pt x="423" y="289" on="1"/>
        <pt x="458" y="431" on="1"/>
        <pt x="582" y="431" on="1"/>
        <pt x="548" y="289" on="1"/>
      </contour>
    </TTGlyph>
    <TTGlyph name="Lslash" xMin="67" yMin="0" xMax="546" yMax="688">
      <contour>
        <pt x="84" y="0" on="1"/>
        <pt x="144" y="309" on="1"/>
        <pt x="70" y="275" on="1"/>
        <pt x="67" y="358" on="1"/>
        <pt x="162" y="402" on="1"/>
        <pt x="217" y="688" on="1"/>
        <pt x="343" y="688" on="1"/>
        <pt x="300" y="466" on="1"/>
        <pt x="441" y="531" on="1"/>
        <pt x="444" y="448" on="1"/>
        <pt x="282" y="373" on="1"/>
        <pt x="231" y="106" on="1"/>
        <pt x="546" y="106" on="1"/>
        <pt x="524" y="0" on="1"/>
      </contour>
    </TTGlyph>
    <TTGlyph name="M" xMin="34" yMin="0" xMax="643" yMax="691">
      <contour>
        <pt x="322" y="287" on="1"/>
        <pt x="325" y="287" on="1"/>
        <pt x="510" y="688" on="1"/>
        <pt x="643" y="688" on="1"/>
        <pt x="510" y="0" on="1"/>
        <pt x="392" y="0" on="1"/>
        <pt x="487" y="469" on="1"/>
        <pt x="483" y="469" on="1"/>
        <pt x="328" y="137" on="1"/>
        <pt x="260" y="137" on="1"/>
        <pt x="236" y="469" on="1"/>
        <pt x="232" y="469" on="1"/>
        <pt x="149" y="0" on="1"/>
        <pt x="34" y="0" on="1"/>
        <pt x="166" y="685" on="1"/>
        <pt x="292" y="691" on="1"/>
      </contour>
    </TTGlyph>
    <TTGlyph name="N" xMin="40" yMin="0" xMax="632" yMax="690">
      <contour>
        <pt x="249" y="469" on="1"/>
        <pt x="243" y="469" on="1"/>
        <pt x="157" y="0" on="1"/>
        <pt x="40" y="0" on="1"/>
        <pt x="173" y="686" on="1"/>
        <pt x="292" y="690" on="1"/>
        <pt x="423" y="225" on="1"/>
        <pt x="428" y="225" on="1"/>
        <pt x="515" y="688" on="1"/>
        <pt x="632" y="688" on="1"/>
        <pt x="498" y="0" on="1"/>
        <pt x="389" y="0" on="1"/>
      </contour>
    </TTGlyph>
    <TTGlyph name="Nacute" xMin="40" yMin="0" xMax="632" yMax="996">
      <component glyphName="acute.cap" x="99" y="137" flags="0x204"/>
      <component glyphName="N" x="0" y="0" flags="0x4"/>
    </TTGlyph>
    <TTGlyph name="Ncaron" xMin="40" yMin="0" xMax="652" yMax="980">
      <component glyphName="caron.cap" x="101" y="137" flags="0x204"/>
      <component glyphName="N" x="0" y="0" flags="0x4"/>
    </TTGlyph>
    <TTGlyph name="Ncommaaccent" xMin="40" yMin="-311" xMax="632" yMax="690">
      <component glyphName="commaaccent.cap" x="-53" y="0" flags="0x204"/>
      <component glyphName="N" x="0" y="0" flags="0x4"/>
    </TTGlyph>
    <TTGlyph name="Ntilde" xMin="40" yMin="0" xMax="676" yMax="961">
      <component glyphName="tilde.cap" x="113" y="137" flags="0x204"/>
      <component glyphName="N" x="0" y="0" flags="0x4"/>
    </TTGlyph>
    <TTGlyph name="O" xMin="64" yMin="-14" xMax="603" yMax="702">
      <contour>
        <pt x="603" y="441" on="1"/>
        <pt x="603" y="352" on="0"/>
        <pt x="555" y="188" on="0"/>
        <pt x="468" y="62" on="0"/>
        <pt x="348" y="-14" on="0"/>
        <pt x="276" y="-14" on="1"/>
        <pt x="230" y="-14" on="0"/>
        <pt x="152" y="17" on="0"/>
        <pt x="96" y="81" on="0"/>
        <pt x="64" y="179" on="0"/>
        <pt x="64" y="247" on="1"/>
        <pt x="64" y="335" on="0"/>
        <pt x="112" y="499" on="0"/>
        <pt x="199" y="626" on="0"/>
        <pt x="319" y="702" on="0"/>
        <pt x="391" y="702" on="1"/>
        <pt x="437" y="702" on="0"/>
        <pt x="515" y="671" on="0"/>
        <pt x="571" y="607" on="0"/>
        <pt x="603" y="509" on="0"/>
      </contour>
      <contour>
        <pt x="194" y="252" on="1"/>
        <pt x="194" y="169" on="0"/>
        <pt x="246" y="93" on="0"/>
        <pt x="291" y="93" on="1"/>
        <pt x="331" y="93" on="0"/>
        <pt x="398" y="153" on="0"/>
        <pt x="446" y="250" on="0"/>
        <pt x="473" y="373" on="0"/>
        <pt x="473" y="436" on="1"/>
        <pt x="473" y="519" on="0"/>
        <pt x="421" y="594" on="0"/>
        <pt x="377" y="594" on="1"/>
        <pt x="336" y="594" on="0"/>
        <pt x="269" y="534" on="0"/>
        <pt x="221" y="437" on="0"/>
        <pt x="194" y="315" on="0"/>
      </contour>
    </TTGlyph>
    <TTGlyph name="OE" xMin="55" yMin="0" xMax="671" yMax="688">
      <contour>
        <pt x="179" y="239" on="1"/>
        <pt x="179" y="173" on="0"/>
        <pt x="227" y="102" on="0"/>
        <pt x="278" y="102" on="1"/>
        <pt x="372" y="586" on="1"/>
        <pt x="336" y="585" on="0"/>
        <pt x="279" y="547" on="0"/>
        <pt x="236" y="487" on="0"/>
        <pt x="206" y="413" on="0"/>
        <pt x="187" y="337" on="0"/>
        <pt x="179" y="265" on="0"/>
      </contour>
      <contour>
        <pt x="536" y="0" on="1"/>
        <pt x="298" y="0" on="1"/>
        <pt x="242" y="0" on="0"/>
        <pt x="153" y="24" on="0"/>
        <pt x="89" y="79" on="0"/>
        <pt x="55" y="169" on="0"/>
        <pt x="55" y="235" on="1"/>
        <pt x="55" y="279" on="0"/>
        <pt x="71" y="381" on="0"/>
        <pt x="106" y="481" on="0"/>
        <pt x="165" y="574" on="0"/>
        <pt x="252" y="645" on="0"/>
        <pt x="368" y="688" on="0"/>
        <pt x="444" y="688" on="1"/>
        <pt x="671" y="688" on="1"/>
        <pt x="652" y="586" on="1"/>
        <pt x="478" y="586" on="1"/>
        <pt x="440" y="389" on="1"/>
        <pt x="581" y="389" on="1"/>
        <pt x="564" y="304" on="1"/>
        <pt x="424" y="304" on="1"/>
        <pt x="385" y="102" on="1"/>
        <pt x="563" y="102" on="1"/>
      </contour>
    </TTGlyph>
    <TTGlyph name="Oacute" xMin="64" yMin="-14" xMax="603" yMax="1009">
      <component glyphName="acute.cap" x="99" y="150" flags="0x204"/>
      <component glyphName="O" x="0" y="0" flags="0x4"/>
    </TTGlyph>
    <TTGlyph name="Obreve" xMin="64" yMin="-14" xMax="667" yMax="987">
      <component glyphName="breve.cap" x="113" y="150" flags="0x204"/>
      <component glyphName="O" x="0" y="0" flags="0x4"/>
    </TTGlyph>
    <TTGlyph name="Ocircumflex" xMin="64" yMin="-14" xMax="634" yMax="997">
      <component glyphName="O" x="0" y="0" flags="0x204"/>
      <component glyphName="circumflex.cap" x="107" y="150" flags="0x4"/>
    </TTGlyph>
    <TTGlyph name="Odieresis" xMin="64" yMin="-14" xMax="644" yMax="941">
      <component glyphName="dieresis.cap" x="101" y="150" flags="0x204"/>
      <component glyphName="O" x="0" y="0" flags="0x4"/>
    </TTGlyph>
    <TTGlyph name="Ograve" xMin="64" yMin="-14" xMax="603" yMax="1014">
      <component glyphName="grave.cap" x="117" y="150" flags="0x204"/>
      <component glyphName="O" x="0" y="0" flags="0x4"/>
    </TTGlyph>
    <TTGlyph name="Ohungarumlaut" xMin="64" yMin="-14" xMax="732" yMax="1033">
      <component glyphName="O" x="0" y="0" flags="0x204"/>
      <component glyphName="hungarumlaut.cap" x="85" y="150" flags="0x4"/>
    </TTGlyph>
    <TTGlyph name="Omacron" xMin="64" yMin="-14" xMax="636" yMax="916">
      <component glyphName="macron.cap" x="114" y="150" flags="0x204"/>
      <component glyphName="O" x="0" y="0" flags="0x4"/>
    </TTGlyph>
    <TTGlyph name="Omega" xMin="9" yMin="0" xMax="583" yMax="703">
      <contour>
        <pt x="221" y="0" on="1"/>
        <pt x="9" y="0" on="1"/>
        <pt x="29" y="98" on="1"/>
        <pt x="124" y="98" on="1"/>
        <pt x="113" y="151" on="0"/>
        <pt x="98" y="254" on="0"/>
        <pt x="98" y="311" on="1"/>
        <pt x="98" y="393" on="0"/>
        <pt x="132" y="536" on="0"/>
        <pt x="201" y="642" on="0"/>
        <pt x="308" y="703" on="0"/>
        <pt x="381" y="703" on="1"/>
        <pt x="479" y="703" on="0"/>
        <pt x="583" y="586" on="0"/>
        <pt x="583" y="483" on="1"/>
        <pt x="583" y="399" on="0"/>
        <pt x="516" y="211" on="0"/>
        <pt x="447" y="98" on="1"/>
        <pt x="538" y="98" on="1"/>
        <pt x="519" y="0" on="1"/>
        <pt x="309" y="0" on="1"/>
        <pt x="307" y="7" on="1"/>
        <pt x="386" y="164" on="0"/>
        <pt x="461" y="384" on="0"/>
        <pt x="461" y="464" on="1"/>
        <pt x="461" y="529" on="0"/>
        <pt x="409" y="596" on="0"/>
        <pt x="360" y="596" on="1"/>
        <pt x="320" y="596" on="0"/>
        <pt x="262" y="546" on="0"/>
        <pt x="224" y="459" on="0"/>
        <pt x="205" y="341" on="0"/>
        <pt x="205" y="274" on="1"/>
        <pt x="205" y="221" on="0"/>
        <pt x="208" y="145" on="0"/>
        <pt x="213" y="84" on="0"/>
        <pt x="220" y="34" on="0"/>
        <pt x="225" y="7" on="1"/>
      </contour>
    </TTGlyph>
    <TTGlyph name="Oslash" xMin="28" yMin="-49" xMax="638" yMax="737">
      <contour>
        <pt x="372" y="599" on="1"/>
        <pt x="332" y="599" on="0"/>
        <pt x="267" y="540" on="0"/>
        <pt x="220" y="444" on="0"/>
        <pt x="195" y="321" on="0"/>
        <pt x="195" y="256" on="1"/>
        <pt x="195" y="245" on="0"/>
        <pt x="196" y="223" on="0"/>
        <pt x="197" y="213" on="1"/>
        <pt x="446" y="557" on="1"/>
        <pt x="419" y="599" on="0"/>
      </contour>
      <contour>
        <pt x="295" y="90" on="1"/>
        <pt x="335" y="90" on="0"/>
        <pt x="400" y="149" on="0"/>
        <pt x="447" y="245" on="0"/>
        <pt x="472" y="368" on="0"/>
        <pt x="472" y="433" on="1"/>
        <pt x="472" y="445" on="0"/>
        <pt x="471" y="467" on="0"/>
        <pt x="470" y="478" on="1"/>
        <pt x="219" y="134" on="1"/>
        <pt x="245" y="90" on="0"/>
      </contour>
      <contour>
        <pt x="280" y="-15" on="1"/>
        <pt x="203" y="-15" on="0"/>
        <pt x="153" y="25" on="1"/>
        <pt x="99" y="-49" on="1"/>
        <pt x="28" y="-3" on="1"/>
        <pt x="98" y="94" on="1"/>
        <pt x="67" y="158" on="0"/>
        <pt x="67" y="256" on="1"/>
        <pt x="67" y="345" on="0"/>
        <pt x="115" y="507" on="0"/>
        <pt x="200" y="630" on="0"/>
        <pt x="317" y="703" on="0"/>
        <pt x="387" y="703" on="1"/>
        <pt x="461" y="703" on="0"/>
        <pt x="514" y="664" on="1"/>
        <pt x="567" y="737" on="1"/>
        <pt x="638" y="691" on="1"/>
        <pt x="568" y="596" on="1"/>
        <pt x="600" y="532" on="0"/>
        <pt x="600" y="432" on="1"/>
        <pt x="600" y="343" on="0"/>
        <pt x="553" y="182" on="0"/>
        <pt x="468" y="58" on="0"/>
        <pt x="350" y="-15" on="0"/>
      </contour>
    </TTGlyph>
    <TTGlyph name="Oslashacute" xMin="28" yMin="-49" xMax="638" yMax="1009">
      <component glyphName="Oslash" x="0" y="0" flags="0x204"/>
      <component glyphName="acute.cap" x="99" y="150" flags="0x4"/>
    </TTGlyph>
    <TTGlyph name="Otilde" xMin="64" yMin="-14" xMax="676" yMax="974">
      <component glyphName="tilde.cap" x="113" y="150" flags="0x204"/>
      <component glyphName="O" x="0" y="0" flags="0x4"/>
    </TTGlyph>
    <TTGlyph name="P" xMin="53" yMin="0" xMax="612" yMax="695">
      <contour>
        <pt x="53" y="0" on="1"/>
        <pt x="185" y="684" on="1"/>
        <pt x="224" y="690" on="0"/>
        <pt x="294" y="695" on="0"/>
        <pt x="326" y="695" on="1"/>
        <pt x="402" y="695" on="0"/>
        <pt x="510" y="666" on="0"/>
        <pt x="579" y="614" on="0"/>
        <pt x="612" y="544" on="0"/>
        <pt x="612" y="502" on="1"/>
        <pt x="612" y="442" on="0"/>
        <pt x="558" y="341" on="0"/>
        <pt x="456" y="265" on="0"/>
        <pt x="309" y="214" on="0"/>
        <pt x="216" y="204" on="1"/>
        <pt x="177" y="0" on="1"/>
      </contour>
      <contour>
        <pt x="490" y="481" on="1"/>
        <pt x="490" y="532" on="0"/>
        <pt x="417" y="593" on="0"/>
        <pt x="343" y="593" on="1"/>
        <pt x="331" y="593" on="0"/>
        <pt x="304" y="591" on="0"/>
        <pt x="290" y="589" on="1"/>
        <pt x="238" y="315" on="1"/>
        <pt x="245" y="315" on="0"/>
        <pt x="258" y="314" on="0"/>
        <pt x="264" y="314" on="1"/>
        <pt x="319" y="314" on="0"/>
        <pt x="404" y="339" on="0"/>
        <pt x="461" y="384" on="0"/>
        <pt x="490" y="445" on="0"/>
      </contour>
    </TTGlyph>
    <TTGlyph name="Q" xMin="80" yMin="-164" xMax="604" yMax="703">
      <contour>
        <pt x="130" y="-21" on="1"/>
        <pt x="160" y="69" on="1"/>
        <pt x="232" y="96" on="0"/>
        <pt x="348" y="182" on="0"/>
        <pt x="431" y="287" on="0"/>
        <pt x="476" y="405" on="0"/>
        <pt x="476" y="464" on="1"/>
        <pt x="476" y="532" on="0"/>
        <pt x="419" y="597" on="0"/>
        <pt x="368" y="597" on="1"/>
        <pt x="332" y="597" on="0"/>
        <pt x="272" y="559" on="0"/>
        <pt x="228" y="490" on="0"/>
        <pt x="204" y="392" on="0"/>
        <pt x="204" y="332" on="1"/>
        <pt x="204" y="298" on="0"/>
        <pt x="212" y="224" on="0"/>
        <pt x="221" y="183" on="1"/>
        <pt x="113" y="143" on="1"/>
        <pt x="96" y="191" on="0"/>
        <pt x="80" y="285" on="0"/>
        <pt x="80" y="331" on="1"/>
        <pt x="80" y="407" on="0"/>
        <pt x="123" y="543" on="0"/>
        <pt x="202" y="644" on="0"/>
        <pt x="315" y="703" on="0"/>
        <pt x="385" y="703" on="1"/>
        <pt x="440" y="703" on="0"/>
        <pt x="522" y="669" on="0"/>
        <pt x="577" y="607" on="0"/>
        <pt x="604" y="521" on="0"/>
        <pt x="604" y="469" on="1"/>
        <pt x="604" y="401" on="0"/>
        <pt x="556" y="272" on="0"/>
        <pt x="471" y="158" on="0"/>
        <pt x="356" y="64" on="0"/>
        <pt x="289" y="31" on="1"/>
        <pt x="512" y="-64" on="1"/>
        <pt x="461" y="-164" on="1"/>
      </contour>
    </TTGlyph>
    <TTGlyph name="R" xMin="48" yMin="-9" xMax="590" yMax="696">
      <contour>
        <pt x="272" y="309" on="1"/>
        <pt x="272" y="311" on="1"/>
        <pt x="325" y="335" on="0"/>
        <pt x="399" y="382" on="0"/>
        <pt x="445" y="428" on="0"/>
        <pt x="465" y="476" on="0"/>
        <pt x="465" y="502" on="1"/>
        <pt x="465" y="545" on="0"/>
        <pt x="401" y="592" on="0"/>
        <pt x="337" y="592" on="1"/>
        <pt x="325" y="592" on="0"/>
        <pt x="298" y="590" on="0"/>
        <pt x="284" y="588" on="1"/>
        <pt x="171" y="0" on="1"/>
        <pt x="48" y="0" on="1"/>
        <pt x="180" y="685" on="1"/>
        <pt x="222" y="690" on="0"/>
        <pt x="293" y="696" on="0"/>
        <pt x="325" y="696" on="1"/>
        <pt x="398" y="696" on="0"/>
        <pt x="500" y="670" on="0"/>
        <pt x="562" y="624" on="0"/>
        <pt x="590" y="563" on="0"/>
        <pt x="590" y="527" on="1"/>
        <pt x="590" y="453" on="0"/>
        <pt x="492" y="338" on="0"/>
        <pt x="411" y="293" on="1"/>
        <pt x="554" y="9" on="1"/>
        <pt x="418" y="-9" on="1"/>
      </contour>
    </TTGlyph>
    <TTGlyph name="R_p" xMin="9" yMin="-194" xMax="641" yMax="694">
      <contour>
        <pt x="164" y="252" on="1"/>
        <pt x="150" y="248" on="1"/>
        <pt x="100" y="0" on="1"/>
        <pt x="9" y="0" on="1"/>
        <pt x="143" y="689" on="1"/>
        <pt x="162" y="691" on="0"/>
        <pt x="197" y="694" on="0"/>
        <pt x="212" y="694" on="1"/>
        <pt x="299" y="694" on="0"/>
        <pt x="373" y="623" on="0"/>
        <pt x="373" y="559" on="1"/>
        <pt x="373" y="489" on="0"/>
        <pt x="305" y="355" on="0"/>
        <pt x="248" y="304" on="1"/>
        <pt x="288" y="7" on="1"/>
        <pt x="192" y="-6" on="1"/>
      </contour>
      <contour>
        <pt x="283" y="-194" on="1"/>
        <pt x="288" y="-165" on="0"/>
        <pt x="312" y="-41" on="0"/>
        <pt x="342" y="114" on="0"/>
        <pt x="373" y="283" on="0"/>
        <pt x="401" y="428" on="0"/>
        <pt x="420" y="534" on="0"/>
        <pt x="423" y="549" on="1"/>
        <pt x="508" y="555" on="1"/>
        <pt x="501" y="509" on="1"/>
        <pt x="521" y="534" on="0"/>
        <pt x="565" y="567" on="0"/>
        <pt x="587" y="567" on="1"/>
        <pt x="613" y="567" on="0"/>
        <pt x="641" y="507" on="0"/>
        <pt x="641" y="438" on="1"/>
        <pt x="641" y="393" on="0"/>
        <pt x="628" y="291" on="0"/>
        <pt x="602" y="191" on="0"/>
        <pt x="566" y="100" on="0"/>
        <pt x="520" y="31" on="0"/>
        <pt x="466" y="-10" on="0"/>
        <pt x="435" y="-10" on="1"/>
        <pt x="421" y="-10" on="0"/>
        <pt x="408" y="-6" on="1"/>
        <pt x="407" y="-11" on="0"/>
        <pt x="401" y="-39" on="0"/>
        <pt x="394" y="-76" on="0"/>
        <pt x="386" y="-116" on="0"/>
        <pt x="379" y="-153" on="0"/>
        <pt x="374" y="-180" on="0"/>
        <pt x="373" y="-185" on="1"/>
      </contour>
    </TTGlyph>
    <TTGlyph name="Racute" xMin="48" yMin="-9" xMax="590" yMax="1002">
      <component glyphName="R" x="0" y="0" flags="0x204"/>
      <component glyphName="acute.cap" x="81" y="143" flags="0x4"/>
    </TTGlyph>
    <TTGlyph name="Rcaron" xMin="48" yMin="-9" xMax="634" yMax="986">
      <component glyphName="caron.cap" x="83" y="143" flags="0x204"/>
      <component glyphName="R" x="0" y="0" flags="0x4"/>
    </TTGlyph>
    <TTGlyph name="Rcommaaccent" xMin="48" yMin="-320" xMax="590" yMax="696">
      <component glyphName="R" x="0" y="0" flags="0x204"/>
      <component glyphName="commaaccent.cap" x="-43" y="-9" flags="0x4"/>
    </TTGlyph>
    <TTGlyph name="S" xMin="37" yMin="-10" xMax="587" yMax="701">
      <contour>
        <pt x="478" y="483" on="1"/>
        <pt x="465" y="545" on="0"/>
        <pt x="408" y="597" on="0"/>
        <pt x="360" y="597" on="1"/>
        <pt x="314" y="597" on="0"/>
        <pt x="255" y="544" on="0"/>
        <pt x="255" y="506" on="1"/>
        <pt x="255" y="477" on="0"/>
        <pt x="296" y="427" on="0"/>
        <pt x="356" y="377" on="0"/>
        <pt x="428" y="327" on="0"/>
        <pt x="488" y="271" on="0"/>
        <pt x="529" y="207" on="0"/>
        <pt x="529" y="169" on="1"/>
        <pt x="529" y="135" on="0"/>
        <pt x="496" y="71" on="0"/>
        <pt x="426" y="21" on="0"/>
        <pt x="316" y="-10" on="0"/>
        <pt x="239" y="-10" on="1"/>
        <pt x="195" y="-10" on="0"/>
        <pt x="95" y="1" on="0"/>
        <pt x="37" y="13" on="1"/>
        <pt x="62" y="134" on="1"/>
        <pt x="134" y="114" on="0"/>
        <pt x="241" y="98" on="0"/>
        <pt x="280" y="98" on="1"/>
        <pt x="346" y="98" on="0"/>
        <pt x="400" y="135" on="0"/>
        <pt x="400" y="162" on="1"/>
        <pt x="400" y="187" on="0"/>
        <pt x="360" y="232" on="0"/>
        <pt x="300" y="279" on="0"/>
        <pt x="229" y="328" on="0"/>
        <pt x="169" y="384" on="0"/>
        <pt x="129" y="451" on="0"/>
        <pt x="129" y="491" on="1"/>
        <pt x="129" y="533" on="0"/>
        <pt x="166" y="609" on="0"/>
        <pt x="234" y="667" on="0"/>
        <pt x="328" y="701" on="0"/>
        <pt x="385" y="701" on="1"/>
        <pt x="477" y="701" on="0"/>
        <pt x="571" y="601" on="0"/>
        <pt x="587" y="505" on="1"/>
      </contour>
    </TTGlyph>
    <TTGlyph name="Sacute" xMin="37" yMin="-10" xMax="610" yMax="1007">
      <component glyphName="S" x="0" y="0" flags="0x204"/>
      <component glyphName="acute.cap" x="108" y="148" flags="0x4"/>
    </TTGlyph>
    <TTGlyph name="Scaron" xMin="37" yMin="-10" xMax="662" yMax="991">
      <component glyphName="S" x="0" y="0" flags="0x204"/>
      <component glyphName="caron.cap" x="111" y="148" flags="0x4"/>
    </TTGlyph>
    <TTGlyph name="Scedilla" xMin="37" yMin="-208" xMax="587" yMax="701">
      <contour>
        <pt x="278" y="-208" on="1"/>
        <pt x="279" y="-199" on="0"/>
        <pt x="279" y="-181" on="0"/>
        <pt x="279" y="-173" on="1"/>
        <pt x="279" y="-119" on="0"/>
        <pt x="255" y="-74" on="0"/>
        <pt x="235" y="-74" on="1"/>
        <pt x="211" y="-74" on="0"/>
        <pt x="163" y="-130" on="0"/>
        <pt x="138" y="-181" on="1"/>
        <pt x="77" y="-161" on="1"/>
        <pt x="126" y="-45" on="0"/>
        <pt x="185" y="-8" on="1"/>
        <pt x="118" y="-4" on="0"/>
        <pt x="37" y="13" on="1"/>
        <pt x="62" y="134" on="1"/>
        <pt x="134" y="114" on="0"/>
        <pt x="241" y="98" on="0"/>
        <pt x="280" y="98" on="1"/>
        <pt x="346" y="98" on="0"/>
        <pt x="400" y="135" on="0"/>
        <pt x="400" y="162" on="1"/>
        <pt x="400" y="187" on="0"/>
        <pt x="360" y="232" on="0"/>
        <pt x="300" y="279" on="0"/>
        <pt x="229" y="328" on="0"/>
        <pt x="169" y="384" on="0"/>
        <pt x="129" y="451" on="0"/>
        <pt x="129" y="491" on="1"/>
        <pt x="129" y="533" on="0"/>
        <pt x="166" y="609" on="0"/>
        <pt x="234" y="667" on="0"/>
        <pt x="328" y="701" on="0"/>
        <pt x="385" y="701" on="1"/>
        <pt x="477" y="701" on="0"/>
        <pt x="571" y="601" on="0"/>
        <pt x="587" y="505" on="1"/>
        <pt x="478" y="483" on="1"/>
        <pt x="465" y="545" on="0"/>
        <pt x="408" y="597" on="0"/>
        <pt x="360" y="597" on="1"/>
        <pt x="314" y="597" on="0"/>
        <pt x="255" y="544" on="0"/>
        <pt x="255" y="506" on="1"/>
        <pt x="255" y="477" on="0"/>
        <pt x="296" y="427" on="0"/>
        <pt x="356" y="377" on="0"/>
        <pt x="428" y="327" on="0"/>
        <pt x="488" y="271" on="0"/>
        <pt x="529" y="207" on="0"/>
        <pt x="529" y="169" on="1"/>
        <pt x="529" y="139" on="0"/>
        <pt x="504" y="83" on="0"/>
        <pt x="451" y="35" on="0"/>
        <pt x="369" y="1" on="0"/>
        <pt x="311" y="-6" on="1"/>
        <pt x="343" y="-26" on="0"/>
        <pt x="383" y="-111" on="0"/>
        <pt x="383" y="-180" on="1"/>
        <pt x="383" y="-186" on="0"/>
        <pt x="383" y="-199" on="0"/>
        <pt x="382" y="-206" on="1"/>
        <pt x="278" y="-208" on="1"/>
      </contour>
    </TTGlyph>
    <TTGlyph name="Scommaaccent" xMin="37" yMin="-321" xMax="587" yMax="701">
      <component glyphName="S" x="0" y="0" flags="0x204"/>
      <component glyphName="commaaccent.cap" x="-65" y="-10" flags="0x4"/>
    </TTGlyph>
    <TTGlyph name="T" xMin="111" yMin="0" xMax="653" yMax="688">
      <contour>
        <pt x="322" y="0" on="1"/>
        <pt x="196" y="0" on="1"/>
        <pt x="308" y="582" on="1"/>
        <pt x="111" y="582" on="1"/>
        <pt x="132" y="688" on="1"/>
        <pt x="653" y="688" on="1"/>
        <pt x="632" y="582" on="1"/>
        <pt x="434" y="582" on="1"/>
      </contour>
    </TTGlyph>
    <TTGlyph name="Tcaron" xMin="111" yMin="0" xMax="653" yMax="978">
      <component glyphName="caron.cap" x="91" y="135" flags="0x204"/>
      <component glyphName="T" x="0" y="0" flags="0x4"/>
    </TTGlyph>
    <TTGlyph name="Tcommaaccent" xMin="111" yMin="-311" xMax="653" yMax="688">
      <component glyphName="T" x="0" y="0" flags="0x204"/>
      <component glyphName="commaaccent.cap" x="-63" y="0" flags="0x4"/>
    </TTGlyph>
    <TTGlyph name="Thorn" xMin="53" yMin="0" xMax="592" yMax="688">
      <contour>
        <pt x="53" y="0" on="1"/>
        <pt x="187" y="688" on="1"/>
        <pt x="312" y="688" on="1"/>
        <pt x="293" y="592" on="1"/>
        <pt x="307" y="592" on="1"/>
        <pt x="382" y="592" on="0"/>
        <pt x="490" y="563" on="0"/>
        <pt x="559" y="511" on="0"/>
        <pt x="592" y="441" on="0"/>
        <pt x="592" y="399" on="1"/>
        <pt x="592" y="339" on="0"/>
        <pt x="538" y="239" on="0"/>
        <pt x="436" y="162" on="0"/>
        <pt x="290" y="111" on="0"/>
        <pt x="197" y="101" on="1"/>
        <pt x="177" y="0" on="1"/>
      </contour>
      <contour>
        <pt x="470" y="378" on="1"/>
        <pt x="470" y="429" on="0"/>
        <pt x="397" y="490" on="0"/>
        <pt x="323" y="490" on="1"/>
        <pt x="300" y="490" on="0"/>
        <pt x="273" y="487" on="1"/>
        <pt x="219" y="212" on="1"/>
        <pt x="225" y="212" on="0"/>
        <pt x="237" y="211" on="0"/>
        <pt x="243" y="211" on="1"/>
        <pt x="298" y="211" on="0"/>
        <pt x="383" y="236" on="0"/>
        <pt x="441" y="281" on="0"/>
        <pt x="470" y="342" on="0"/>
      </contour>
    </TTGlyph>
    <TTGlyph name="U" xMin="77" yMin="-15" xMax="630" yMax="688">
      <contour>
        <pt x="276" y="-15" on="1"/>
        <pt x="230" y="-15" on="0"/>
        <pt x="157" y="6" on="0"/>
        <pt x="105" y="52" on="0"/>
        <pt x="77" y="123" on="0"/>
        <pt x="77" y="173" on="1"/>
        <pt x="77" y="193" on="0"/>
        <pt x="82" y="237" on="0"/>
        <pt x="87" y="262" on="1"/>
        <pt x="169" y="688" on="1"/>
        <pt x="293" y="688" on="1"/>
        <pt x="210" y="256" on="1"/>
        <pt x="206" y="237" on="0"/>
        <pt x="203" y="205" on="0"/>
        <pt x="203" y="191" on="1"/>
        <pt x="203" y="136" on="0"/>
        <pt x="251" y="93" on="0"/>
        <pt x="291" y="93" on="1"/>
        <pt x="340" y="93" on="0"/>
        <pt x="402" y="156" on="0"/>
        <pt x="416" y="228" on="1"/>
        <pt x="505" y="688" on="1"/>
        <pt x="630" y="688" on="1"/>
        <pt x="541" y="230" on="1"/>
        <pt x="515" y="99" on="0"/>
        <pt x="378" y="-15" on="0"/>
      </contour>
    </TTGlyph>
    <TTGlyph name="Uacute" xMin="77" yMin="-15" xMax="630" yMax="994">
      <component glyphName="acute.cap" x="96" y="135" flags="0x204"/>
      <component glyphName="U" x="0" y="0" flags="0x4"/>
    </TTGlyph>
    <TTGlyph name="Ubreve" xMin="77" yMin="-15" xMax="664" yMax="972">
      <component glyphName="breve.cap" x="110" y="135" flags="0x204"/>
      <component glyphName="U" x="0" y="0" flags="0x4"/>
    </TTGlyph>
    <TTGlyph name="Ucircumflex" xMin="77" yMin="-15" xMax="631" yMax="982">
      <component glyphName="U" x="0" y="0" flags="0x204"/>
      <component glyphName="circumflex.cap" x="104" y="135" flags="0x4"/>
    </TTGlyph>
    <TTGlyph name="Udieresis" xMin="77" yMin="-15" xMax="641" yMax="926">
      <component glyphName="dieresis.cap" x="98" y="135" flags="0x204"/>
      <component glyphName="U" x="0" y="0" flags="0x4"/>
    </TTGlyph>
    <TTGlyph name="Ugrave" xMin="77" yMin="-15" xMax="630" yMax="999">
      <component glyphName="grave.cap" x="114" y="135" flags="0x204"/>
      <component glyphName="U" x="0" y="0" flags="0x4"/>
    </TTGlyph>
    <TTGlyph name="Uhungarumlaut" xMin="77" yMin="-15" xMax="729" yMax="1018">
      <component glyphName="U" x="0" y="0" flags="0x204"/>
      <component glyphName="hungarumlaut.cap" x="82" y="135" flags="0x4"/>
    </TTGlyph>
    <TTGlyph name="Umacron" xMin="77" yMin="-15" xMax="633" yMax="901">
      <component glyphName="macron.cap" x="111" y="135" flags="0x204"/>
      <component glyphName="U" x="0" y="0" flags="0x4"/>
    </TTGlyph>
    <TTGlyph name="Uogonek" xMin="77" yMin="-234" xMax="630" yMax="688">
      <contour>
        <pt x="398" y="-187" on="1"/>
        <pt x="347" y="-212" on="0"/>
        <pt x="263" y="-234" on="0"/>
        <pt x="230" y="-234" on="1"/>
        <pt x="177" y="-234" on="0"/>
        <pt x="124" y="-186" on="0"/>
        <pt x="124" y="-151" on="1"/>
        <pt x="124" y="-118" on="0"/>
        <pt x="183" y="-48" on="0"/>
        <pt x="246" y="-14" on="1"/>
        <pt x="168" y="-7" on="0"/>
        <pt x="77" y="82" on="0"/>
        <pt x="77" y="173" on="1"/>
        <pt x="77" y="193" on="0"/>
        <pt x="82" y="237" on="0"/>
        <pt x="87" y="262" on="1"/>
        <pt x="169" y="688" on="1"/>
        <pt x="293" y="688" on="1"/>
        <pt x="210" y="256" on="1"/>
        <pt x="206" y="237" on="0"/>
        <pt x="203" y="205" on="0"/>
        <pt x="203" y="191" on="1"/>
        <pt x="203" y="136" on="0"/>
        <pt x="251" y="93" on="0"/>
        <pt x="291" y="93" on="1"/>
        <pt x="340" y="93" on="0"/>
        <pt x="402" y="156" on="0"/>
        <pt x="416" y="228" on="1"/>
        <pt x="505" y="688" on="1"/>
        <pt x="630" y="688" on="1"/>
        <pt x="541" y="230" on="1"/>
        <pt x="524" y="146" on="0"/>
        <pt x="456" y="41" on="0"/>
        <pt x="405" y="14" on="1"/>
        <pt x="357" y="-10" on="0"/>
        <pt x="292" y="-47" on="0"/>
        <pt x="252" y="-77" on="0"/>
        <pt x="234" y="-103" on="0"/>
        <pt x="234" y="-117" on="1"/>
        <pt x="234" y="-133" on="0"/>
        <pt x="259" y="-152" on="0"/>
        <pt x="287" y="-152" on="1"/>
        <pt x="304" y="-152" on="0"/>
        <pt x="353" y="-143" on="0"/>
        <pt x="385" y="-132" on="1"/>
        <pt x="398" y="-187" on="1"/>
      </contour>
    </TTGlyph>
    <TTGlyph name="Uring" xMin="77" yMin="-15" xMax="630" yMax="985">
      <component glyphName="U" x="0" y="0" flags="0x204"/>
      <component glyphName="ring.cap" x="73" y="135" flags="0x4"/>
    </TTGlyph>
    <TTGlyph name="V" xMin="117" yMin="0" xMax="669" yMax="693">
      <contour>
        <pt x="172" y="0" on="1"/>
        <pt x="153" y="173" on="0"/>
        <pt x="125" y="511" on="0"/>
        <pt x="117" y="684" on="1"/>
        <pt x="242" y="693" on="1"/>
        <pt x="247" y="549" on="0"/>
        <pt x="265" y="258" on="0"/>
        <pt x="275" y="113" on="1"/>
        <pt x="286" y="113" on="1"/>
        <pt x="353" y="258" on="0"/>
        <pt x="483" y="544" on="0"/>
        <pt x="543" y="688" on="1"/>
        <pt x="669" y="688" on="1"/>
        <pt x="593" y="516" on="0"/>
        <pt x="432" y="173" on="0"/>
        <pt x="345" y="0" on="1"/>
      </contour>
    </TTGlyph>
    <TTGlyph name="W" xMin="67" yMin="0" xMax="664" yMax="688">
      <contour>
        <pt x="333" y="327" on="1"/>
        <pt x="188" y="0" on="1"/>
        <pt x="67" y="0" on="1"/>
        <pt x="69" y="49" on="0"/>
        <pt x="80" y="194" on="0"/>
        <pt x="99" y="372" on="0"/>
        <pt x="125" y="578" on="0"/>
        <pt x="141" y="688" on="1"/>
        <pt x="265" y="688" on="1"/>
        <pt x="262" y="670" on="0"/>
        <pt x="249" y="585" on="0"/>
        <pt x="232" y="475" on="0"/>
        <pt x="214" y="354" on="0"/>
        <pt x="198" y="250" on="0"/>
        <pt x="188" y="176" on="0"/>
        <pt x="187" y="168" on="1"/>
        <pt x="193" y="168" on="1"/>
        <pt x="330" y="482" on="1"/>
        <pt x="401" y="482" on="1"/>
        <pt x="417" y="168" on="1"/>
        <pt x="421" y="168" on="1"/>
        <pt x="424" y="176" on="0"/>
        <pt x="442" y="250" on="0"/>
        <pt x="466" y="354" on="0"/>
        <pt x="494" y="475" on="0"/>
        <pt x="519" y="585" on="0"/>
        <pt x="539" y="670" on="0"/>
        <pt x="543" y="688" on="1"/>
        <pt x="664" y="688" on="1"/>
        <pt x="637" y="577" on="0"/>
        <pt x="584" y="371" on="0"/>
        <pt x="535" y="193" on="0"/>
        <pt x="491" y="49" on="0"/>
        <pt x="475" y="0" on="1"/>
        <pt x="352" y="0" on="1"/>
      </contour>
    </TTGlyph>
    <TTGlyph name="Wacute" xMin="67" yMin="0" xMax="664" yMax="994">
      <component glyphName="acute.cap" x="99" y="135" flags="0x204"/>
      <component glyphName="W" x="0" y="0" flags="0x4"/>
    </TTGlyph>
    <TTGlyph name="Wcircumflex" xMin="67" yMin="0" xMax="664" yMax="982">
      <component glyphName="W" x="0" y="0" flags="0x204"/>
      <component glyphName="circumflex.cap" x="107" y="135" flags="0x4"/>
    </TTGlyph>
    <TTGlyph name="Wdieresis" xMin="67" yMin="0" xMax="664" yMax="926">
      <component glyphName="dieresis.cap" x="100" y="135" flags="0x204"/>
      <component glyphName="W" x="0" y="0" flags="0x4"/>
    </TTGlyph>
    <TTGlyph name="Wgrave" xMin="67" yMin="0" xMax="664" yMax="999">
      <component glyphName="grave.cap" x="117" y="135" flags="0x204"/>
      <component glyphName="W" x="0" y="0" flags="0x4"/>
    </TTGlyph>
    <TTGlyph name="X" xMin="-8" yMin="-3" xMax="670" yMax="692">
      <contour>
        <pt x="308" y="259" on="1"/>
        <pt x="126" y="0" on="1"/>
        <pt x="-8" y="0" on="1"/>
        <pt x="258" y="352" on="1"/>
        <pt x="124" y="685" on="1"/>
        <pt x="253" y="692" on="1"/>
        <pt x="352" y="429" on="1"/>
        <pt x="535" y="688" on="1"/>
        <pt x="670" y="688" on="1"/>
        <pt x="403" y="336" on="1"/>
        <pt x="536" y="3" on="1"/>
        <pt x="406" y="-3" on="1"/>
      </contour>
    </TTGlyph>
    <TTGlyph name="Y" xMin="114" yMin="0" xMax="676" yMax="691">
      <contour>
        <pt x="199" y="0" on="1"/>
        <pt x="244" y="231" on="1"/>
        <pt x="114" y="686" on="1"/>
        <pt x="242" y="691" on="1"/>
        <pt x="330" y="346" on="1"/>
        <pt x="543" y="688" on="1"/>
        <pt x="676" y="688" on="1"/>
        <pt x="367" y="223" on="1"/>
        <pt x="325" y="0" on="1"/>
      </contour>
    </TTGlyph>
    <TTGlyph name="Yacute" xMin="114" yMin="0" xMax="676" yMax="997">
      <component glyphName="Y" x="0" y="0" flags="0x204"/>
      <component glyphName="acute.cap" x="92" y="138" flags="0x4"/>
    </TTGlyph>
    <TTGlyph name="Ycircumflex" xMin="114" yMin="0" xMax="676" yMax="985">
      <component glyphName="Y" x="0" y="0" flags="0x204"/>
      <component glyphName="circumflex.cap" x="99" y="138" flags="0x4"/>
    </TTGlyph>
    <TTGlyph name="Ydieresis" xMin="114" yMin="0" xMax="676" yMax="929">
      <component glyphName="Y" x="0" y="0" flags="0x204"/>
      <component glyphName="dieresis.cap" x="93" y="138" flags="0x4"/>
    </TTGlyph>
    <TTGlyph name="Ygrave" xMin="114" yMin="0" xMax="676" yMax="1002">
      <component glyphName="Y" x="0" y="0" flags="0x204"/>
      <component glyphName="grave.cap" x="109" y="138" flags="0x4"/>
    </TTGlyph>
    <TTGlyph name="Z" xMin="26" yMin="0" xMax="624" yMax="688">
      <contour>
        <pt x="26" y="0" on="1"/>
        <pt x="45" y="105" on="1"/>
        <pt x="466" y="582" on="1"/>
        <pt x="142" y="579" on="1"/>
        <pt x="163" y="688" on="1"/>
        <pt x="624" y="688" on="1"/>
        <pt x="606" y="583" on="1"/>
        <pt x="189" y="107" on="1"/>
        <pt x="518" y="109" on="1"/>
        <pt x="497" y="0" on="1"/>
      </contour>
    </TTGlyph>
    <TTGlyph name="Zacute" xMin="26" yMin="0" xMax="624" yMax="994">
      <component glyphName="Z" x="0" y="0" flags="0x204"/>
      <component glyphName="acute.cap" x="91" y="135" flags="0x4"/>
    </TTGlyph>
    <TTGlyph name="Zcaron" xMin="26" yMin="0" xMax="644" yMax="978">
      <component glyphName="caron.cap" x="93" y="135" flags="0x204"/>
      <component glyphName="Z" x="0" y="0" flags="0x4"/>
    </TTGlyph>
    <TTGlyph name="Zdotaccent" xMin="26" yMin="0" xMax="624" yMax="924">
      <component glyphName="dotaccent.cap" x="104" y="135" flags="0x204"/>
      <component glyphName="Z" x="0" y="0" flags="0x4"/>
    </TTGlyph>
    <TTGlyph name="a" xMin="51" yMin="-13" xMax="580" yMax="565">
      <contour>
        <pt x="580" y="46" on="1"/>
        <pt x="529" y="15" on="0"/>
        <pt x="455" y="-13" on="0"/>
        <pt x="430" y="-13" on="1"/>
        <pt x="395" y="-13" on="0"/>
        <pt x="366" y="34" on="0"/>
        <pt x="366" y="76" on="1"/>
        <pt x="366" y="82" on="0"/>
        <pt x="366" y="94" on="0"/>
        <pt x="367" y="100" on="1"/>
        <pt x="343" y="76" on="0"/>
        <pt x="291" y="35" on="0"/>
        <pt x="240" y="5" on="0"/>
        <pt x="189" y="-13" on="0"/>
        <pt x="167" y="-13" on="1"/>
        <pt x="117" y="-13" on="0"/>
        <pt x="51" y="71" on="0"/>
        <pt x="51" y="159" on="1"/>
        <pt x="51" y="236" on="0"/>
        <pt x="99" y="382" on="0"/>
        <pt x="189" y="496" on="0"/>
        <pt x="316" y="565" on="0"/>
        <pt x="396" y="565" on="1"/>
        <pt x="434" y="565" on="0"/>
        <pt x="518" y="553" on="0"/>
        <pt x="562" y="540" on="1"/>
        <pt x="486" y="149" on="1"/>
        <pt x="481" y="126" on="0"/>
        <pt x="481" y="114" on="1"/>
        <pt x="481" y="92" on="0"/>
        <pt x="504" y="92" on="1"/>
        <pt x="521" y="92" on="0"/>
        <pt x="569" y="106" on="1"/>
      </contour>
      <contour>
        <pt x="232" y="100" on="1"/>
        <pt x="261" y="100" on="0"/>
        <pt x="339" y="145" on="0"/>
        <pt x="375" y="179" on="1"/>
        <pt x="379" y="199" on="0"/>
        <pt x="391" y="263" on="0"/>
        <pt x="406" y="338" on="0"/>
        <pt x="421" y="414" on="0"/>
        <pt x="427" y="446" on="1"/>
        <pt x="399" y="454" on="0"/>
        <pt x="350" y="464" on="0"/>
        <pt x="333" y="464" on="1"/>
        <pt x="300" y="464" on="0"/>
        <pt x="242" y="415" on="0"/>
        <pt x="199" y="336" on="0"/>
        <pt x="173" y="237" on="0"/>
        <pt x="173" y="188" on="1"/>
        <pt x="173" y="140" on="0"/>
        <pt x="207" y="100" on="0"/>
      </contour>
    </TTGlyph>
    <TTGlyph name="aacute" xMin="51" yMin="-13" xMax="593" yMax="870">
      <component glyphName="a" x="0" y="0" flags="0x204"/>
      <component glyphName="acute" x="91" y="11" flags="0x4"/>
    </TTGlyph>
    <TTGlyph name="abreve" xMin="51" yMin="-13" xMax="658" yMax="848">
      <component glyphName="a" x="0" y="0" flags="0x204"/>
      <component glyphName="breve" x="104" y="11" flags="0x4"/>
    </TTGlyph>
    <TTGlyph name="acircumflex" xMin="51" yMin="-13" xMax="626" yMax="858">
      <component glyphName="a" x="0" y="0" flags="0x204"/>
      <component glyphName="circumflex" x="99" y="11" flags="0x4"/>
    </TTGlyph>
    <TTGlyph name="acute" xMin="170" yMin="621" xMax="502" yMax="859">
      <contour>
        <pt x="170" y="673" on="1"/>
        <pt x="197" y="688" on="0"/>
        <pt x="264" y="733" on="0"/>
        <pt x="333" y="783" on="0"/>
        <pt x="398" y="835" on="0"/>
        <pt x="424" y="859" on="1"/>
        <pt x="502" y="766" on="1"/>
        <pt x="472" y="745" on="0"/>
        <pt x="391" y="702" on="0"/>
        <pt x="307" y="663" on="0"/>
        <pt x="225" y="631" on="0"/>
        <pt x="193" y="621" on="1"/>
        <pt x="170" y="673" on="1"/>
      </contour>
    </TTGlyph>
    <TTGlyph name="acute.cap" xMin="170" yMin="621" xMax="502" yMax="859">
      <contour>
        <pt x="170" y="673" on="1"/>
        <pt x="197" y="688" on="0"/>
        <pt x="264" y="733" on="0"/>
        <pt x="333" y="783" on="0"/>
        <pt x="398" y="835" on="0"/>
        <pt x="424" y="859" on="1"/>
        <pt x="502" y="766" on="1"/>
        <pt x="472" y="745" on="0"/>
        <pt x="391" y="702" on="0"/>
        <pt x="307" y="663" on="0"/>
        <pt x="225" y="631" on="0"/>
        <pt x="193" y="621" on="1"/>
        <pt x="170" y="673" on="1"/>
      </contour>
    </TTGlyph>
    <TTGlyph name="adieresis" xMin="51" yMin="-13" xMax="635" yMax="802">
      <component glyphName="a" x="0" y="0" flags="0x204"/>
      <component glyphName="dieresis" x="92" y="11" flags="0x4"/>
    </TTGlyph>
    <TTGlyph name="ae" xMin="30" yMin="-7" xMax="637" yMax="564">
      <contour>
        <pt x="587" y="67" on="1"/>
        <pt x="526" y="28" on="0"/>
        <pt x="429" y="-7" on="0"/>
        <pt x="392" y="-7" on="1"/>
        <pt x="345" y="-7" on="0"/>
        <pt x="287" y="41" on="0"/>
        <pt x="274" y="83" on="1"/>
        <pt x="239" y="43" on="0"/>
        <pt x="163" y="-7" on="0"/>
        <pt x="121" y="-7" on="1"/>
        <pt x="77" y="-7" on="0"/>
        <pt x="30" y="64" on="0"/>
        <pt x="30" y="140" on="1"/>
        <pt x="30" y="217" on="0"/>
        <pt x="70" y="368" on="0"/>
        <pt x="142" y="487" on="0"/>
        <pt x="239" y="560" on="0"/>
        <pt x="296" y="560" on="1"/>
        <pt x="327" y="560" on="0"/>
        <pt x="389" y="544" on="0"/>
        <pt x="418" y="527" on="1"/>
        <pt x="467" y="564" on="0"/>
        <pt x="524" y="564" on="1"/>
        <pt x="578" y="564" on="0"/>
        <pt x="637" y="498" on="0"/>
        <pt x="637" y="445" on="1"/>
        <pt x="637" y="405" on="0"/>
        <pt x="607" y="330" on="0"/>
        <pt x="544" y="267" on="0"/>
        <pt x="446" y="221" on="0"/>
        <pt x="378" y="211" on="1"/>
        <pt x="377" y="203" on="0"/>
        <pt x="377" y="190" on="0"/>
        <pt x="377" y="183" on="1"/>
        <pt x="377" y="138" on="0"/>
        <pt x="408" y="93" on="0"/>
        <pt x="446" y="93" on="1"/>
        <pt x="490" y="93" on="0"/>
        <pt x="576" y="126" on="1"/>
      </contour>
      <contour>
        <pt x="493" y="467" on="1"/>
        <pt x="475" y="467" on="0"/>
        <pt x="442" y="435" on="0"/>
        <pt x="414" y="383" on="0"/>
        <pt x="392" y="313" on="0"/>
        <pt x="386" y="276" on="1"/>
        <pt x="425" y="285" on="0"/>
        <pt x="478" y="320" on="0"/>
        <pt x="511" y="363" on="0"/>
        <pt x="526" y="407" on="0"/>
        <pt x="526" y="424" on="1"/>
        <pt x="526" y="467" on="0"/>
      </contour>
      <contour>
        <pt x="188" y="100" on="1"/>
        <pt x="207" y="100" on="0"/>
        <pt x="244" y="132" on="0"/>
        <pt x="264" y="158" on="1"/>
        <pt x="264" y="241" on="0"/>
        <pt x="306" y="387" on="0"/>
        <pt x="341" y="443" on="1"/>
        <pt x="321" y="457" on="0"/>
        <pt x="290" y="466" on="0"/>
        <pt x="277" y="466" on="1"/>
        <pt x="251" y="466" on="0"/>
        <pt x="206" y="413" on="0"/>
        <pt x="172" y="331" on="0"/>
        <pt x="153" y="228" on="0"/>
        <pt x="153" y="179" on="1"/>
        <pt x="153" y="100" on="0"/>
      </contour>
    </TTGlyph>
    <TTGlyph name="aeacute" xMin="30" yMin="-7" xMax="637" yMax="867">
      <component glyphName="acute" x="89" y="8" flags="0x204"/>
      <component glyphName="ae" x="0" y="0" flags="0x4"/>
    </TTGlyph>
    <TTGlyph name="agrave" xMin="51" yMin="-13" xMax="580" yMax="875">
      <component glyphName="a" x="0" y="0" flags="0x204"/>
      <component glyphName="grave" x="108" y="11" flags="0x4"/>
    </TTGlyph>
    <TTGlyph name="amacron" xMin="51" yMin="-13" xMax="627" yMax="777">
      <component glyphName="a" x="0" y="0" flags="0x204"/>
      <component glyphName="macron" x="105" y="11" flags="0x4"/>
    </TTGlyph>
    <TTGlyph name="ampersand" xMin="23" yMin="-22" xMax="604" yMax="710">
      <contour>
        <pt x="491" y="-22" on="1"/>
        <pt x="462" y="10" on="0"/>
        <pt x="412" y="73" on="0"/>
        <pt x="389" y="105" on="1"/>
        <pt x="268" y="-10" on="0"/>
        <pt x="160" y="-10" on="1"/>
        <pt x="92" y="-10" on="0"/>
        <pt x="23" y="67" on="0"/>
        <pt x="23" y="132" on="1"/>
        <pt x="23" y="208" on="0"/>
        <pt x="126" y="377" on="0"/>
        <pt x="237" y="467" on="1"/>
        <pt x="236" y="475" on="0"/>
        <pt x="236" y="491" on="0"/>
        <pt x="236" y="499" on="1"/>
        <pt x="236" y="547" on="0"/>
        <pt x="263" y="624" on="0"/>
        <pt x="305" y="680" on="0"/>
        <pt x="358" y="710" on="0"/>
        <pt x="384" y="710" on="1"/>
        <pt x="420" y="710" on="0"/>
        <pt x="466" y="672" on="0"/>
        <pt x="466" y="639" on="1"/>
        <pt x="466" y="599" on="0"/>
        <pt x="409" y="498" on="0"/>
        <pt x="356" y="448" on="1"/>
        <pt x="372" y="368" on="0"/>
        <pt x="421" y="279" on="1"/>
        <pt x="441" y="310" on="0"/>
        <pt x="483" y="382" on="0"/>
        <pt x="505" y="425" on="1"/>
        <pt x="604" y="390" on="1"/>
        <pt x="537" y="276" on="0"/>
        <pt x="473" y="197" on="1"/>
        <pt x="498" y="162" on="0"/>
        <pt x="556" y="89" on="0"/>
        <pt x="591" y="51" on="1"/>
      </contour>
      <contour>
        <pt x="197" y="97" on="1"/>
        <pt x="225" y="97" on="0"/>
        <pt x="298" y="135" on="0"/>
        <pt x="340" y="179" on="1"/>
        <pt x="284" y="274" on="0"/>
        <pt x="257" y="363" on="1"/>
        <pt x="200" y="307" on="0"/>
        <pt x="139" y="205" on="0"/>
        <pt x="139" y="161" on="1"/>
        <pt x="139" y="129" on="0"/>
        <pt x="170" y="97" on="0"/>
      </contour>
    </TTGlyph>
    <TTGlyph name="aogonek" xMin="51" yMin="-234" xMax="580" yMax="565">
      <contour>
        <pt x="523" y="-188" on="1"/>
        <pt x="472" y="-212" on="0"/>
        <pt x="390" y="-234" on="0"/>
        <pt x="358" y="-234" on="1"/>
        <pt x="305" y="-234" on="0"/>
        <pt x="251" y="-187" on="0"/>
        <pt x="251" y="-153" on="1"/>
        <pt x="251" y="-115" on="0"/>
        <pt x="316" y="-33" on="0"/>
        <pt x="395" y="12" on="1"/>
        <pt x="366" y="28" on="0"/>
        <pt x="366" y="83" on="1"/>
        <pt x="366" y="87" on="0"/>
        <pt x="367" y="95" on="0"/>
        <pt x="367" y="100" on="1"/>
        <pt x="343" y="76" on="0"/>
        <pt x="291" y="35" on="0"/>
        <pt x="240" y="5" on="0"/>
        <pt x="189" y="-13" on="0"/>
        <pt x="167" y="-13" on="1"/>
        <pt x="117" y="-13" on="0"/>
        <pt x="51" y="71" on="0"/>
        <pt x="51" y="159" on="1"/>
        <pt x="51" y="236" on="0"/>
        <pt x="99" y="382" on="0"/>
        <pt x="189" y="496" on="0"/>
        <pt x="316" y="565" on="0"/>
        <pt x="396" y="565" on="1"/>
        <pt x="434" y="565" on="0"/>
        <pt x="518" y="553" on="0"/>
        <pt x="562" y="540" on="1"/>
        <pt x="486" y="149" on="1"/>
        <pt x="481" y="126" on="0"/>
        <pt x="481" y="114" on="1"/>
        <pt x="481" y="92" on="0"/>
        <pt x="504" y="92" on="1"/>
        <pt x="521" y="92" on="0"/>
        <pt x="569" y="106" on="1"/>
        <pt x="580" y="46" on="1"/>
        <pt x="518" y="21" on="0"/>
        <pt x="435" y="-24" on="0"/>
        <pt x="383" y="-65" on="0"/>
        <pt x="361" y="-100" on="0"/>
        <pt x="361" y="-116" on="1"/>
        <pt x="361" y="-132" on="0"/>
        <pt x="385" y="-151" on="0"/>
        <pt x="412" y="-151" on="1"/>
        <pt x="430" y="-151" on="0"/>
        <pt x="480" y="-141" on="0"/>
        <pt x="513" y="-130" on="1"/>
      </contour>
      <contour>
        <pt x="232" y="100" on="1"/>
        <pt x="261" y="100" on="0"/>
        <pt x="339" y="145" on="0"/>
        <pt x="375" y="179" on="1"/>
        <pt x="379" y="199" on="0"/>
        <pt x="391" y="263" on="0"/>
        <pt x="406" y="338" on="0"/>
        <pt x="421" y="414" on="0"/>
        <pt x="427" y="446" on="1"/>
        <pt x="399" y="454" on="0"/>
        <pt x="350" y="464" on="0"/>
        <pt x="333" y="464" on="1"/>
        <pt x="300" y="464" on="0"/>
        <pt x="242" y="415" on="0"/>
        <pt x="199" y="336" on="0"/>
        <pt x="173" y="237" on="0"/>
        <pt x="173" y="188" on="1"/>
        <pt x="173" y="140" on="0"/>
        <pt x="207" y="100" on="0"/>
      </contour>
    </TTGlyph>
    <TTGlyph name="approxequal" xMin="35" yMin="104" xMax="604" yMax="561">
      <contour>
        <pt x="423" y="350" on="1"/>
        <pt x="390" y="350" on="0"/>
        <pt x="342" y="383" on="0"/>
        <pt x="302" y="423" on="0"/>
        <pt x="268" y="456" on="0"/>
        <pt x="249" y="456" on="1"/>
        <pt x="228" y="456" on="0"/>
        <pt x="179" y="396" on="0"/>
        <pt x="148" y="348" on="1"/>
        <pt x="83" y="383" on="1"/>
        <pt x="132" y="472" on="0"/>
        <pt x="221" y="561" on="0"/>
        <pt x="275" y="561" on="1"/>
        <pt x="308" y="561" on="0"/>
        <pt x="355" y="528" on="0"/>
        <pt x="393" y="487" on="0"/>
        <pt x="425" y="454" on="0"/>
        <pt x="443" y="454" on="1"/>
        <pt x="463" y="454" on="0"/>
        <pt x="508" y="510" on="0"/>
        <pt x="537" y="555" on="1"/>
        <pt x="604" y="520" on="1"/>
        <pt x="580" y="476" on="0"/>
        <pt x="537" y="412" on="0"/>
        <pt x="494" y="370" on="0"/>
        <pt x="449" y="350" on="0"/>
      </contour>
      <contour>
        <pt x="376" y="105" on="1"/>
        <pt x="343" y="105" on="0"/>
        <pt x="294" y="138" on="0"/>
        <pt x="255" y="179" on="0"/>
        <pt x="221" y="212" on="0"/>
        <pt x="203" y="212" on="1"/>
        <pt x="181" y="212" on="0"/>
        <pt x="133" y="152" on="0"/>
        <pt x="102" y="104" on="1"/>
        <pt x="35" y="139" on="1"/>
        <pt x="85" y="227" on="0"/>
        <pt x="175" y="315" on="0"/>
        <pt x="229" y="315" on="1"/>
        <pt x="261" y="315" on="0"/>
        <pt x="308" y="282" on="0"/>
        <pt x="346" y="242" on="0"/>
        <pt x="378" y="209" on="0"/>
        <pt x="396" y="209" on="1"/>
        <pt x="416" y="209" on="0"/>
        <pt x="461" y="266" on="0"/>
        <pt x="490" y="311" on="1"/>
        <pt x="556" y="275" on="1"/>
        <pt x="532" y="231" on="0"/>
        <pt x="489" y="167" on="0"/>
        <pt x="446" y="125" on="0"/>
        <pt x="402" y="105" on="0"/>
      </contour>
    </TTGlyph>
    <TTGlyph name="aring" xMin="51" yMin="-13" xMax="580" yMax="861">
      <component glyphName="a" x="0" y="0" flags="0x204"/>
      <component glyphName="ring" x="67" y="11" flags="0x4"/>
    </TTGlyph>
    <TTGlyph name="aringacute" xMin="51" yMin="-13" xMax="652" yMax="1139">
      <contour>
        <pt x="580" y="46" on="1"/>
        <pt x="529" y="15" on="0"/>
        <pt x="455" y="-13" on="0"/>
        <pt x="430" y="-13" on="1"/>
        <pt x="395" y="-13" on="0"/>
        <pt x="366" y="34" on="0"/>
        <pt x="366" y="76" on="1"/>
        <pt x="366" y="82" on="0"/>
        <pt x="366" y="94" on="0"/>
        <pt x="367" y="100" on="1"/>
        <pt x="343" y="76" on="0"/>
        <pt x="291" y="35" on="0"/>
        <pt x="240" y="5" on="0"/>
        <pt x="189" y="-13" on="0"/>
        <pt x="167" y="-13" on="1"/>
        <pt x="117" y="-13" on="0"/>
        <pt x="51" y="71" on="0"/>
        <pt x="51" y="159" on="1"/>
        <pt x="51" y="236" on="0"/>
        <pt x="99" y="382" on="0"/>
        <pt x="189" y="496" on="0"/>
        <pt x="316" y="565" on="0"/>
        <pt x="396" y="565" on="1"/>
        <pt x="434" y="565" on="0"/>
        <pt x="518" y="553" on="0"/>
        <pt x="562" y="540" on="1"/>
        <pt x="486" y="149" on="1"/>
        <pt x="481" y="126" on="0"/>
        <pt x="481" y="114" on="1"/>
        <pt x="481" y="92" on="0"/>
        <pt x="504" y="92" on="1"/>
        <pt x="521" y="92" on="0"/>
        <pt x="569" y="106" on="1"/>
      </contour>
      <contour>
        <pt x="232" y="100" on="1"/>
        <pt x="261" y="100" on="0"/>
        <pt x="339" y="145" on="0"/>
        <pt x="375" y="179" on="1"/>
        <pt x="379" y="199" on="0"/>
        <pt x="391" y="263" on="0"/>
        <pt x="406" y="338" on="0"/>
        <pt x="421" y="414" on="0"/>
        <pt x="427" y="446" on="1"/>
        <pt x="399" y="454" on="0"/>
        <pt x="350" y="464" on="0"/>
        <pt x="333" y="464" on="1"/>
        <pt x="300" y="464" on="0"/>
        <pt x="242" y="415" on="0"/>
        <pt x="199" y="336" on="0"/>
        <pt x="173" y="237" on="0"/>
        <pt x="173" y="188" on="1"/>
        <pt x="173" y="140" on="0"/>
        <pt x="207" y="100" on="0"/>
      </contour>
      <contour>
        <pt x="320" y="953" on="1"/>
        <pt x="347" y="968" on="0"/>
        <pt x="414" y="1013" on="0"/>
        <pt x="483" y="1063" on="0"/>
        <pt x="548" y="1115" on="0"/>
        <pt x="574" y="1139" on="1"/>
        <pt x="652" y="1046" on="1"/>
        <pt x="622" y="1025" on="0"/>
        <pt x="541" y="982" on="0"/>
        <pt x="457" y="943" on="0"/>
        <pt x="375" y="911" on="0"/>
        <pt x="343" y="901" on="1"/>
        <pt x="320" y="953" on="1"/>
      </contour>
      <contour>
        <pt x="439" y="861" on="1"/>
        <pt x="470" y="861" on="0"/>
        <pt x="521" y="843" on="0"/>
        <pt x="557" y="813" on="0"/>
        <pt x="577" y="773" on="0"/>
        <pt x="577" y="750" on="1"/>
        <pt x="577" y="724" on="0"/>
        <pt x="553" y="678" on="0"/>
        <pt x="511" y="644" on="0"/>
        <pt x="453" y="623" on="0"/>
        <pt x="418" y="623" on="1"/>
        <pt x="386" y="623" on="0"/>
        <pt x="335" y="640" on="0"/>
        <pt x="299" y="670" on="0"/>
        <pt x="280" y="711" on="0"/>
        <pt x="280" y="734" on="1"/>
        <pt x="280" y="760" on="0"/>
        <pt x="304" y="806" on="0"/>
        <pt x="346" y="841" on="0"/>
        <pt x="404" y="861" on="0"/>
      </contour>
    </TTGlyph>
    <TTGlyph name="asciicircum" xMin="56" yMin="163" xMax="572" yMax="559">
      <contour>
        <pt x="331" y="400" on="1"/>
        <pt x="131" y="163" on="1"/>
        <pt x="56" y="227" on="1"/>
        <pt x="339" y="556" on="1"/>
        <pt x="362" y="559" on="1"/>
        <pt x="572" y="225" on="1"/>
        <pt x="476" y="164" on="1"/>
      </contour>
    </TTGlyph>
    <TTGlyph name="asciitilde" xMin="41" yMin="212" xMax="613" yMax="465">
      <contour>
        <pt x="422" y="212" on="1"/>
        <pt x="387" y="212" on="0"/>
        <pt x="329" y="256" on="0"/>
        <pt x="278" y="310" on="0"/>
        <pt x="235" y="354" on="0"/>
        <pt x="217" y="354" on="1"/>
        <pt x="194" y="354" on="0"/>
        <pt x="142" y="278" on="0"/>
        <pt x="115" y="217" on="1"/>
        <pt x="41" y="249" on="1"/>
        <pt x="85" y="350" on="0"/>
        <pt x="182" y="465" on="0"/>
        <pt x="237" y="465" on="1"/>
        <pt x="271" y="465" on="0"/>
        <pt x="328" y="421" on="0"/>
        <pt x="377" y="367" on="0"/>
        <pt x="418" y="323" on="0"/>
        <pt x="436" y="323" on="1"/>
        <pt x="459" y="323" on="0"/>
        <pt x="511" y="399" on="0"/>
        <pt x="539" y="460" on="1"/>
        <pt x="613" y="427" on="1"/>
        <pt x="568" y="323" on="0"/>
        <pt x="476" y="212" on="0"/>
      </contour>
    </TTGlyph>
    <TTGlyph name="asterisk" xMin="114" yMin="256" xMax="613" yMax="773">
      <contour>
        <pt x="323" y="406" on="1"/>
        <pt x="174" y="323" on="1"/>
        <pt x="125" y="385" on="1"/>
        <pt x="241" y="507" on="1"/>
        <pt x="114" y="625" on="1"/>
        <pt x="159" y="691" on="1"/>
        <pt x="311" y="616" on="1"/>
        <pt x="383" y="773" on="1"/>
        <pt x="461" y="752" on="1"/>
        <pt x="440" y="581" on="1"/>
        <pt x="609" y="562" on="1"/>
        <pt x="613" y="485" on="1"/>
        <pt x="443" y="451" on="1"/>
        <pt x="477" y="285" on="1"/>
        <pt x="404" y="256" on="1"/>
      </contour>
    </TTGlyph>
    <TTGlyph name="asterisk.alt" xMin="93" yMin="250" xMax="616" yMax="778">
      <contour>
        <pt x="349" y="609" on="1"/>
        <pt x="365" y="778" on="1"/>
        <pt x="472" y="750" on="1"/>
        <pt x="407" y="596" on="1"/>
      </contour>
      <contour>
        <pt x="270" y="557" on="1"/>
        <pt x="132" y="655" on="1"/>
        <pt x="210" y="733" on="1"/>
        <pt x="312" y="602" on="1"/>
      </contour>
      <contour>
        <pt x="433" y="568" on="1"/>
        <pt x="587" y="637" on="1"/>
        <pt x="616" y="531" on="1"/>
        <pt x="451" y="507" on="1"/>
      </contour>
      <contour>
        <pt x="276" y="461" on="1"/>
        <pt x="122" y="391" on="1"/>
        <pt x="93" y="498" on="1"/>
        <pt x="258" y="521" on="1"/>
      </contour>
      <contour>
        <pt x="441" y="472" on="1"/>
        <pt x="578" y="374" on="1"/>
        <pt x="501" y="296" on="1"/>
        <pt x="398" y="427" on="1"/>
      </contour>
      <contour>
        <pt x="360" y="419" on="1"/>
        <pt x="346" y="250" on="1"/>
        <pt x="238" y="279" on="1"/>
        <pt x="302" y="433" on="1"/>
      </contour>
    </TTGlyph>
    <TTGlyph name="at" xMin="48" yMin="-174" xMax="633" yMax="760">
      <contour>
        <pt x="468" y="-161" on="1"/>
        <pt x="433" y="-168" on="0"/>
        <pt x="369" y="-174" on="0"/>
        <pt x="340" y="-174" on="1"/>
        <pt x="262" y="-174" on="0"/>
        <pt x="152" y="-129" on="0"/>
        <pt x="81" y="-46" on="0"/>
        <pt x="48" y="73" on="0"/>
        <pt x="48" y="148" on="1"/>
        <pt x="48" y="225" on="0"/>
        <pt x="77" y="376" on="0"/>
        <pt x="130" y="512" on="0"/>
        <pt x="206" y="628" on="0"/>
        <pt x="298" y="712" on="0"/>
        <pt x="404" y="760" on="0"/>
        <pt x="462" y="760" on="1"/>
        <pt x="547" y="760" on="0"/>
        <pt x="633" y="667" on="0"/>
        <pt x="633" y="576" on="1"/>
        <pt x="633" y="529" on="0"/>
        <pt x="621" y="471" on="1"/>
        <pt x="580" y="264" on="1"/>
        <pt x="572" y="222" on="0"/>
        <pt x="555" y="123" on="0"/>
        <pt x="547" y="72" on="1"/>
        <pt x="446" y="73" on="1"/>
        <pt x="452" y="131" on="1"/>
        <pt x="422" y="101" on="0"/>
        <pt x="356" y="63" on="0"/>
        <pt x="327" y="63" on="1"/>
        <pt x="291" y="63" on="0"/>
        <pt x="246" y="130" on="0"/>
        <pt x="246" y="202" on="1"/>
        <pt x="246" y="261" on="0"/>
        <pt x="278" y="380" on="0"/>
        <pt x="338" y="475" on="0"/>
        <pt x="425" y="535" on="0"/>
        <pt x="481" y="535" on="1"/>
        <pt x="502" y="535" on="0"/>
        <pt x="525" y="532" on="1"/>
        <pt x="528" y="554" on="0"/>
        <pt x="528" y="573" on="1"/>
        <pt x="528" y="620" on="0"/>
        <pt x="487" y="669" on="0"/>
        <pt x="444" y="669" on="1"/>
        <pt x="389" y="669" on="0"/>
        <pt x="283" y="584" on="0"/>
        <pt x="199" y="442" on="0"/>
        <pt x="147" y="257" on="0"/>
        <pt x="147" y="157" on="1"/>
        <pt x="147" y="98" on="0"/>
        <pt x="171" y="9" on="0"/>
        <pt x="222" y="-51" on="0"/>
        <pt x="303" y="-81" on="0"/>
        <pt x="361" y="-81" on="1"/>
        <pt x="387" y="-81" on="0"/>
        <pt x="448" y="-75" on="0"/>
        <pt x="482" y="-68" on="1"/>
      </contour>
      <contour>
        <pt x="383" y="163" on="1"/>
        <pt x="397" y="163" on="0"/>
        <pt x="441" y="181" on="0"/>
        <pt x="461" y="198" on="1"/>
        <pt x="507" y="433" on="1"/>
        <pt x="490" y="439" on="0"/>
        <pt x="456" y="446" on="0"/>
        <pt x="445" y="446" on="1"/>
        <pt x="428" y="446" on="0"/>
        <pt x="393" y="404" on="0"/>
        <pt x="365" y="339" on="0"/>
        <pt x="348" y="263" on="0"/>
        <pt x="348" y="229" on="1"/>
        <pt x="348" y="194" on="0"/>
        <pt x="368" y="163" on="0"/>
      </contour>
    </TTGlyph>
    <TTGlyph name="atilde" xMin="51" yMin="-13" xMax="668" yMax="835">
      <component glyphName="a" x="0" y="0" flags="0x204"/>
      <component glyphName="tilde" x="105" y="11" flags="0x4"/>
    </TTGlyph>
    <TTGlyph name="b" xMin="54" yMin="-13" xMax="572" yMax="782">
      <contour>
        <pt x="229" y="-13" on="1"/>
        <pt x="187" y="-13" on="0"/>
        <pt x="93" y="5" on="0"/>
        <pt x="54" y="18" on="1"/>
        <pt x="201" y="773" on="1"/>
        <pt x="321" y="782" on="1"/>
        <pt x="260" y="466" on="1"/>
        <pt x="306" y="509" on="0"/>
        <pt x="405" y="568" on="0"/>
        <pt x="450" y="568" on="1"/>
        <pt x="504" y="568" on="0"/>
        <pt x="572" y="476" on="0"/>
        <pt x="572" y="382" on="1"/>
        <pt x="572" y="307" on="0"/>
        <pt x="524" y="165" on="0"/>
        <pt x="435" y="54" on="0"/>
        <pt x="308" y="-13" on="0"/>
      </contour>
      <contour>
        <pt x="290" y="89" on="1"/>
        <pt x="323" y="89" on="0"/>
        <pt x="382" y="135" on="0"/>
        <pt x="427" y="210" on="0"/>
        <pt x="453" y="304" on="0"/>
        <pt x="453" y="352" on="1"/>
        <pt x="453" y="408" on="0"/>
        <pt x="414" y="457" on="0"/>
        <pt x="387" y="457" on="1"/>
        <pt x="356" y="457" on="0"/>
        <pt x="278" y="409" on="0"/>
        <pt x="242" y="375" on="1"/>
        <pt x="190" y="106" on="1"/>
        <pt x="219" y="97" on="0"/>
        <pt x="272" y="89" on="0"/>
      </contour>
    </TTGlyph>
    <TTGlyph name="backslash" xMin="112" yMin="-215" xMax="512" yMax="808">
      <contour>
        <pt x="512" y="-182" on="1"/>
        <pt x="412" y="-215" on="1"/>
        <pt x="112" y="776" on="1"/>
        <pt x="212" y="808" on="1"/>
      </contour>
    </TTGlyph>
    <TTGlyph name="bar" xMin="158" yMin="-202" xMax="466" yMax="791">
      <contour>
        <pt x="466" y="791" on="1"/>
        <pt x="272" y="-202" on="1"/>
        <pt x="158" y="-202" on="1"/>
        <pt x="351" y="788" on="1"/>
      </contour>
    </TTGlyph>
    <TTGlyph name="braceleft" xMin="109" yMin="-234" xMax="619" yMax="810">
      <contour>
        <pt x="403" y="-234" on="1"/>
        <pt x="324" y="-199" on="0"/>
        <pt x="214" y="-141" on="0"/>
        <pt x="145" y="-89" on="0"/>
        <pt x="114" y="-38" on="0"/>
        <pt x="114" y="-10" on="1"/>
        <pt x="114" y="27" on="0"/>
        <pt x="155" y="81" on="0"/>
        <pt x="205" y="123" on="0"/>
        <pt x="246" y="160" on="0"/>
        <pt x="246" y="181" on="1"/>
        <pt x="246" y="236" on="0"/>
        <pt x="109" y="255" on="1"/>
        <pt x="127" y="340" on="1"/>
        <pt x="176" y="343" on="0"/>
        <pt x="240" y="354" on="0"/>
        <pt x="278" y="371" on="0"/>
        <pt x="293" y="391" on="0"/>
        <pt x="293" y="403" on="1"/>
        <pt x="293" y="419" on="0"/>
        <pt x="271" y="456" on="0"/>
        <pt x="244" y="499" on="0"/>
        <pt x="222" y="547" on="0"/>
        <pt x="222" y="573" on="1"/>
        <pt x="222" y="604" on="0"/>
        <pt x="259" y="666" on="0"/>
        <pt x="346" y="727" on="0"/>
        <pt x="491" y="784" on="0"/>
        <pt x="598" y="810" on="1"/>
        <pt x="619" y="709" on="1"/>
        <pt x="470" y="681" on="0"/>
        <pt x="336" y="622" on="0"/>
        <pt x="336" y="584" on="1"/>
        <pt x="336" y="568" on="0"/>
        <pt x="357" y="528" on="0"/>
        <pt x="383" y="486" on="0"/>
        <pt x="404" y="442" on="0"/>
        <pt x="404" y="421" on="1"/>
        <pt x="404" y="387" on="0"/>
        <pt x="340" y="318" on="0"/>
        <pt x="264" y="298" on="1"/>
        <pt x="319" y="279" on="0"/>
        <pt x="363" y="228" on="0"/>
        <pt x="363" y="199" on="1"/>
        <pt x="363" y="168" on="0"/>
        <pt x="324" y="121" on="0"/>
        <pt x="276" y="79" on="0"/>
        <pt x="237" y="37" on="0"/>
        <pt x="237" y="12" on="1"/>
        <pt x="237" y="-25" on="0"/>
        <pt x="341" y="-97" on="0"/>
        <pt x="453" y="-145" on="1"/>
        <pt x="403" y="-234" on="1"/>
      </contour>
    </TTGlyph>
    <TTGlyph name="braceleft.cap" xMin="120" yMin="-180" xMax="630" yMax="864">
      <component glyphName="braceleft" x="11" y="54" flags="0x204"/>
    </TTGlyph>
    <TTGlyph name="braceright" xMin="2" yMin="-234" xMax="513" yMax="810">
      <contour>
        <pt x="2" y="-133" on="1"/>
        <pt x="152" y="-106" on="0"/>
        <pt x="285" y="-46" on="0"/>
        <pt x="285" y="-8" on="1"/>
        <pt x="285" y="8" on="0"/>
        <pt x="264" y="48" on="0"/>
        <pt x="239" y="90" on="0"/>
        <pt x="218" y="134" on="0"/>
        <pt x="218" y="155" on="1"/>
        <pt x="218" y="188" on="0"/>
        <pt x="282" y="258" on="0"/>
        <pt x="358" y="278" on="1"/>
        <pt x="302" y="296" on="0"/>
        <pt x="259" y="347" on="0"/>
        <pt x="259" y="376" on="1"/>
        <pt x="259" y="407" on="0"/>
        <pt x="298" y="455" on="0"/>
        <pt x="346" y="497" on="0"/>
        <pt x="385" y="538" on="0"/>
        <pt x="385" y="564" on="1"/>
        <pt x="385" y="601" on="0"/>
        <pt x="281" y="673" on="0"/>
        <pt x="169" y="721" on="1"/>
        <pt x="219" y="810" on="1"/>
        <pt x="298" y="775" on="0"/>
        <pt x="407" y="717" on="0"/>
        <pt x="476" y="665" on="0"/>
        <pt x="507" y="614" on="0"/>
        <pt x="507" y="586" on="1"/>
        <pt x="507" y="548" on="0"/>
        <pt x="466" y="495" on="0"/>
        <pt x="416" y="452" on="0"/>
        <pt x="375" y="416" on="0"/>
        <pt x="375" y="395" on="1"/>
        <pt x="375" y="369" on="0"/>
        <pt x="442" y="331" on="0"/>
        <pt x="513" y="321" on="1"/>
        <pt x="494" y="235" on="1"/>
        <pt x="445" y="233" on="0"/>
        <pt x="381" y="222" on="0"/>
        <pt x="343" y="205" on="0"/>
        <pt x="328" y="185" on="0"/>
        <pt x="328" y="173" on="1"/>
        <pt x="328" y="157" on="0"/>
        <pt x="350" y="120" on="0"/>
        <pt x="377" y="77" on="0"/>
        <pt x="399" y="29" on="0"/>
        <pt x="399" y="3" on="1"/>
        <pt x="399" y="-28" on="0"/>
        <pt x="362" y="-90" on="0"/>
        <pt x="275" y="-151" on="0"/>
        <pt x="131" y="-209" on="0"/>
        <pt x="24" y="-234" on="1"/>
      </contour>
    </TTGlyph>
    <TTGlyph name="braceright.cap" xMin="13" yMin="-180" xMax="524" yMax="864">
      <component glyphName="braceright" x="11" y="54" flags="0x204"/>
    </TTGlyph>
    <TTGlyph name="bracketleft" xMin="68" yMin="-199" xMax="610" yMax="773">
      <contour>
        <pt x="258" y="773" on="1"/>
        <pt x="610" y="773" on="1"/>
        <pt x="591" y="677" on="1"/>
        <pt x="358" y="677" on="1"/>
        <pt x="207" y="-103" on="1"/>
        <pt x="440" y="-103" on="1"/>
        <pt x="421" y="-199" on="1"/>
        <pt x="68" y="-199" on="1"/>
      </contour>
    </TTGlyph>
    <TTGlyph name="bracketleft.cap" xMin="79" yMin="-145" xMax="621" yMax="827">
      <component glyphName="bracketleft" x="11" y="54" flags="0x204"/>
    </TTGlyph>
    <TTGlyph name="bracketright" xMin="10" yMin="-198" xMax="553" yMax="775">
      <contour>
        <pt x="363" y="-198" on="1"/>
        <pt x="10" y="-198" on="1"/>
        <pt x="30" y="-102" on="1"/>
        <pt x="262" y="-102" on="1"/>
        <pt x="413" y="678" on="1"/>
        <pt x="180" y="678" on="1"/>
        <pt x="199" y="775" on="1"/>
        <pt x="553" y="775" on="1"/>
      </contour>
    </TTGlyph>
    <TTGlyph name="bracketright.cap" xMin="21" yMin="-144" xMax="564" yMax="829">
      <component glyphName="bracketright" x="11" y="54" flags="0x204"/>
    </TTGlyph>
    <TTGlyph name="breve" xMin="118" yMin="626" xMax="554" yMax="837">
      <contour>
        <pt x="554" y="789" on="1"/>
        <pt x="494" y="711" on="0"/>
        <pt x="368" y="626" on="0"/>
        <pt x="305" y="626" on="1"/>
        <pt x="245" y="626" on="0"/>
        <pt x="150" y="708" on="0"/>
        <pt x="118" y="790" on="1"/>
        <pt x="208" y="837" on="1"/>
        <pt x="234" y="775" on="0"/>
        <pt x="291" y="721" on="0"/>
        <pt x="330" y="721" on="1"/>
        <pt x="368" y="721" on="0"/>
        <pt x="441" y="778" on="0"/>
        <pt x="485" y="831" on="1"/>
      </contour>
    </TTGlyph>
    <TTGlyph name="breve.cap" xMin="118" yMin="626" xMax="554" yMax="837">
      <contour>
        <pt x="554" y="789" on="1"/>
        <pt x="494" y="711" on="0"/>
        <pt x="368" y="626" on="0"/>
        <pt x="305" y="626" on="1"/>
        <pt x="245" y="626" on="0"/>
        <pt x="150" y="708" on="0"/>
        <pt x="118" y="790" on="1"/>
        <pt x="208" y="837" on="1"/>
        <pt x="234" y="775" on="0"/>
        <pt x="291" y="721" on="0"/>
        <pt x="330" y="721" on="1"/>
        <pt x="368" y="721" on="0"/>
        <pt x="441" y="778" on="0"/>
        <pt x="485" y="831" on="1"/>
      </contour>
    </TTGlyph>
    <TTGlyph name="bullet" xMin="170" yMin="174" xMax="469" yMax="487">
      <contour>
        <pt x="469" y="350" on="1"/>
        <pt x="469" y="310" on="0"/>
        <pt x="442" y="245" on="0"/>
        <pt x="396" y="199" on="0"/>
        <pt x="337" y="174" on="0"/>
        <pt x="306" y="174" on="1"/>
        <pt x="277" y="174" on="0"/>
        <pt x="228" y="195" on="0"/>
        <pt x="191" y="232" on="0"/>
        <pt x="170" y="283" on="0"/>
        <pt x="170" y="313" on="1"/>
        <pt x="170" y="352" on="0"/>
        <pt x="197" y="417" on="0"/>
        <pt x="242" y="462" on="0"/>
        <pt x="300" y="487" on="0"/>
        <pt x="331" y="487" on="1"/>
        <pt x="362" y="487" on="0"/>
        <pt x="413" y="467" on="0"/>
        <pt x="449" y="430" on="0"/>
        <pt x="469" y="380" on="0"/>
      </contour>
    </TTGlyph>
    <TTGlyph name="bullet.alt" xMin="162" yMin="197" xMax="484" yMax="466">
      <contour>
        <pt x="162" y="197" on="1"/>
        <pt x="216" y="466" on="1"/>
        <pt x="484" y="466" on="1"/>
        <pt x="430" y="197" on="1"/>
      </contour>
    </TTGlyph>
    <TTGlyph name="c" xMin="72" yMin="-12" xMax="563" yMax="567">
      <contour>
        <pt x="452" y="362" on="1"/>
        <pt x="452" y="418" on="0"/>
        <pt x="418" y="464" on="0"/>
        <pt x="378" y="464" on="1"/>
        <pt x="339" y="464" on="0"/>
        <pt x="272" y="424" on="0"/>
        <pt x="221" y="358" on="0"/>
        <pt x="192" y="270" on="0"/>
        <pt x="192" y="222" on="1"/>
        <pt x="192" y="156" on="0"/>
        <pt x="255" y="91" on="0"/>
        <pt x="333" y="91" on="1"/>
        <pt x="403" y="91" on="0"/>
        <pt x="512" y="116" on="1"/>
        <pt x="523" y="53" on="1"/>
        <pt x="449" y="19" on="0"/>
        <pt x="328" y="-12" on="0"/>
        <pt x="278" y="-12" on="1"/>
        <pt x="226" y="-12" on="0"/>
        <pt x="148" y="20" on="0"/>
        <pt x="97" y="76" on="0"/>
        <pt x="72" y="153" on="0"/>
        <pt x="72" y="198" on="1"/>
        <pt x="72" y="272" on="0"/>
        <pt x="126" y="406" on="0"/>
        <pt x="219" y="507" on="0"/>
        <pt x="342" y="567" on="0"/>
        <pt x="411" y="567" on="1"/>
        <pt x="488" y="567" on="0"/>
        <pt x="563" y="488" on="0"/>
        <pt x="563" y="396" on="1"/>
        <pt x="563" y="388" on="0"/>
        <pt x="563" y="372" on="0"/>
        <pt x="562" y="364" on="1"/>
      </contour>
    </TTGlyph>
    <TTGlyph name="cacute" xMin="72" yMin="-12" xMax="580" yMax="873">
      <component glyphName="acute" x="78" y="14" flags="0x204"/>
      <component glyphName="c" x="0" y="0" flags="0x4"/>
    </TTGlyph>
    <TTGlyph name="caron" xMin="140" yMin="615" xMax="551" yMax="843">
      <contour>
        <pt x="306" y="615" on="1"/>
        <pt x="140" y="781" on="1"/>
        <pt x="222" y="843" on="1"/>
        <pt x="331" y="727" on="1"/>
        <pt x="497" y="839" on="1"/>
        <pt x="551" y="778" on="1"/>
        <pt x="313" y="615" on="1"/>
      </contour>
    </TTGlyph>
    <TTGlyph name="caron.alt" xMin="271" yMin="607" xMax="452" yMax="893">
      <contour>
        <pt x="452" y="893" on="1"/>
        <pt x="442" y="813" on="0"/>
        <pt x="380" y="676" on="0"/>
        <pt x="322" y="607" on="1"/>
        <pt x="271" y="627" on="1"/>
        <pt x="286" y="662" on="0"/>
        <pt x="305" y="725" on="0"/>
        <pt x="316" y="787" on="0"/>
        <pt x="319" y="851" on="0"/>
        <pt x="319" y="888" on="1"/>
      </contour>
    </TTGlyph>
    <TTGlyph name="caron.cap" xMin="140" yMin="615" xMax="551" yMax="843">
      <contour>
        <pt x="306" y="615" on="1"/>
        <pt x="140" y="781" on="1"/>
        <pt x="222" y="843" on="1"/>
        <pt x="331" y="727" on="1"/>
        <pt x="497" y="839" on="1"/>
        <pt x="551" y="778" on="1"/>
        <pt x="313" y="615" on="1"/>
      </contour>
    </TTGlyph>
    <TTGlyph name="ccaron" xMin="72" yMin="-12" xMax="631" yMax="857">
      <component glyphName="caron" x="80" y="14" flags="0x204"/>
      <component glyphName="c" x="0" y="0" flags="0x4"/>
    </TTGlyph>
    <TTGlyph name="ccedilla" xMin="72" yMin="-208" xMax="563" yMax="567">
      <contour>
        <pt x="302" y="-208" on="1"/>
        <pt x="303" y="-199" on="0"/>
        <pt x="303" y="-181" on="0"/>
        <pt x="303" y="-173" on="1"/>
        <pt x="303" y="-119" on="0"/>
        <pt x="279" y="-74" on="0"/>
        <pt x="259" y="-74" on="1"/>
        <pt x="235" y="-74" on="0"/>
        <pt x="187" y="-130" on="0"/>
        <pt x="162" y="-181" on="1"/>
        <pt x="101" y="-161" on="1"/>
        <pt x="151" y="-39" on="0"/>
        <pt x="214" y="-5" on="1"/>
        <pt x="142" y="13" on="0"/>
        <pt x="72" y="123" on="0"/>
        <pt x="72" y="198" on="1"/>
        <pt x="72" y="272" on="0"/>
        <pt x="126" y="406" on="0"/>
        <pt x="219" y="507" on="0"/>
        <pt x="342" y="567" on="0"/>
        <pt x="411" y="567" on="1"/>
        <pt x="488" y="567" on="0"/>
        <pt x="563" y="488" on="0"/>
        <pt x="563" y="396" on="1"/>
        <pt x="563" y="388" on="0"/>
        <pt x="563" y="372" on="0"/>
        <pt x="562" y="364" on="1"/>
        <pt x="452" y="362" on="1"/>
        <pt x="452" y="418" on="0"/>
        <pt x="418" y="464" on="0"/>
        <pt x="378" y="464" on="1"/>
        <pt x="339" y="464" on="0"/>
        <pt x="272" y="424" on="0"/>
        <pt x="221" y="358" on="0"/>
        <pt x="192" y="270" on="0"/>
        <pt x="192" y="222" on="1"/>
        <pt x="192" y="156" on="0"/>
        <pt x="255" y="91" on="0"/>
        <pt x="333" y="91" on="1"/>
        <pt x="403" y="91" on="0"/>
        <pt x="512" y="116" on="1"/>
        <pt x="523" y="53" on="1"/>
        <pt x="470" y="28" on="0"/>
        <pt x="378" y="-1" on="0"/>
        <pt x="337" y="-7" on="1"/>
        <pt x="369" y="-27" on="0"/>
        <pt x="407" y="-113" on="0"/>
        <pt x="407" y="-180" on="1"/>
        <pt x="407" y="-186" on="0"/>
        <pt x="407" y="-199" on="0"/>
        <pt x="406" y="-206" on="1"/>
      </contour>
    </TTGlyph>
    <TTGlyph name="cdotaccent" xMin="72" yMin="-12" xMax="563" yMax="803">
      <component glyphName="c" x="0" y="0" flags="0x204"/>
      <component glyphName="dotaccent" x="92" y="14" flags="0x4"/>
    </TTGlyph>
    <TTGlyph name="cedilla" xMin="124" yMin="-196" xMax="430" yMax="23">
      <contour>
        <pt x="124" y="-149" on="1"/>
        <pt x="161" y="-60" on="0"/>
        <pt x="245" y="23" on="0"/>
        <pt x="296" y="23" on="1"/>
        <pt x="324" y="23" on="0"/>
        <pt x="373" y="0" on="0"/>
        <pt x="409" y="-47" on="0"/>
        <pt x="430" y="-118" on="0"/>
        <pt x="430" y="-167" on="1"/>
        <pt x="430" y="-173" on="0"/>
        <pt x="430" y="-187" on="0"/>
        <pt x="429" y="-194" on="1"/>
        <pt x="325" y="-196" on="1"/>
        <pt x="326" y="-187" on="0"/>
        <pt x="326" y="-169" on="0"/>
        <pt x="326" y="-161" on="1"/>
        <pt x="326" y="-107" on="0"/>
        <pt x="302" y="-62" on="0"/>
        <pt x="282" y="-62" on="1"/>
        <pt x="258" y="-62" on="0"/>
        <pt x="210" y="-118" on="0"/>
        <pt x="185" y="-169" on="1"/>
      </contour>
    </TTGlyph>
    <TTGlyph name="cedilla.cap" xMin="124" yMin="-196" xMax="430" yMax="23">
      <contour>
        <pt x="124" y="-149" on="1"/>
        <pt x="161" y="-60" on="0"/>
        <pt x="245" y="23" on="0"/>
        <pt x="296" y="23" on="1"/>
        <pt x="324" y="23" on="0"/>
        <pt x="373" y="0" on="0"/>
        <pt x="409" y="-47" on="0"/>
        <pt x="430" y="-118" on="0"/>
        <pt x="430" y="-167" on="1"/>
        <pt x="430" y="-173" on="0"/>
        <pt x="430" y="-187" on="0"/>
        <pt x="429" y="-194" on="1"/>
        <pt x="325" y="-196" on="1"/>
        <pt x="326" y="-187" on="0"/>
        <pt x="326" y="-169" on="0"/>
        <pt x="326" y="-161" on="1"/>
        <pt x="326" y="-107" on="0"/>
        <pt x="302" y="-62" on="0"/>
        <pt x="282" y="-62" on="1"/>
        <pt x="258" y="-62" on="0"/>
        <pt x="210" y="-118" on="0"/>
        <pt x="185" y="-169" on="1"/>
      </contour>
    </TTGlyph>
    <TTGlyph name="cent" xMin="82" yMin="-93" xMax="569" yMax="688">
      <contour>
        <pt x="196" y="290" on="1"/>
        <pt x="196" y="253" on="0"/>
        <pt x="237" y="194" on="0"/>
        <pt x="287" y="173" on="1"/>
        <pt x="343" y="421" on="1"/>
        <pt x="300" y="414" on="0"/>
        <pt x="243" y="388" on="0"/>
        <pt x="210" y="354" on="0"/>
        <pt x="196" y="312" on="0"/>
      </contour>
      <contour>
        <pt x="480" y="29" on="1"/>
        <pt x="444" y="31" on="0"/>
        <pt x="378" y="37" on="0"/>
        <pt x="349" y="42" on="1"/>
        <pt x="320" y="-93" on="1"/>
        <pt x="213" y="-93" on="1"/>
        <pt x="251" y="68" on="1"/>
        <pt x="166" y="99" on="0"/>
        <pt x="82" y="202" on="0"/>
        <pt x="82" y="269" on="1"/>
        <pt x="82" y="309" on="0"/>
        <pt x="111" y="391" on="0"/>
        <pt x="176" y="463" on="0"/>
        <pt x="280" y="519" on="0"/>
        <pt x="356" y="533" on="1"/>
        <pt x="387" y="688" on="1"/>
        <pt x="494" y="688" on="1"/>
        <pt x="462" y="544" on="1"/>
        <pt x="488" y="544" on="0"/>
        <pt x="541" y="543" on="0"/>
        <pt x="569" y="541" on="1"/>
        <pt x="547" y="425" on="1"/>
        <pt x="514" y="427" on="0"/>
        <pt x="456" y="429" on="0"/>
        <pt x="430" y="429" on="1"/>
        <pt x="369" y="150" on="1"/>
        <pt x="423" y="139" on="0"/>
        <pt x="499" y="135" on="1"/>
      </contour>
    </TTGlyph>
    <TTGlyph name="check.1" xMin="74" yMin="-18" xMax="658" yMax="754">
      <contour>
        <pt x="658" y="703" on="1"/>
        <pt x="548" y="539" on="0"/>
        <pt x="358" y="184" on="0"/>
        <pt x="278" y="-18" on="1"/>
        <pt x="172" y="-16" on="1"/>
        <pt x="74" y="387" on="1"/>
        <pt x="185" y="420" on="1"/>
        <pt x="244" y="138" on="1"/>
        <pt x="250" y="138" on="1"/>
        <pt x="308" y="306" on="0"/>
        <pt x="454" y="618" on="0"/>
        <pt x="541" y="754" on="1"/>
        <pt x="658" y="703" on="1"/>
      </contour>
    </TTGlyph>
    <TTGlyph name="check.2" xMin="24" yMin="-10" xMax="643" yMax="757">
      <contour>
        <pt x="247" y="583" on="1"/>
        <pt x="301" y="401" on="1"/>
        <pt x="532" y="757" on="1"/>
        <pt x="643" y="702" on="1"/>
        <pt x="340" y="294" on="1"/>
        <pt x="438" y="8" on="1"/>
        <pt x="319" y="-8" on="1"/>
        <pt x="255" y="202" on="1"/>
        <pt x="99" y="-10" on="1"/>
        <pt x="24" y="25" on="1"/>
        <pt x="217" y="300" on="1"/>
        <pt x="131" y="552" on="1"/>
      </contour>
    </TTGlyph>
    <TTGlyph name="circumflex" xMin="116" yMin="619" xMax="527" yMax="847">
      <contour>
        <pt x="335" y="735" on="1"/>
        <pt x="169" y="623" on="1"/>
        <pt x="116" y="684" on="1"/>
        <pt x="353" y="847" on="1"/>
        <pt x="360" y="847" on="1"/>
        <pt x="527" y="681" on="1"/>
        <pt x="445" y="619" on="1"/>
      </contour>
    </TTGlyph>
    <TTGlyph name="circumflex.cap" xMin="116" yMin="619" xMax="527" yMax="847">
      <contour>
        <pt x="335" y="735" on="1"/>
        <pt x="169" y="623" on="1"/>
        <pt x="116" y="684" on="1"/>
        <pt x="353" y="847" on="1"/>
        <pt x="360" y="847" on="1"/>
        <pt x="527" y="681" on="1"/>
        <pt x="445" y="619" on="1"/>
      </contour>
    </TTGlyph>
    <TTGlyph name="colon" xMin="179" yMin="0" xMax="437" yMax="514">
      <contour>
        <pt x="252" y="356" on="1"/>
        <pt x="282" y="514" on="1"/>
        <pt x="437" y="514" on="1"/>
        <pt x="407" y="356" on="1"/>
      </contour>
      <contour>
        <pt x="179" y="0" on="1"/>
        <pt x="209" y="158" on="1"/>
        <pt x="364" y="158" on="1"/>
        <pt x="334" y="0" on="1"/>
      </contour>
    </TTGlyph>
    <TTGlyph name="colon.alt" xMin="196" yMin="86" xMax="454" yMax="600">
      <contour>
        <pt x="269" y="442" on="1"/>
        <pt x="299" y="600" on="1"/>
        <pt x="454" y="600" on="1"/>
        <pt x="424" y="442" on="1"/>
      </contour>
      <contour>
        <pt x="196" y="86" on="1"/>
        <pt x="226" y="243" on="1"/>
        <pt x="381" y="243" on="1"/>
        <pt x="351" y="86" on="1"/>
      </contour>
    </TTGlyph>
    <TTGlyph name="colonmonetary" xMin="70" yMin="-82" xMax="640" yMax="769">
      <contour>
        <pt x="465" y="544" on="1"/>
        <pt x="443" y="541" on="0"/>
        <pt x="404" y="533" on="0"/>
        <pt x="386" y="528" on="1"/>
        <pt x="290" y="176" on="1"/>
        <pt x="319" y="165" on="0"/>
        <pt x="360" y="155" on="1"/>
      </contour>
      <contour>
        <pt x="180" y="317" on="1"/>
        <pt x="180" y="250" on="0"/>
        <pt x="228" y="210" on="1"/>
        <pt x="306" y="501" on="1"/>
        <pt x="234" y="467" on="0"/>
        <pt x="180" y="371" on="0"/>
      </contour>
      <contour>
        <pt x="326" y="49" on="1"/>
        <pt x="309" y="54" on="0"/>
        <pt x="276" y="63" on="0"/>
        <pt x="261" y="68" on="1"/>
        <pt x="220" y="-82" on="1"/>
        <pt x="136" y="-82" on="1"/>
        <pt x="188" y="101" on="1"/>
        <pt x="70" y="167" on="0"/>
        <pt x="70" y="297" on="1"/>
        <pt x="70" y="343" on="0"/>
        <pt x="95" y="434" on="0"/>
        <pt x="155" y="517" on="0"/>
        <pt x="253" y="587" on="0"/>
        <pt x="326" y="613" on="1"/>
        <pt x="367" y="769" on="1"/>
        <pt x="451" y="769" on="1"/>
        <pt x="416" y="639" on="1"/>
        <pt x="433" y="643" on="0"/>
        <pt x="468" y="649" on="0"/>
        <pt x="488" y="652" on="1"/>
        <pt x="519" y="769" on="1"/>
        <pt x="604" y="769" on="1"/>
        <pt x="574" y="661" on="1"/>
        <pt x="590" y="663" on="0"/>
        <pt x="623" y="664" on="0"/>
        <pt x="640" y="665" on="1"/>
        <pt x="628" y="556" on="1"/>
        <pt x="605" y="555" on="0"/>
        <pt x="560" y="554" on="0"/>
        <pt x="540" y="552" on="1"/>
        <pt x="428" y="141" on="1"/>
        <pt x="449" y="137" on="0"/>
        <pt x="494" y="130" on="0"/>
        <pt x="519" y="127" on="1"/>
        <pt x="475" y="24" on="1"/>
        <pt x="456" y="26" on="0"/>
        <pt x="420" y="31" on="0"/>
        <pt x="403" y="34" on="1"/>
        <pt x="373" y="-82" on="1"/>
        <pt x="289" y="-82" on="1"/>
      </contour>
    </TTGlyph>
    <TTGlyph name="comma" xMin="128" yMin="-176" xMax="366" yMax="163">
      <contour>
        <pt x="128" y="-150" on="1"/>
        <pt x="177" y="-89" on="0"/>
        <pt x="214" y="31" on="0"/>
        <pt x="214" y="104" on="1"/>
        <pt x="214" y="117" on="0"/>
        <pt x="213" y="145" on="0"/>
        <pt x="212" y="159" on="1"/>
        <pt x="366" y="163" on="1"/>
        <pt x="364" y="58" on="0"/>
        <pt x="268" y="-101" on="0"/>
        <pt x="177" y="-176" on="1"/>
        <pt x="128" y="-150" on="1"/>
      </contour>
    </TTGlyph>
    <TTGlyph name="commaaccent" xMin="193" yMin="-311" xMax="383" yMax="-74">
      <contour>
        <pt x="193" y="-289" on="1"/>
        <pt x="216" y="-249" on="0"/>
        <pt x="234" y="-166" on="0"/>
        <pt x="234" y="-126" on="1"/>
        <pt x="234" y="-101" on="0"/>
        <pt x="231" y="-77" on="1"/>
        <pt x="383" y="-74" on="1"/>
        <pt x="375" y="-140" on="0"/>
        <pt x="302" y="-264" on="0"/>
        <pt x="242" y="-311" on="1"/>
        <pt x="193" y="-289" on="1"/>
      </contour>
    </TTGlyph>
    <TTGlyph name="commaaccent.cap" xMin="193" yMin="-311" xMax="383" yMax="-74">
      <contour>
        <pt x="193" y="-289" on="1"/>
        <pt x="216" y="-249" on="0"/>
        <pt x="234" y="-166" on="0"/>
        <pt x="234" y="-126" on="1"/>
        <pt x="234" y="-101" on="0"/>
        <pt x="231" y="-77" on="1"/>
        <pt x="383" y="-74" on="1"/>
        <pt x="375" y="-140" on="0"/>
        <pt x="302" y="-264" on="0"/>
        <pt x="242" y="-311" on="1"/>
        <pt x="193" y="-289" on="1"/>
      </contour>
    </TTGlyph>
    <TTGlyph name="commaaccent.rot" xMin="227" yMin="631" xMax="418" yMax="868">
      <contour>
        <pt x="418" y="846" on="1"/>
        <pt x="389" y="792" on="0"/>
        <pt x="373" y="683" on="0"/>
        <pt x="379" y="633" on="1"/>
        <pt x="227" y="631" on="1"/>
        <pt x="235" y="697" on="0"/>
        <pt x="308" y="821" on="0"/>
        <pt x="369" y="868" on="1"/>
        <pt x="418" y="846" on="1"/>
      </contour>
    </TTGlyph>
    <TTGlyph name="copyright" xMin="53" yMin="8" xMax="591" yMax="680">
      <contour>
        <pt x="53" y="281" on="1"/>
        <pt x="53" y="368" on="0"/>
        <pt x="101" y="514" on="0"/>
        <pt x="184" y="621" on="0"/>
        <pt x="296" y="680" on="0"/>
        <pt x="361" y="680" on="1"/>
        <pt x="412" y="680" on="0"/>
        <pt x="496" y="645" on="0"/>
        <pt x="557" y="576" on="0"/>
        <pt x="591" y="476" on="0"/>
        <pt x="591" y="410" on="1"/>
        <pt x="591" y="324" on="0"/>
        <pt x="548" y="177" on="0"/>
        <pt x="469" y="69" on="0"/>
        <pt x="358" y="8" on="0"/>
        <pt x="289" y="8" on="1"/>
        <pt x="238" y="8" on="0"/>
        <pt x="151" y="44" on="0"/>
        <pt x="88" y="114" on="0"/>
        <pt x="53" y="215" on="0"/>
      </contour>
      <contour>
        <pt x="123" y="292" on="1"/>
        <pt x="123" y="237" on="0"/>
        <pt x="150" y="154" on="0"/>
        <pt x="198" y="99" on="0"/>
        <pt x="262" y="72" on="0"/>
        <pt x="299" y="72" on="1"/>
        <pt x="350" y="72" on="0"/>
        <pt x="432" y="122" on="0"/>
        <pt x="489" y="210" on="0"/>
        <pt x="520" y="329" on="0"/>
        <pt x="520" y="398" on="1"/>
        <pt x="520" y="454" on="0"/>
        <pt x="494" y="536" on="0"/>
        <pt x="449" y="590" on="0"/>
        <pt x="388" y="616" on="0"/>
        <pt x="352" y="616" on="1"/>
        <pt x="304" y="616" on="0"/>
        <pt x="220" y="567" on="0"/>
        <pt x="159" y="480" on="0"/>
        <pt x="123" y="362" on="0"/>
      </contour>
      <contour>
        <pt x="356" y="524" on="1"/>
        <pt x="438" y="524" on="0"/>
        <pt x="438" y="409" on="1"/>
        <pt x="438" y="394" on="1"/>
        <pt x="372" y="393" on="1"/>
        <pt x="372" y="398" on="1"/>
        <pt x="372" y="448" on="0"/>
        <pt x="344" y="448" on="1"/>
        <pt x="329" y="448" on="0"/>
        <pt x="303" y="425" on="0"/>
        <pt x="284" y="386" on="0"/>
        <pt x="274" y="337" on="0"/>
        <pt x="274" y="312" on="1"/>
        <pt x="274" y="277" on="0"/>
        <pt x="303" y="239" on="0"/>
        <pt x="338" y="239" on="1"/>
        <pt x="363" y="239" on="0"/>
        <pt x="404" y="251" on="1"/>
        <pt x="391" y="180" on="1"/>
        <pt x="346" y="164" on="0"/>
        <pt x="309" y="164" on="1"/>
        <pt x="252" y="164" on="0"/>
        <pt x="196" y="237" on="0"/>
        <pt x="196" y="298" on="1"/>
        <pt x="196" y="342" on="0"/>
        <pt x="221" y="424" on="0"/>
        <pt x="264" y="487" on="0"/>
        <pt x="323" y="524" on="0"/>
      </contour>
    </TTGlyph>
    <TTGlyph name="d" xMin="52" yMin="-13" xMax="611" yMax="782">
      <contour>
        <pt x="236" y="100" on="1"/>
        <pt x="265" y="100" on="0"/>
        <pt x="341" y="145" on="0"/>
        <pt x="376" y="177" on="1"/>
        <pt x="429" y="449" on="1"/>
        <pt x="400" y="458" on="0"/>
        <pt x="350" y="467" on="0"/>
        <pt x="333" y="467" on="1"/>
        <pt x="300" y="467" on="0"/>
        <pt x="242" y="420" on="0"/>
        <pt x="198" y="344" on="0"/>
        <pt x="172" y="250" on="0"/>
        <pt x="172" y="204" on="1"/>
        <pt x="172" y="150" on="0"/>
        <pt x="209" y="100" on="0"/>
      </contour>
      <contour>
        <pt x="586" y="48" on="1"/>
        <pt x="481" y="-11" on="0"/>
        <pt x="429" y="-11" on="1"/>
        <pt x="395" y="-11" on="0"/>
        <pt x="366" y="34" on="0"/>
        <pt x="366" y="74" on="1"/>
        <pt x="366" y="79" on="0"/>
        <pt x="366" y="91" on="0"/>
        <pt x="367" y="97" on="1"/>
        <pt x="320" y="51" on="0"/>
        <pt x="218" y="-13" on="0"/>
        <pt x="173" y="-13" on="1"/>
        <pt x="122" y="-13" on="0"/>
        <pt x="52" y="78" on="0"/>
        <pt x="52" y="171" on="1"/>
        <pt x="52" y="246" on="0"/>
        <pt x="100" y="388" on="0"/>
        <pt x="188" y="499" on="0"/>
        <pt x="313" y="567" on="0"/>
        <pt x="391" y="567" on="1"/>
        <pt x="405" y="567" on="0"/>
        <pt x="435" y="565" on="0"/>
        <pt x="451" y="563" on="1"/>
        <pt x="492" y="773" on="1"/>
        <pt x="611" y="782" on="1"/>
        <pt x="487" y="148" on="1"/>
        <pt x="485" y="137" on="0"/>
        <pt x="483" y="121" on="0"/>
        <pt x="483" y="114" on="1"/>
        <pt x="483" y="102" on="0"/>
        <pt x="492" y="90" on="0"/>
        <pt x="505" y="90" on="1"/>
        <pt x="516" y="90" on="0"/>
        <pt x="549" y="98" on="0"/>
        <pt x="575" y="106" on="1"/>
      </contour>
    </TTGlyph>
    <TTGlyph name="dagger" xMin="137" yMin="118" xMax="595" yMax="776">
      <contour>
        <pt x="237" y="118" on="1"/>
        <pt x="220" y="129" on="1"/>
        <pt x="302" y="516" on="1"/>
        <pt x="137" y="532" on="1"/>
        <pt x="156" y="628" on="1"/>
        <pt x="323" y="611" on="1"/>
        <pt x="358" y="776" on="1"/>
        <pt x="474" y="765" on="1"/>
        <pt x="437" y="600" on="1"/>
        <pt x="595" y="584" on="1"/>
        <pt x="576" y="489" on="1"/>
        <pt x="414" y="505" on="1"/>
        <pt x="320" y="148" on="1"/>
      </contour>
    </TTGlyph>
    <TTGlyph name="daggerdbl" xMin="93" yMin="61" xMax="595" yMax="776">
      <contour>
        <pt x="224" y="61" on="1"/>
        <pt x="209" y="73" on="1"/>
        <pt x="256" y="294" on="1"/>
        <pt x="93" y="310" on="1"/>
        <pt x="112" y="406" on="1"/>
        <pt x="276" y="390" on="1"/>
        <pt x="303" y="516" on="1"/>
        <pt x="137" y="532" on="1"/>
        <pt x="156" y="628" on="1"/>
        <pt x="323" y="611" on="1"/>
        <pt x="358" y="776" on="1"/>
        <pt x="474" y="765" on="1"/>
        <pt x="436" y="600" on="1"/>
        <pt x="595" y="584" on="1"/>
        <pt x="576" y="489" on="1"/>
        <pt x="413" y="505" on="1"/>
        <pt x="381" y="380" on="1"/>
        <pt x="551" y="363" on="1"/>
        <pt x="532" y="268" on="1"/>
        <pt x="357" y="285" on="1"/>
        <pt x="308" y="91" on="1"/>
      </contour>
    </TTGlyph>
    <TTGlyph name="dcaron" xMin="52" yMin="-13" xMax="834" yMax="893">
      <component glyphName="caron.alt" x="382" y="0" flags="0x204"/>
      <component glyphName="d" x="0" y="0" flags="0x4"/>
    </TTGlyph>
    <TTGlyph name="dcroat" xMin="52" yMin="-13" xMax="667" yMax="782">
      <contour>
        <pt x="236" y="100" on="1"/>
        <pt x="265" y="100" on="0"/>
        <pt x="341" y="145" on="0"/>
        <pt x="376" y="177" on="1"/>
        <pt x="429" y="449" on="1"/>
        <pt x="400" y="458" on="0"/>
        <pt x="350" y="467" on="0"/>
        <pt x="333" y="467" on="1"/>
        <pt x="300" y="467" on="0"/>
        <pt x="242" y="420" on="0"/>
        <pt x="198" y="344" on="0"/>
        <pt x="172" y="250" on="0"/>
        <pt x="172" y="204" on="1"/>
        <pt x="172" y="150" on="0"/>
        <pt x="209" y="100" on="0"/>
      </contour>
      <contour>
        <pt x="586" y="48" on="1"/>
        <pt x="481" y="-11" on="0"/>
        <pt x="429" y="-11" on="1"/>
        <pt x="395" y="-11" on="0"/>
        <pt x="366" y="34" on="0"/>
        <pt x="366" y="74" on="1"/>
        <pt x="366" y="79" on="0"/>
        <pt x="366" y="91" on="0"/>
        <pt x="367" y="97" on="1"/>
        <pt x="320" y="51" on="0"/>
        <pt x="218" y="-13" on="0"/>
        <pt x="173" y="-13" on="1"/>
        <pt x="122" y="-13" on="0"/>
        <pt x="52" y="78" on="0"/>
        <pt x="52" y="171" on="1"/>
        <pt x="52" y="246" on="0"/>
        <pt x="100" y="388" on="0"/>
        <pt x="188" y="499" on="0"/>
        <pt x="313" y="567" on="0"/>
        <pt x="391" y="567" on="1"/>
        <pt x="405" y="567" on="0"/>
        <pt x="435" y="565" on="0"/>
        <pt x="451" y="563" on="1"/>
        <pt x="465" y="633" on="1"/>
        <pt x="322" y="633" on="1"/>
        <pt x="338" y="710" on="1"/>
        <pt x="480" y="710" on="1"/>
        <pt x="492" y="773" on="1"/>
        <pt x="611" y="782" on="1"/>
        <pt x="597" y="710" on="1"/>
        <pt x="667" y="710" on="1"/>
        <pt x="652" y="632" on="1"/>
        <pt x="582" y="632" on="1"/>
        <pt x="487" y="148" on="1"/>
        <pt x="485" y="137" on="0"/>
        <pt x="483" y="121" on="0"/>
        <pt x="483" y="114" on="1"/>
        <pt x="483" y="102" on="0"/>
        <pt x="492" y="90" on="0"/>
        <pt x="505" y="90" on="1"/>
        <pt x="516" y="90" on="0"/>
        <pt x="549" y="98" on="0"/>
        <pt x="575" y="106" on="1"/>
      </contour>
    </TTGlyph>
    <TTGlyph name="degree" xMin="154" yMin="333" xMax="567" yMax="756">
      <contour>
        <pt x="380" y="756" on="1"/>
        <pt x="420" y="756" on="0"/>
        <pt x="489" y="729" on="0"/>
        <pt x="539" y="679" on="0"/>
        <pt x="567" y="608" on="0"/>
        <pt x="567" y="564" on="1"/>
        <pt x="567" y="512" on="0"/>
        <pt x="529" y="427" on="0"/>
        <pt x="466" y="366" on="0"/>
        <pt x="384" y="333" on="0"/>
        <pt x="340" y="333" on="1"/>
        <pt x="300" y="333" on="0"/>
        <pt x="232" y="360" on="0"/>
        <pt x="182" y="410" on="0"/>
        <pt x="154" y="482" on="0"/>
        <pt x="154" y="526" on="1"/>
        <pt x="154" y="578" on="0"/>
        <pt x="191" y="663" on="0"/>
        <pt x="254" y="723" on="0"/>
        <pt x="336" y="756" on="0"/>
      </contour>
      <contour>
        <pt x="352" y="424" on="1"/>
        <pt x="402" y="424" on="0"/>
        <pt x="470" y="496" on="0"/>
        <pt x="470" y="555" on="1"/>
        <pt x="470" y="603" on="0"/>
        <pt x="415" y="666" on="0"/>
        <pt x="369" y="666" on="1"/>
        <pt x="344" y="666" on="0"/>
        <pt x="300" y="647" on="0"/>
        <pt x="268" y="612" on="0"/>
        <pt x="250" y="564" on="0"/>
        <pt x="250" y="535" on="1"/>
        <pt x="250" y="487" on="0"/>
        <pt x="306" y="424" on="0"/>
      </contour>
    </TTGlyph>
    <TTGlyph name="dieresis" xMin="124" yMin="637" xMax="543" yMax="791">
      <contour>
        <pt x="368" y="639" on="1"/>
        <pt x="405" y="789" on="1"/>
        <pt x="543" y="791" on="1"/>
        <pt x="496" y="641" on="1"/>
      </contour>
      <contour>
        <pt x="124" y="637" on="1"/>
        <pt x="161" y="787" on="1"/>
        <pt x="298" y="789" on="1"/>
        <pt x="252" y="639" on="1"/>
      </contour>
    </TTGlyph>
    <TTGlyph name="dieresis.cap" xMin="124" yMin="637" xMax="543" yMax="791">
      <contour>
        <pt x="368" y="639" on="1"/>
        <pt x="405" y="789" on="1"/>
        <pt x="543" y="791" on="1"/>
        <pt x="496" y="641" on="1"/>
      </contour>
      <contour>
        <pt x="124" y="637" on="1"/>
        <pt x="161" y="787" on="1"/>
        <pt x="298" y="789" on="1"/>
        <pt x="252" y="639" on="1"/>
      </contour>
    </TTGlyph>
    <TTGlyph name="divide" xMin="68" yMin="68" xMax="579" yMax="593">
      <contour>
        <pt x="285" y="469" on="1"/>
        <pt x="311" y="593" on="1"/>
        <pt x="439" y="593" on="1"/>
        <pt x="413" y="469" on="1"/>
      </contour>
      <contour>
        <pt x="558" y="279" on="1"/>
        <pt x="68" y="279" on="1"/>
        <pt x="88" y="382" on="1"/>
        <pt x="579" y="382" on="1"/>
      </contour>
      <contour>
        <pt x="208" y="68" on="1"/>
        <pt x="234" y="192" on="1"/>
        <pt x="362" y="192" on="1"/>
        <pt x="336" y="68" on="1"/>
      </contour>
    </TTGlyph>
    <TTGlyph name="dollar" xMin="42" yMin="-83" xMax="587" yMax="770">
      <contour>
        <pt x="242" y="512" on="1"/>
        <pt x="242" y="492" on="0"/>
        <pt x="283" y="447" on="0"/>
        <pt x="314" y="421" on="1"/>
        <pt x="356" y="557" on="1"/>
        <pt x="299" y="559" on="0"/>
        <pt x="242" y="532" on="0"/>
      </contour>
      <contour>
        <pt x="413" y="179" on="1"/>
        <pt x="413" y="199" on="0"/>
        <pt x="372" y="245" on="0"/>
        <pt x="340" y="271" on="1"/>
        <pt x="298" y="131" on="1"/>
        <pt x="356" y="130" on="0"/>
        <pt x="413" y="157" on="0"/>
      </contour>
      <contour>
        <pt x="144" y="-83" on="1"/>
        <pt x="180" y="37" on="1"/>
        <pt x="148" y="40" on="0"/>
        <pt x="80" y="49" on="0"/>
        <pt x="42" y="57" on="1"/>
        <pt x="66" y="165" on="1"/>
        <pt x="112" y="154" on="0"/>
        <pt x="191" y="140" on="0"/>
        <pt x="224" y="136" on="1"/>
        <pt x="279" y="319" on="1"/>
        <pt x="252" y="340" on="0"/>
        <pt x="198" y="386" on="0"/>
        <pt x="156" y="434" on="0"/>
        <pt x="130" y="485" on="0"/>
        <pt x="130" y="512" on="1"/>
        <pt x="130" y="539" on="0"/>
        <pt x="157" y="590" on="0"/>
        <pt x="215" y="630" on="0"/>
        <pt x="307" y="654" on="0"/>
        <pt x="373" y="654" on="1"/>
        <pt x="407" y="770" on="1"/>
        <pt x="516" y="770" on="1"/>
        <pt x="476" y="647" on="1"/>
        <pt x="502" y="644" on="0"/>
        <pt x="557" y="635" on="0"/>
        <pt x="587" y="628" on="1"/>
        <pt x="565" y="521" on="1"/>
        <pt x="526" y="532" on="0"/>
        <pt x="458" y="545" on="0"/>
        <pt x="429" y="550" on="1"/>
        <pt x="374" y="373" on="1"/>
        <pt x="402" y="351" on="0"/>
        <pt x="456" y="303" on="0"/>
        <pt x="499" y="253" on="0"/>
        <pt x="526" y="201" on="0"/>
        <pt x="526" y="174" on="1"/>
        <pt x="526" y="148" on="0"/>
        <pt x="500" y="99" on="0"/>
        <pt x="442" y="60" on="0"/>
        <pt x="349" y="34" on="0"/>
        <pt x="282" y="33" on="1"/>
        <pt x="251" y="-83" on="1"/>
      </contour>
    </TTGlyph>
    <TTGlyph name="dotaccent" xMin="232" yMin="638" xMax="411" yMax="789">
      <contour>
        <pt x="232" y="638" on="1"/>
        <pt x="269" y="788" on="1"/>
        <pt x="411" y="789" on="1"/>
        <pt x="363" y="639" on="1"/>
      </contour>
    </TTGlyph>
    <TTGlyph name="dotaccent.cap" xMin="232" yMin="638" xMax="411" yMax="789">
      <contour>
        <pt x="232" y="638" on="1"/>
        <pt x="269" y="788" on="1"/>
        <pt x="411" y="789" on="1"/>
        <pt x="363" y="639" on="1"/>
      </contour>
    </TTGlyph>
    <TTGlyph name="dotlessi" xMin="84" yMin="-12" xMax="543" yMax="554">
      <contour>
        <pt x="543" y="55" on="1"/>
        <pt x="462" y="20" on="0"/>
        <pt x="341" y="-12" on="0"/>
        <pt x="298" y="-12" on="1"/>
        <pt x="241" y="-12" on="0"/>
        <pt x="188" y="41" on="0"/>
        <pt x="188" y="89" on="1"/>
        <pt x="188" y="106" on="0"/>
        <pt x="193" y="142" on="0"/>
        <pt x="199" y="163" on="1"/>
        <pt x="277" y="452" on="1"/>
        <pt x="93" y="436" on="1"/>
        <pt x="84" y="498" on="1"/>
        <pt x="316" y="554" on="1"/>
        <pt x="418" y="553" on="1"/>
        <pt x="322" y="184" on="1"/>
        <pt x="313" y="152" on="0"/>
        <pt x="313" y="133" on="1"/>
        <pt x="313" y="113" on="0"/>
        <pt x="337" y="94" on="0"/>
        <pt x="369" y="94" on="1"/>
        <pt x="395" y="94" on="0"/>
        <pt x="474" y="106" on="0"/>
        <pt x="532" y="118" on="1"/>
        <pt x="543" y="55" on="1"/>
      </contour>
    </TTGlyph>
    <TTGlyph name="e" xMin="65" yMin="-13" xMax="568" yMax="568">
      <contour>
        <pt x="540" y="64" on="1"/>
        <pt x="460" y="23" on="0"/>
        <pt x="329" y="-13" on="0"/>
        <pt x="275" y="-13" on="1"/>
        <pt x="223" y="-13" on="0"/>
        <pt x="144" y="19" on="0"/>
        <pt x="92" y="75" on="0"/>
        <pt x="65" y="153" on="0"/>
        <pt x="65" y="198" on="1"/>
        <pt x="65" y="264" on="0"/>
        <pt x="118" y="397" on="0"/>
        <pt x="209" y="502" on="0"/>
        <pt x="334" y="568" on="0"/>
        <pt x="406" y="568" on="1"/>
        <pt x="481" y="568" on="0"/>
        <pt x="568" y="494" on="0"/>
        <pt x="568" y="430" on="1"/>
        <pt x="568" y="333" on="0"/>
        <pt x="370" y="219" on="0"/>
        <pt x="181" y="205" on="1"/>
        <pt x="183" y="147" on="0"/>
        <pt x="241" y="91" on="0"/>
        <pt x="310" y="91" on="1"/>
        <pt x="350" y="91" on="0"/>
        <pt x="456" y="109" on="0"/>
        <pt x="527" y="127" on="1"/>
      </contour>
      <contour>
        <pt x="374" y="470" on="1"/>
        <pt x="338" y="470" on="0"/>
        <pt x="276" y="437" on="0"/>
        <pt x="228" y="382" on="0"/>
        <pt x="194" y="310" on="0"/>
        <pt x="187" y="272" on="1"/>
        <pt x="311" y="281" on="0"/>
        <pt x="454" y="345" on="0"/>
        <pt x="454" y="403" on="1"/>
        <pt x="454" y="433" on="0"/>
        <pt x="411" y="470" on="0"/>
      </contour>
    </TTGlyph>
    <TTGlyph name="eacute" xMin="65" yMin="-13" xMax="583" yMax="874">
      <component glyphName="acute" x="81" y="15" flags="0x204"/>
      <component glyphName="e" x="0" y="0" flags="0x4"/>
    </TTGlyph>
    <TTGlyph name="ebreve" xMin="65" yMin="-13" xMax="648" yMax="852">
      <component glyphName="e" x="0" y="0" flags="0x204"/>
      <component glyphName="breve" x="94" y="15" flags="0x4"/>
    </TTGlyph>
    <TTGlyph name="ecaron" xMin="65" yMin="-13" xMax="634" yMax="858">
      <component glyphName="caron" x="83" y="15" flags="0x204"/>
      <component glyphName="e" x="0" y="0" flags="0x4"/>
    </TTGlyph>
    <TTGlyph name="ecircumflex" xMin="65" yMin="-13" xMax="616" yMax="862">
      <component glyphName="circumflex" x="89" y="15" flags="0x204"/>
      <component glyphName="e" x="0" y="0" flags="0x4"/>
    </TTGlyph>
    <TTGlyph name="edieresis" xMin="65" yMin="-13" xMax="625" yMax="806">
      <component glyphName="dieresis" x="82" y="15" flags="0x204"/>
      <component glyphName="e" x="0" y="0" flags="0x4"/>
    </TTGlyph>
    <TTGlyph name="edotaccent" xMin="65" yMin="-13" xMax="568" yMax="804">
      <component glyphName="e" x="0" y="0" flags="0x204"/>
      <component glyphName="dotaccent" x="94" y="15" flags="0x4"/>
    </TTGlyph>
    <TTGlyph name="egrave" xMin="65" yMin="-13" xMax="568" yMax="879">
      <component glyphName="e" x="0" y="0" flags="0x204"/>
      <component glyphName="grave" x="98" y="15" flags="0x4"/>
    </TTGlyph>
    <TTGlyph name="eight" xMin="54" yMin="-14" xMax="599" yMax="700">
      <contour>
        <pt x="516" y="172" on="1"/>
        <pt x="516" y="134" on="0"/>
        <pt x="478" y="67" on="0"/>
        <pt x="411" y="16" on="0"/>
        <pt x="317" y="-14" on="0"/>
        <pt x="262" y="-14" on="1"/>
        <pt x="214" y="-14" on="0"/>
        <pt x="137" y="8" on="0"/>
        <pt x="83" y="49" on="0"/>
        <pt x="54" y="105" on="0"/>
        <pt x="54" y="139" on="1"/>
        <pt x="54" y="163" on="0"/>
        <pt x="70" y="212" on="0"/>
        <pt x="110" y="265" on="0"/>
        <pt x="181" y="325" on="0"/>
        <pt x="237" y="362" on="1"/>
        <pt x="200" y="399" on="0"/>
        <pt x="147" y="477" on="0"/>
        <pt x="147" y="522" on="1"/>
        <pt x="147" y="558" on="0"/>
        <pt x="186" y="622" on="0"/>
        <pt x="262" y="671" on="0"/>
        <pt x="374" y="700" on="0"/>
        <pt x="446" y="700" on="1"/>
        <pt x="466" y="700" on="0"/>
        <pt x="507" y="697" on="0"/>
        <pt x="529" y="695" on="1"/>
        <pt x="495" y="580" on="1"/>
        <pt x="411" y="598" on="0"/>
        <pt x="360" y="598" on="1"/>
        <pt x="304" y="598" on="0"/>
        <pt x="260" y="564" on="0"/>
        <pt x="260" y="538" on="1"/>
        <pt x="260" y="511" on="0"/>
        <pt x="303" y="454" on="0"/>
        <pt x="335" y="423" on="1"/>
        <pt x="382" y="451" on="0"/>
        <pt x="494" y="513" on="0"/>
        <pt x="563" y="548" on="1"/>
        <pt x="599" y="479" on="1"/>
        <pt x="537" y="446" on="0"/>
        <pt x="437" y="390" on="0"/>
        <pt x="395" y="367" on="1"/>
        <pt x="418" y="345" on="0"/>
        <pt x="462" y="299" on="0"/>
        <pt x="496" y="250" on="0"/>
        <pt x="516" y="199" on="0"/>
      </contour>
      <contour>
        <pt x="288" y="81" on="1"/>
        <pt x="339" y="81" on="0"/>
        <pt x="407" y="128" on="0"/>
        <pt x="407" y="163" on="1"/>
        <pt x="407" y="180" on="0"/>
        <pt x="389" y="215" on="0"/>
        <pt x="359" y="251" on="0"/>
        <pt x="319" y="288" on="0"/>
        <pt x="298" y="307" on="1"/>
        <pt x="256" y="279" on="0"/>
        <pt x="205" y="237" on="0"/>
        <pt x="177" y="203" on="0"/>
        <pt x="168" y="176" on="0"/>
        <pt x="168" y="164" on="1"/>
        <pt x="168" y="143" on="0"/>
        <pt x="187" y="112" on="0"/>
        <pt x="220" y="91" on="0"/>
        <pt x="264" y="81" on="0"/>
      </contour>
    </TTGlyph>
    <TTGlyph name="eight.den" xMin="66" yMin="-244" xMax="455" yMax="217">
      <component glyphName="eight.num" x="-123" y="-705" flags="0x204"/>
    </TTGlyph>
    <TTGlyph name="eight.inf" xMin="79" yMin="-178" xMax="468" yMax="283">
      <component glyphName="eight.num" x="-110" y="-639" flags="0x204"/>
    </TTGlyph>
    <TTGlyph name="eight.num" xMin="189" yMin="461" xMax="578" yMax="922">
      <contour>
        <pt x="527" y="585" on="1"/>
        <pt x="527" y="559" on="0"/>
        <pt x="500" y="514" on="0"/>
        <pt x="452" y="480" on="0"/>
        <pt x="384" y="461" on="0"/>
        <pt x="343" y="461" on="1"/>
        <pt x="271" y="461" on="0"/>
        <pt x="189" y="518" on="0"/>
        <pt x="189" y="564" on="1"/>
        <pt x="189" y="580" on="0"/>
        <pt x="199" y="612" on="0"/>
        <pt x="227" y="645" on="0"/>
        <pt x="276" y="682" on="0"/>
        <pt x="314" y="704" on="1"/>
        <pt x="288" y="726" on="0"/>
        <pt x="251" y="775" on="0"/>
        <pt x="251" y="802" on="1"/>
        <pt x="251" y="825" on="0"/>
        <pt x="277" y="869" on="0"/>
        <pt x="329" y="902" on="0"/>
        <pt x="406" y="922" on="0"/>
        <pt x="456" y="922" on="1"/>
        <pt x="493" y="922" on="0"/>
        <pt x="535" y="916" on="1"/>
        <pt x="503" y="828" on="1"/>
        <pt x="469" y="837" on="0"/>
        <pt x="418" y="844" on="0"/>
        <pt x="399" y="844" on="1"/>
        <pt x="366" y="844" on="0"/>
        <pt x="340" y="824" on="0"/>
        <pt x="340" y="810" on="1"/>
        <pt x="340" y="795" on="0"/>
        <pt x="369" y="763" on="0"/>
        <pt x="392" y="745" on="1"/>
        <pt x="424" y="762" on="0"/>
        <pt x="503" y="798" on="0"/>
        <pt x="551" y="818" on="1"/>
        <pt x="578" y="766" on="1"/>
        <pt x="537" y="749" on="0"/>
        <pt x="471" y="719" on="0"/>
        <pt x="443" y="705" on="1"/>
        <pt x="476" y="679" on="0"/>
        <pt x="527" y="620" on="0"/>
      </contour>
      <contour>
        <pt x="360" y="532" on="1"/>
        <pt x="395" y="532" on="0"/>
        <pt x="439" y="561" on="0"/>
        <pt x="439" y="581" on="1"/>
        <pt x="439" y="601" on="0"/>
        <pt x="394" y="642" on="0"/>
        <pt x="364" y="664" on="1"/>
        <pt x="337" y="649" on="0"/>
        <pt x="304" y="626" on="0"/>
        <pt x="286" y="606" on="0"/>
        <pt x="279" y="590" on="0"/>
        <pt x="279" y="583" on="1"/>
        <pt x="279" y="559" on="0"/>
        <pt x="327" y="532" on="0"/>
      </contour>
    </TTGlyph>
    <TTGlyph name="eight.sup" xMin="168" yMin="353" xMax="557" yMax="814">
      <component glyphName="eight.num" x="-21" y="-108" flags="0x204"/>
    </TTGlyph>
    <TTGlyph name="ellipsis" xMin="3" yMin="0" xMax="572" yMax="163">
      <contour>
        <pt x="3" y="0" on="1"/>
        <pt x="40" y="163" on="1"/>
        <pt x="165" y="163" on="1"/>
        <pt x="129" y="0" on="1"/>
      </contour>
      <contour>
        <pt x="410" y="0" on="1"/>
        <pt x="446" y="163" on="1"/>
        <pt x="572" y="163" on="1"/>
        <pt x="535" y="0" on="1"/>
      </contour>
      <contour>
        <pt x="206" y="0" on="1"/>
        <pt x="243" y="163" on="1"/>
        <pt x="369" y="163" on="1"/>
        <pt x="332" y="0" on="1"/>
      </contour>
    </TTGlyph>
    <TTGlyph name="emacron" xMin="65" yMin="-13" xMax="617" yMax="781">
      <component glyphName="e" x="0" y="0" flags="0x204"/>
      <component glyphName="macron" x="95" y="15" flags="0x4"/>
    </TTGlyph>
    <TTGlyph name="emdash" xMin="77" yMin="282" xMax="591" yMax="378">
      <contour>
        <pt x="573" y="282" on="1"/>
        <pt x="77" y="282" on="1"/>
        <pt x="96" y="378" on="1"/>
        <pt x="591" y="378" on="1"/>
      </contour>
    </TTGlyph>
    <TTGlyph name="endash" xMin="86" yMin="282" xMax="559" yMax="378">
      <contour>
        <pt x="541" y="282" on="1"/>
        <pt x="86" y="282" on="1"/>
        <pt x="105" y="378" on="1"/>
        <pt x="559" y="378" on="1"/>
      </contour>
    </TTGlyph>
    <TTGlyph name="eogonek" xMin="65" yMin="-234" xMax="568" yMax="568">
      <contour>
        <pt x="472" y="-187" on="1"/>
        <pt x="421" y="-212" on="0"/>
        <pt x="337" y="-234" on="0"/>
        <pt x="305" y="-234" on="1"/>
        <pt x="252" y="-234" on="0"/>
        <pt x="198" y="-186" on="0"/>
        <pt x="198" y="-151" on="1"/>
        <pt x="198" y="-117" on="0"/>
        <pt x="252" y="-46" on="0"/>
        <pt x="312" y="-10" on="1"/>
        <pt x="302" y="-11" on="0"/>
        <pt x="284" y="-12" on="0"/>
        <pt x="275" y="-12" on="1"/>
        <pt x="222" y="-12" on="0"/>
        <pt x="144" y="20" on="0"/>
        <pt x="91" y="76" on="0"/>
        <pt x="65" y="153" on="0"/>
        <pt x="65" y="198" on="1"/>
        <pt x="65" y="264" on="0"/>
        <pt x="118" y="397" on="0"/>
        <pt x="209" y="502" on="0"/>
        <pt x="334" y="568" on="0"/>
        <pt x="406" y="568" on="1"/>
        <pt x="481" y="568" on="0"/>
        <pt x="568" y="494" on="0"/>
        <pt x="568" y="430" on="1"/>
        <pt x="568" y="333" on="0"/>
        <pt x="370" y="219" on="0"/>
        <pt x="181" y="205" on="1"/>
        <pt x="183" y="147" on="0"/>
        <pt x="241" y="91" on="0"/>
        <pt x="310" y="91" on="1"/>
        <pt x="350" y="91" on="0"/>
        <pt x="456" y="109" on="0"/>
        <pt x="527" y="127" on="1"/>
        <pt x="540" y="64" on="1"/>
        <pt x="495" y="43" on="0"/>
        <pt x="411" y="-4" on="0"/>
        <pt x="346" y="-51" on="0"/>
        <pt x="308" y="-96" on="0"/>
        <pt x="308" y="-117" on="1"/>
        <pt x="308" y="-133" on="0"/>
        <pt x="333" y="-152" on="0"/>
        <pt x="361" y="-152" on="1"/>
        <pt x="378" y="-152" on="0"/>
        <pt x="427" y="-143" on="0"/>
        <pt x="459" y="-132" on="1"/>
      </contour>
      <contour>
        <pt x="374" y="470" on="1"/>
        <pt x="338" y="470" on="0"/>
        <pt x="276" y="437" on="0"/>
        <pt x="228" y="382" on="0"/>
        <pt x="194" y="310" on="0"/>
        <pt x="187" y="272" on="1"/>
        <pt x="311" y="281" on="0"/>
        <pt x="454" y="345" on="0"/>
        <pt x="454" y="403" on="1"/>
        <pt x="454" y="433" on="0"/>
        <pt x="411" y="470" on="0"/>
      </contour>
    </TTGlyph>
    <TTGlyph name="equal" xMin="61" yMin="160" xMax="587" yMax="507">
      <contour>
        <pt x="567" y="405" on="1"/>
        <pt x="109" y="405" on="1"/>
        <pt x="130" y="507" on="1"/>
        <pt x="587" y="507" on="1"/>
      </contour>
      <contour>
        <pt x="519" y="160" on="1"/>
        <pt x="61" y="160" on="1"/>
        <pt x="82" y="263" on="1"/>
        <pt x="540" y="263" on="1"/>
      </contour>
    </TTGlyph>
    <TTGlyph name="eth" xMin="58" yMin="-15" xMax="575" yMax="792">
      <contour>
        <pt x="270" y="-15" on="1"/>
        <pt x="222" y="-15" on="0"/>
        <pt x="143" y="16" on="0"/>
        <pt x="88" y="73" on="0"/>
        <pt x="58" y="152" on="0"/>
        <pt x="58" y="200" on="1"/>
        <pt x="58" y="263" on="0"/>
        <pt x="105" y="376" on="0"/>
        <pt x="187" y="461" on="0"/>
        <pt x="297" y="511" on="0"/>
        <pt x="361" y="511" on="1"/>
        <pt x="375" y="511" on="0"/>
        <pt x="402" y="509" on="0"/>
        <pt x="416" y="507" on="1"/>
        <pt x="406" y="530" on="0"/>
        <pt x="381" y="574" on="0"/>
        <pt x="364" y="596" on="1"/>
        <pt x="210" y="553" on="1"/>
        <pt x="190" y="621" on="1"/>
        <pt x="314" y="656" on="1"/>
        <pt x="297" y="675" on="0"/>
        <pt x="257" y="712" on="0"/>
        <pt x="234" y="732" on="1"/>
        <pt x="328" y="792" on="1"/>
        <pt x="357" y="767" on="0"/>
        <pt x="409" y="716" on="0"/>
        <pt x="432" y="689" on="1"/>
        <pt x="558" y="725" on="1"/>
        <pt x="575" y="656" on="1"/>
        <pt x="478" y="629" on="1"/>
        <pt x="522" y="564" on="0"/>
        <pt x="568" y="426" on="0"/>
        <pt x="568" y="349" on="1"/>
        <pt x="568" y="268" on="0"/>
        <pt x="523" y="134" on="0"/>
        <pt x="443" y="38" on="0"/>
        <pt x="334" y="-15" on="0"/>
      </contour>
      <contour>
        <pt x="292" y="82" on="1"/>
        <pt x="329" y="82" on="0"/>
        <pt x="387" y="121" on="0"/>
        <pt x="427" y="189" on="0"/>
        <pt x="449" y="282" on="0"/>
        <pt x="449" y="336" on="1"/>
        <pt x="449" y="365" on="0"/>
        <pt x="446" y="392" on="1"/>
        <pt x="412" y="405" on="0"/>
        <pt x="351" y="417" on="0"/>
        <pt x="331" y="417" on="1"/>
        <pt x="298" y="417" on="0"/>
        <pt x="243" y="385" on="0"/>
        <pt x="202" y="331" on="0"/>
        <pt x="180" y="261" on="0"/>
        <pt x="180" y="224" on="1"/>
        <pt x="180" y="158" on="0"/>
        <pt x="240" y="82" on="0"/>
      </contour>
    </TTGlyph>
    <TTGlyph name="exclam" xMin="174" yMin="0" xMax="481" yMax="752">
      <contour>
        <pt x="267" y="272" on="1"/>
        <pt x="269" y="284" on="0"/>
        <pt x="279" y="358" on="0"/>
        <pt x="290" y="456" on="0"/>
        <pt x="303" y="566" on="0"/>
        <pt x="314" y="665" on="0"/>
        <pt x="323" y="739" on="0"/>
        <pt x="325" y="752" on="1"/>
        <pt x="481" y="752" on="1"/>
        <pt x="478" y="739" on="0"/>
        <pt x="457" y="665" on="0"/>
        <pt x="430" y="566" on="0"/>
        <pt x="398" y="456" on="0"/>
        <pt x="371" y="358" on="0"/>
        <pt x="351" y="284" on="0"/>
        <pt x="348" y="272" on="1"/>
      </contour>
      <contour>
        <pt x="174" y="0" on="1"/>
        <pt x="203" y="146" on="1"/>
        <pt x="355" y="146" on="1"/>
        <pt x="326" y="0" on="1"/>
      </contour>
    </TTGlyph>
    <TTGlyph name="exclamdown" xMin="159" yMin="-63" xMax="466" yMax="688">
      <contour>
        <pt x="466" y="688" on="1"/>
        <pt x="437" y="542" on="1"/>
        <pt x="285" y="542" on="1"/>
        <pt x="314" y="688" on="1"/>
      </contour>
      <contour>
        <pt x="373" y="416" on="1"/>
        <pt x="370" y="404" on="0"/>
        <pt x="361" y="330" on="0"/>
        <pt x="350" y="233" on="0"/>
        <pt x="337" y="123" on="0"/>
        <pt x="326" y="24" on="0"/>
        <pt x="317" y="-50" on="0"/>
        <pt x="315" y="-63" on="1"/>
        <pt x="159" y="-63" on="1"/>
        <pt x="162" y="-50" on="0"/>
        <pt x="183" y="24" on="0"/>
        <pt x="210" y="123" on="0"/>
        <pt x="242" y="233" on="0"/>
        <pt x="269" y="330" on="0"/>
        <pt x="289" y="404" on="0"/>
        <pt x="292" y="416" on="1"/>
      </contour>
    </TTGlyph>
    <TTGlyph name="f" xMin="62" yMin="-198" xMax="634" yMax="783">
      <contour>
        <pt x="463" y="17" on="1"/>
        <pt x="463" y="-30" on="0"/>
        <pt x="429" y="-109" on="0"/>
        <pt x="372" y="-166" on="0"/>
        <pt x="297" y="-198" on="0"/>
        <pt x="257" y="-198" on="1"/>
        <pt x="219" y="-198" on="0"/>
        <pt x="156" y="-166" on="0"/>
        <pt x="110" y="-101" on="0"/>
        <pt x="84" y="-2" on="0"/>
        <pt x="84" y="64" on="1"/>
        <pt x="84" y="115" on="0"/>
        <pt x="98" y="217" on="0"/>
        <pt x="110" y="268" on="1"/>
        <pt x="62" y="285" on="1"/>
        <pt x="79" y="361" on="1"/>
        <pt x="139" y="361" on="1"/>
        <pt x="169" y="447" on="0"/>
        <pt x="257" y="601" on="0"/>
        <pt x="360" y="716" on="0"/>
        <pt x="474" y="783" on="0"/>
        <pt x="530" y="783" on="1"/>
        <pt x="581" y="783" on="0"/>
        <pt x="634" y="728" on="0"/>
        <pt x="634" y="683" on="1"/>
        <pt x="634" y="641" on="0"/>
        <pt x="587" y="535" on="0"/>
        <pt x="536" y="478" on="1"/>
        <pt x="485" y="498" on="1"/>
        <pt x="531" y="562" on="0"/>
        <pt x="531" y="608" on="1"/>
        <pt x="531" y="631" on="0"/>
        <pt x="506" y="656" on="0"/>
        <pt x="482" y="656" on="1"/>
        <pt x="451" y="656" on="0"/>
        <pt x="387" y="610" on="0"/>
        <pt x="327" y="531" on="0"/>
        <pt x="273" y="423" on="0"/>
        <pt x="252" y="361" on="1"/>
        <pt x="563" y="362" on="1"/>
        <pt x="545" y="265" on="1"/>
        <pt x="317" y="270" on="1"/>
        <pt x="395" y="204" on="0"/>
        <pt x="463" y="77" on="0"/>
      </contour>
      <contour>
        <pt x="301" y="-103" on="1"/>
        <pt x="339" y="-103" on="0"/>
        <pt x="384" y="-50" on="0"/>
        <pt x="384" y="-5" on="1"/>
        <pt x="384" y="53" on="0"/>
        <pt x="307" y="177" on="0"/>
        <pt x="220" y="239" on="1"/>
        <pt x="202" y="156" on="0"/>
        <pt x="202" y="72" on="1"/>
        <pt x="202" y="22" on="0"/>
        <pt x="217" y="-45" on="0"/>
        <pt x="244" y="-85" on="0"/>
        <pt x="280" y="-103" on="0"/>
      </contour>
    </TTGlyph>
    <TTGlyph name="f.lig" xMin="62" yMin="-167" xMax="634" yMax="783">
      <contour>
        <pt x="463" y="32" on="1"/>
        <pt x="463" y="-12" on="0"/>
        <pt x="429" y="-85" on="0"/>
        <pt x="372" y="-138" on="0"/>
        <pt x="297" y="-167" on="0"/>
        <pt x="257" y="-167" on="1"/>
        <pt x="219" y="-167" on="0"/>
        <pt x="156" y="-137" on="0"/>
        <pt x="110" y="-75" on="0"/>
        <pt x="84" y="20" on="0"/>
        <pt x="84" y="84" on="1"/>
        <pt x="84" y="129" on="0"/>
        <pt x="97" y="221" on="0"/>
        <pt x="108" y="269" on="1"/>
        <pt x="62" y="285" on="1"/>
        <pt x="79" y="361" on="1"/>
        <pt x="137" y="361" on="1"/>
        <pt x="167" y="445" on="0"/>
        <pt x="255" y="598" on="0"/>
        <pt x="359" y="714" on="0"/>
        <pt x="473" y="783" on="0"/>
        <pt x="530" y="783" on="1"/>
        <pt x="581" y="783" on="0"/>
        <pt x="634" y="728" on="0"/>
        <pt x="634" y="683" on="1"/>
        <pt x="634" y="641" on="0"/>
        <pt x="587" y="535" on="0"/>
        <pt x="536" y="478" on="1"/>
        <pt x="485" y="498" on="1"/>
        <pt x="531" y="562" on="0"/>
        <pt x="531" y="608" on="1"/>
        <pt x="531" y="631" on="0"/>
        <pt x="506" y="656" on="0"/>
        <pt x="482" y="656" on="1"/>
        <pt x="451" y="656" on="0"/>
        <pt x="386" y="609" on="0"/>
        <pt x="325" y="529" on="0"/>
        <pt x="271" y="422" on="0"/>
        <pt x="251" y="361" on="1"/>
        <pt x="563" y="362" on="1"/>
        <pt x="545" y="265" on="1"/>
        <pt x="319" y="270" on="1"/>
        <pt x="396" y="208" on="0"/>
        <pt x="463" y="89" on="0"/>
      </contour>
      <contour>
        <pt x="301" y="-72" on="1"/>
        <pt x="339" y="-72" on="0"/>
        <pt x="384" y="-27" on="0"/>
        <pt x="384" y="15" on="1"/>
        <pt x="384" y="67" on="0"/>
        <pt x="306" y="183" on="0"/>
        <pt x="218" y="241" on="1"/>
        <pt x="211" y="203" on="0"/>
        <pt x="203" y="128" on="0"/>
        <pt x="203" y="92" on="1"/>
        <pt x="203" y="45" on="0"/>
        <pt x="218" y="-18" on="0"/>
        <pt x="245" y="-56" on="0"/>
        <pt x="280" y="-72" on="0"/>
      </contour>
    </TTGlyph>
    <TTGlyph name="five" xMin="60" yMin="-4" xMax="599" yMax="688">
      <contour>
        <pt x="536" y="227" on="1"/>
        <pt x="536" y="185" on="0"/>
        <pt x="494" y="103" on="0"/>
        <pt x="402" y="37" on="0"/>
        <pt x="256" y="-4" on="0"/>
        <pt x="152" y="-4" on="1"/>
        <pt x="130" y="-4" on="0"/>
        <pt x="84" y="-2" on="0"/>
        <pt x="60" y="0" on="1"/>
        <pt x="74" y="113" on="1"/>
        <pt x="109" y="109" on="0"/>
        <pt x="169" y="106" on="0"/>
        <pt x="196" y="106" on="1"/>
        <pt x="260" y="106" on="0"/>
        <pt x="347" y="124" on="0"/>
        <pt x="399" y="152" on="0"/>
        <pt x="422" y="189" on="0"/>
        <pt x="422" y="209" on="1"/>
        <pt x="422" y="231" on="0"/>
        <pt x="393" y="271" on="0"/>
        <pt x="326" y="307" on="0"/>
        <pt x="218" y="339" on="0"/>
        <pt x="140" y="352" on="1"/>
        <pt x="216" y="688" on="1"/>
        <pt x="599" y="688" on="1"/>
        <pt x="568" y="583" on="1"/>
        <pt x="302" y="584" on="1"/>
        <pt x="267" y="428" on="1"/>
        <pt x="343" y="412" on="0"/>
        <pt x="447" y="368" on="0"/>
        <pt x="509" y="316" on="0"/>
        <pt x="536" y="257" on="0"/>
      </contour>
    </TTGlyph>
    <TTGlyph name="five.den" xMin="65" yMin="-237" xMax="452" yMax="205">
      <component glyphName="five.num" x="-123" y="-705" flags="0x204"/>
    </TTGlyph>
    <TTGlyph name="five.inf" xMin="78" yMin="-171" xMax="465" yMax="271">
      <component glyphName="five.num" x="-110" y="-639" flags="0x204"/>
    </TTGlyph>
    <TTGlyph name="five.num" xMin="188" yMin="468" xMax="575" yMax="910">
      <contour>
        <pt x="535" y="616" on="1"/>
        <pt x="535" y="589" on="0"/>
        <pt x="505" y="536" on="0"/>
        <pt x="438" y="494" on="0"/>
        <pt x="331" y="468" on="0"/>
        <pt x="255" y="468" on="1"/>
        <pt x="239" y="468" on="0"/>
        <pt x="206" y="468" on="0"/>
        <pt x="188" y="470" on="1"/>
        <pt x="198" y="555" on="1"/>
        <pt x="223" y="553" on="0"/>
        <pt x="267" y="551" on="0"/>
        <pt x="286" y="551" on="1"/>
        <pt x="331" y="551" on="0"/>
        <pt x="391" y="561" on="0"/>
        <pt x="427" y="577" on="0"/>
        <pt x="442" y="598" on="0"/>
        <pt x="442" y="609" on="1"/>
        <pt x="442" y="621" on="0"/>
        <pt x="421" y="643" on="0"/>
        <pt x="374" y="664" on="0"/>
        <pt x="296" y="681" on="0"/>
        <pt x="239" y="689" on="1"/>
        <pt x="291" y="910" on="1"/>
        <pt x="575" y="910" on="1"/>
        <pt x="552" y="830" on="1"/>
        <pt x="360" y="831" on="1"/>
        <pt x="339" y="745" on="1"/>
        <pt x="395" y="736" on="0"/>
        <pt x="470" y="708" on="0"/>
        <pt x="516" y="675" on="0"/>
        <pt x="535" y="637" on="0"/>
      </contour>
    </TTGlyph>
    <TTGlyph name="five.sup" xMin="167" yMin="360" xMax="554" yMax="802">
      <component glyphName="five.num" x="-21" y="-108" flags="0x204"/>
    </TTGlyph>
    <TTGlyph name="fiveeighths" xMin="66" yMin="-244" xMax="575" yMax="910">
      <component glyphName="eight.num" x="-123" y="-705" flags="0x204"/>
      <component glyphName="fraction.afrc" x="0" y="0" flags="0x4"/>
      <component glyphName="five.num" x="0" y="0" flags="0x4"/>
    </TTGlyph>
    <TTGlyph name="fivesixths" xMin="70" yMin="-244" xMax="575" yMax="910">
      <component glyphName="six.num" x="-123" y="-705" flags="0x204"/>
      <component glyphName="fraction.afrc" x="0" y="0" flags="0x4"/>
      <component glyphName="five.num" x="0" y="0" flags="0x4"/>
    </TTGlyph>
    <TTGlyph name="four" xMin="52" yMin="0" xMax="570" yMax="696">
      <contour>
        <pt x="475" y="135" on="1"/>
        <pt x="449" y="0" on="1"/>
        <pt x="339" y="0" on="1"/>
        <pt x="366" y="135" on="1"/>
        <pt x="52" y="135" on="1"/>
        <pt x="57" y="213" on="1"/>
        <pt x="88" y="268" on="0"/>
        <pt x="142" y="375" on="0"/>
        <pt x="190" y="490" on="0"/>
        <pt x="236" y="619" on="0"/>
        <pt x="259" y="696" on="1"/>
        <pt x="386" y="689" on="1"/>
        <pt x="360" y="612" on="0"/>
        <pt x="310" y="487" on="0"/>
        <pt x="259" y="380" on="0"/>
        <pt x="205" y="285" on="0"/>
        <pt x="175" y="239" on="1"/>
        <pt x="386" y="239" on="1"/>
        <pt x="429" y="456" on="1"/>
        <pt x="540" y="465" on="1"/>
        <pt x="496" y="239" on="1"/>
        <pt x="570" y="239" on="1"/>
        <pt x="541" y="135" on="1"/>
      </contour>
    </TTGlyph>
    <TTGlyph name="four.den" xMin="63" yMin="-233" xMax="443" yMax="211">
      <component glyphName="four.num" x="-123" y="-705" flags="0x204"/>
    </TTGlyph>
    <TTGlyph name="four.inf" xMin="76" yMin="-167" xMax="456" yMax="277">
      <component glyphName="four.num" x="-110" y="-639" flags="0x204"/>
    </TTGlyph>
    <TTGlyph name="four.num" xMin="186" yMin="472" xMax="566" yMax="916">
      <contour>
        <pt x="494" y="554" on="1"/>
        <pt x="478" y="472" on="1"/>
        <pt x="391" y="472" on="1"/>
        <pt x="407" y="554" on="1"/>
        <pt x="186" y="554" on="1"/>
        <pt x="193" y="619" on="1"/>
        <pt x="213" y="654" on="0"/>
        <pt x="248" y="720" on="0"/>
        <pt x="279" y="790" on="0"/>
        <pt x="308" y="869" on="0"/>
        <pt x="322" y="916" on="1"/>
        <pt x="423" y="911" on="1"/>
        <pt x="406" y="863" on="0"/>
        <pt x="374" y="786" on="0"/>
        <pt x="341" y="719" on="0"/>
        <pt x="306" y="660" on="0"/>
        <pt x="287" y="632" on="1"/>
        <pt x="422" y="632" on="1"/>
        <pt x="447" y="763" on="1"/>
        <pt x="536" y="770" on="1"/>
        <pt x="509" y="632" on="1"/>
        <pt x="566" y="632" on="1"/>
        <pt x="543" y="554" on="1"/>
      </contour>
    </TTGlyph>
    <TTGlyph name="four.sup" xMin="165" yMin="364" xMax="545" yMax="808">
      <component glyphName="four.num" x="-21" y="-108" flags="0x204"/>
    </TTGlyph>
    <TTGlyph name="fourfifths" xMin="65" yMin="-237" xMax="569" yMax="916">
      <component glyphName="four.num" x="0" y="0" flags="0x204"/>
      <component glyphName="five.num" x="-123" y="-705" flags="0x4"/>
      <component glyphName="fraction.afrc" x="0" y="0" flags="0x4"/>
    </TTGlyph>
    <TTGlyph name="fraction" xMin="-50" yMin="-178" xMax="682" yMax="841">
      <contour>
        <pt x="-50" y="-127" on="1"/>
        <pt x="588" y="841" on="1"/>
        <pt x="682" y="789" on="1"/>
        <pt x="45" y="-178" on="1"/>
      </contour>
    </TTGlyph>
    <TTGlyph name="fraction.afrc" xMin="70" yMin="300" xMax="569" yMax="377">
      <contour>
        <pt x="86" y="377" on="1"/>
        <pt x="569" y="377" on="1"/>
        <pt x="554" y="300" on="1"/>
        <pt x="70" y="300" on="1"/>
      </contour>
    </TTGlyph>
    <TTGlyph name="g" xMin="48" yMin="-191" xMax="598" yMax="571">
      <contour>
        <pt x="252" y="139" on="1"/>
        <pt x="282" y="139" on="0"/>
        <pt x="347" y="178" on="0"/>
        <pt x="379" y="216" on="1"/>
        <pt x="384" y="273" on="0"/>
        <pt x="413" y="389" on="0"/>
        <pt x="432" y="439" on="1"/>
        <pt x="401" y="455" on="0"/>
        <pt x="350" y="469" on="0"/>
        <pt x="332" y="469" on="1"/>
        <pt x="299" y="469" on="0"/>
        <pt x="243" y="425" on="0"/>
        <pt x="202" y="357" on="0"/>
        <pt x="179" y="274" on="0"/>
        <pt x="179" y="235" on="1"/>
        <pt x="179" y="184" on="0"/>
        <pt x="220" y="139" on="0"/>
      </contour>
      <contour>
        <pt x="482" y="-76" on="1"/>
        <pt x="469" y="-102" on="0"/>
        <pt x="416" y="-144" on="0"/>
        <pt x="330" y="-174" on="0"/>
        <pt x="209" y="-191" on="0"/>
        <pt x="130" y="-191" on="1"/>
        <pt x="110" y="-191" on="0"/>
        <pt x="70" y="-190" on="0"/>
        <pt x="48" y="-189" on="1"/>
        <pt x="60" y="-75" on="1"/>
        <pt x="99" y="-78" on="0"/>
        <pt x="166" y="-80" on="0"/>
        <pt x="195" y="-80" on="1"/>
        <pt x="276" y="-80" on="0"/>
        <pt x="365" y="-64" on="0"/>
        <pt x="378" y="-51" on="1"/>
        <pt x="389" y="-40" on="0"/>
        <pt x="389" y="-7" on="1"/>
        <pt x="389" y="19" on="0"/>
        <pt x="380" y="90" on="0"/>
        <pt x="378" y="132" on="1"/>
        <pt x="336" y="88" on="0"/>
        <pt x="241" y="31" on="0"/>
        <pt x="192" y="31" on="1"/>
        <pt x="164" y="31" on="0"/>
        <pt x="116" y="51" on="0"/>
        <pt x="80" y="93" on="0"/>
        <pt x="60" y="157" on="0"/>
        <pt x="60" y="201" on="1"/>
        <pt x="60" y="269" on="0"/>
        <pt x="106" y="401" on="0"/>
        <pt x="190" y="504" on="0"/>
        <pt x="306" y="567" on="0"/>
        <pt x="377" y="567" on="1"/>
        <pt x="406" y="567" on="0"/>
        <pt x="459" y="554" on="0"/>
        <pt x="485" y="543" on="1"/>
        <pt x="504" y="571" on="0"/>
        <pt x="520" y="571" on="1"/>
        <pt x="531" y="571" on="0"/>
        <pt x="558" y="564" on="0"/>
        <pt x="582" y="552" on="0"/>
        <pt x="598" y="537" on="0"/>
        <pt x="598" y="529" on="1"/>
        <pt x="598" y="511" on="0"/>
        <pt x="580" y="447" on="0"/>
        <pt x="549" y="367" on="0"/>
        <pt x="508" y="278" on="0"/>
        <pt x="484" y="236" on="1"/>
        <pt x="483" y="228" on="0"/>
        <pt x="483" y="211" on="0"/>
        <pt x="483" y="203" on="1"/>
        <pt x="483" y="137" on="0"/>
        <pt x="496" y="35" on="0"/>
        <pt x="496" y="-4" on="1"/>
        <pt x="496" y="-24" on="0"/>
        <pt x="490" y="-60" on="0"/>
      </contour>
    </TTGlyph>
    <TTGlyph name="gbreve" xMin="48" yMin="-191" xMax="651" yMax="855">
      <component glyphName="g" x="0" y="0" flags="0x204"/>
      <component glyphName="breve" x="97" y="18" flags="0x4"/>
    </TTGlyph>
    <TTGlyph name="gcommaaccent" xMin="48" yMin="-191" xMax="598" yMax="886">
      <component glyphName="commaaccent.rot" x="72" y="18" flags="0x204"/>
      <component glyphName="g" x="0" y="0" flags="0x4"/>
    </TTGlyph>
    <TTGlyph name="gdotaccent" xMin="48" yMin="-191" xMax="598" yMax="807">
      <component glyphName="g" x="0" y="0" flags="0x204"/>
      <component glyphName="dotaccent" x="97" y="18" flags="0x4"/>
    </TTGlyph>
    <TTGlyph name="germandbls" xMin="45" yMin="-10" xMax="583" yMax="783">
      <contour>
        <pt x="256" y="100" on="1"/>
        <pt x="280" y="98" on="0"/>
        <pt x="321" y="95" on="0"/>
        <pt x="338" y="95" on="1"/>
        <pt x="396" y="95" on="0"/>
        <pt x="446" y="121" on="0"/>
        <pt x="446" y="150" on="1"/>
        <pt x="446" y="185" on="0"/>
        <pt x="375" y="286" on="0"/>
        <pt x="295" y="357" on="1"/>
        <pt x="338" y="403" on="0"/>
        <pt x="401" y="477" on="0"/>
        <pt x="440" y="537" on="0"/>
        <pt x="459" y="588" on="0"/>
        <pt x="459" y="612" on="1"/>
        <pt x="459" y="643" on="0"/>
        <pt x="426" y="684" on="0"/>
        <pt x="393" y="684" on="1"/>
        <pt x="348" y="684" on="0"/>
        <pt x="282" y="601" on="0"/>
        <pt x="265" y="514" on="1"/>
        <pt x="166" y="0" on="1"/>
        <pt x="45" y="0" on="1"/>
        <pt x="144" y="507" on="1"/>
        <pt x="156" y="571" on="0"/>
        <pt x="207" y="673" on="0"/>
        <pt x="280" y="745" on="0"/>
        <pt x="372" y="783" on="0"/>
        <pt x="426" y="783" on="1"/>
        <pt x="466" y="783" on="0"/>
        <pt x="526" y="760" on="0"/>
        <pt x="564" y="721" on="0"/>
        <pt x="583" y="670" on="0"/>
        <pt x="583" y="642" on="1"/>
        <pt x="583" y="577" on="0"/>
        <pt x="503" y="453" on="0"/>
        <pt x="434" y="384" on="1"/>
        <pt x="494" y="328" on="0"/>
        <pt x="568" y="219" on="0"/>
        <pt x="568" y="164" on="1"/>
        <pt x="568" y="129" on="0"/>
        <pt x="538" y="66" on="0"/>
        <pt x="470" y="18" on="0"/>
        <pt x="359" y="-10" on="0"/>
        <pt x="278" y="-10" on="1"/>
        <pt x="269" y="-10" on="0"/>
        <pt x="252" y="-9" on="0"/>
        <pt x="243" y="-9" on="1"/>
      </contour>
    </TTGlyph>
    <TTGlyph name="grave" xMin="157" yMin="616" xMax="463" yMax="864">
      <contour>
        <pt x="436" y="616" on="1"/>
        <pt x="407" y="628" on="0"/>
        <pt x="334" y="663" on="0"/>
        <pt x="258" y="705" on="0"/>
        <pt x="185" y="749" on="0"/>
        <pt x="157" y="769" on="1"/>
        <pt x="230" y="864" on="1"/>
        <pt x="255" y="840" on="0"/>
        <pt x="315" y="785" on="0"/>
        <pt x="377" y="732" on="0"/>
        <pt x="437" y="684" on="0"/>
        <pt x="463" y="666" on="1"/>
      </contour>
    </TTGlyph>
    <TTGlyph name="grave.cap" xMin="157" yMin="616" xMax="463" yMax="864">
      <contour>
        <pt x="436" y="616" on="1"/>
        <pt x="407" y="628" on="0"/>
        <pt x="334" y="663" on="0"/>
        <pt x="258" y="705" on="0"/>
        <pt x="185" y="749" on="0"/>
        <pt x="157" y="769" on="1"/>
        <pt x="230" y="864" on="1"/>
        <pt x="255" y="840" on="0"/>
        <pt x="315" y="785" on="0"/>
        <pt x="377" y="732" on="0"/>
        <pt x="437" y="684" on="0"/>
        <pt x="463" y="666" on="1"/>
      </contour>
    </TTGlyph>
    <TTGlyph name="greater" xMin="70" yMin="-24" xMax="553" yMax="679">
      <contour>
        <pt x="70" y="71" on="1"/>
        <pt x="433" y="310" on="1"/>
        <pt x="435" y="322" on="1"/>
        <pt x="159" y="598" on="1"/>
        <pt x="242" y="679" on="1"/>
        <pt x="553" y="356" on="1"/>
        <pt x="535" y="254" on="1"/>
        <pt x="120" y="-24" on="1"/>
      </contour>
    </TTGlyph>
    <TTGlyph name="greaterequal" xMin="32" yMin="8" xMax="566" yMax="676">
      <contour>
        <pt x="165" y="587" on="1"/>
        <pt x="230" y="676" on="1"/>
        <pt x="566" y="446" on="1"/>
        <pt x="550" y="353" on="1"/>
        <pt x="120" y="159" on="1"/>
        <pt x="98" y="257" on="1"/>
        <pt x="431" y="404" on="1"/>
        <pt x="433" y="412" on="1"/>
      </contour>
      <contour>
        <pt x="490" y="8" on="1"/>
        <pt x="32" y="8" on="1"/>
        <pt x="52" y="111" on="1"/>
        <pt x="509" y="111" on="1"/>
      </contour>
    </TTGlyph>
    <TTGlyph name="guillemotleft" xMin="43" yMin="-15" xMax="642" yMax="572">
      <contour>
        <pt x="43" y="217" on="1"/>
        <pt x="68" y="339" on="1"/>
        <pt x="293" y="572" on="1"/>
        <pt x="368" y="497" on="1"/>
        <pt x="140" y="273" on="1"/>
        <pt x="284" y="49" on="1"/>
        <pt x="185" y="-15" on="1"/>
      </contour>
      <contour>
        <pt x="314" y="221" on="1"/>
        <pt x="341" y="343" on="1"/>
        <pt x="568" y="570" on="1"/>
        <pt x="642" y="493" on="1"/>
        <pt x="412" y="275" on="1"/>
        <pt x="553" y="46" on="1"/>
        <pt x="455" y="-15" on="1"/>
      </contour>
    </TTGlyph>
    <TTGlyph name="guillemotleft.cap" xMin="56" yMin="55" xMax="655" yMax="642">
      <component glyphName="guillemotleft" x="13" y="70" flags="0x204"/>
    </TTGlyph>
    <TTGlyph name="guillemotright" xMin="7" yMin="-14" xMax="606" yMax="573">
      <contour>
        <pt x="280" y="61" on="1"/>
        <pt x="508" y="284" on="1"/>
        <pt x="364" y="509" on="1"/>
        <pt x="463" y="573" on="1"/>
        <pt x="606" y="341" on="1"/>
        <pt x="581" y="219" on="1"/>
        <pt x="356" y="-14" on="1"/>
      </contour>
      <contour>
        <pt x="7" y="65" on="1"/>
        <pt x="236" y="283" on="1"/>
        <pt x="96" y="512" on="1"/>
        <pt x="194" y="573" on="1"/>
        <pt x="334" y="337" on="1"/>
        <pt x="307" y="215" on="1"/>
        <pt x="81" y="-12" on="1"/>
      </contour>
    </TTGlyph>
    <TTGlyph name="guillemotright.cap" xMin="20" yMin="56" xMax="619" yMax="643">
      <component glyphName="guillemotright" x="13" y="70" flags="0x204"/>
    </TTGlyph>
    <TTGlyph name="guilsinglleft" xMin="127" yMin="-25" xMax="525" yMax="577">
      <contour>
        <pt x="127" y="221" on="1"/>
        <pt x="157" y="343" on="1"/>
        <pt x="457" y="577" on="1"/>
        <pt x="525" y="483" on="1"/>
        <pt x="234" y="273" on="1"/>
        <pt x="424" y="58" on="1"/>
        <pt x="337" y="-25" on="1"/>
      </contour>
    </TTGlyph>
    <TTGlyph name="guilsinglleft.cap" xMin="140" yMin="45" xMax="538" yMax="647">
      <component glyphName="guilsinglleft" x="13" y="70" flags="0x204"/>
    </TTGlyph>
    <TTGlyph name="guilsinglright" xMin="93" yMin="-21" xMax="491" yMax="580">
      <contour>
        <pt x="93" y="73" on="1"/>
        <pt x="384" y="283" on="1"/>
        <pt x="194" y="498" on="1"/>
        <pt x="281" y="580" on="1"/>
        <pt x="491" y="335" on="1"/>
        <pt x="461" y="213" on="1"/>
        <pt x="162" y="-21" on="1"/>
      </contour>
    </TTGlyph>
    <TTGlyph name="guilsinglright.cap" xMin="106" yMin="49" xMax="504" yMax="650">
      <component glyphName="guilsinglright" x="13" y="70" flags="0x204"/>
    </TTGlyph>
    <TTGlyph name="h" xMin="46" yMin="-12" xMax="582" yMax="782">
      <contour>
        <pt x="582" y="46" on="1"/>
        <pt x="533" y="16" on="0"/>
        <pt x="457" y="-12" on="0"/>
        <pt x="430" y="-12" on="1"/>
        <pt x="396" y="-12" on="0"/>
        <pt x="362" y="26" on="0"/>
        <pt x="362" y="61" on="1"/>
        <pt x="362" y="93" on="0"/>
        <pt x="383" y="183" on="0"/>
        <pt x="408" y="278" on="0"/>
        <pt x="429" y="367" on="0"/>
        <pt x="429" y="398" on="1"/>
        <pt x="429" y="453" on="0"/>
        <pt x="382" y="453" on="1"/>
        <pt x="322" y="453" on="0"/>
        <pt x="234" y="363" on="1"/>
        <pt x="164" y="0" on="1"/>
        <pt x="46" y="0" on="1"/>
        <pt x="196" y="773" on="1"/>
        <pt x="315" y="782" on="1"/>
        <pt x="252" y="457" on="1"/>
        <pt x="360" y="567" on="0"/>
        <pt x="458" y="567" on="1"/>
        <pt x="486" y="567" on="0"/>
        <pt x="524" y="550" on="0"/>
        <pt x="547" y="520" on="0"/>
        <pt x="557" y="480" on="0"/>
        <pt x="557" y="458" on="1"/>
        <pt x="557" y="417" on="0"/>
        <pt x="535" y="315" on="0"/>
        <pt x="510" y="217" on="0"/>
        <pt x="488" y="134" on="0"/>
        <pt x="488" y="113" on="1"/>
        <pt x="488" y="102" on="0"/>
        <pt x="495" y="90" on="0"/>
        <pt x="507" y="90" on="1"/>
        <pt x="525" y="90" on="0"/>
        <pt x="570" y="106" on="1"/>
        <pt x="582" y="46" on="1"/>
      </contour>
    </TTGlyph>
    <TTGlyph name="hbar" xMin="46" yMin="-12" xMax="582" yMax="782">
      <contour>
        <pt x="582" y="46" on="1"/>
        <pt x="533" y="16" on="0"/>
        <pt x="457" y="-12" on="0"/>
        <pt x="430" y="-12" on="1"/>
        <pt x="396" y="-12" on="0"/>
        <pt x="362" y="26" on="0"/>
        <pt x="362" y="61" on="1"/>
        <pt x="362" y="92" on="0"/>
        <pt x="383" y="182" on="0"/>
        <pt x="408" y="276" on="0"/>
        <pt x="429" y="365" on="0"/>
        <pt x="429" y="395" on="1"/>
        <pt x="429" y="450" on="0"/>
        <pt x="382" y="450" on="1"/>
        <pt x="322" y="450" on="0"/>
        <pt x="233" y="359" on="1"/>
        <pt x="164" y="0" on="1"/>
        <pt x="46" y="0" on="1"/>
        <pt x="169" y="632" on="1"/>
        <pt x="99" y="632" on="1"/>
        <pt x="114" y="710" on="1"/>
        <pt x="184" y="710" on="1"/>
        <pt x="196" y="773" on="1"/>
        <pt x="315" y="782" on="1"/>
        <pt x="301" y="710" on="1"/>
        <pt x="443" y="710" on="1"/>
        <pt x="428" y="633" on="1"/>
        <pt x="286" y="633" on="1"/>
        <pt x="252" y="454" on="1"/>
        <pt x="359" y="564" on="0"/>
        <pt x="458" y="564" on="1"/>
        <pt x="486" y="564" on="0"/>
        <pt x="524" y="547" on="0"/>
        <pt x="547" y="517" on="0"/>
        <pt x="557" y="477" on="0"/>
        <pt x="557" y="455" on="1"/>
        <pt x="557" y="414" on="0"/>
        <pt x="535" y="313" on="0"/>
        <pt x="510" y="215" on="0"/>
        <pt x="488" y="134" on="0"/>
        <pt x="488" y="113" on="1"/>
        <pt x="488" y="102" on="0"/>
        <pt x="495" y="90" on="0"/>
        <pt x="507" y="90" on="1"/>
        <pt x="525" y="90" on="0"/>
        <pt x="570" y="106" on="1"/>
        <pt x="582" y="46" on="1"/>
      </contour>
    </TTGlyph>
    <TTGlyph name="hcoslug" xMin="50" yMin="-100" xMax="644" yMax="700">
      <contour>
        <pt x="644" y="-100" on="1"/>
        <pt x="50" y="-100" on="1"/>
        <pt x="50" y="700" on="1"/>
        <pt x="644" y="700" on="1"/>
      </contour>
      <contour>
        <pt x="247" y="428" on="1"/>
        <pt x="247" y="441" on="0"/>
        <pt x="262" y="457" on="0"/>
        <pt x="274" y="457" on="1"/>
        <pt x="287" y="457" on="0"/>
        <pt x="303" y="436" on="0"/>
        <pt x="303" y="419" on="1"/>
        <pt x="303" y="406" on="0"/>
        <pt x="293" y="382" on="0"/>
        <pt x="285" y="369" on="1"/>
        <pt x="268" y="386" on="0"/>
        <pt x="247" y="411" on="0"/>
      </contour>
      <contour>
        <pt x="312" y="342" on="1"/>
        <pt x="342" y="362" on="0"/>
        <pt x="354" y="376" on="1"/>
        <pt x="369" y="361" on="0"/>
        <pt x="369" y="342" on="1"/>
        <pt x="369" y="325" on="0"/>
        <pt x="353" y="296" on="1"/>
        <pt x="343" y="307" on="0"/>
        <pt x="324" y="330" on="0"/>
      </contour>
      <contour>
        <pt x="261" y="219" on="1"/>
        <pt x="238" y="219" on="0"/>
        <pt x="209" y="250" on="0"/>
        <pt x="209" y="273" on="1"/>
        <pt x="209" y="297" on="0"/>
        <pt x="225" y="313" on="1"/>
        <pt x="239" y="300" on="0"/>
        <pt x="278" y="257" on="0"/>
        <pt x="299" y="231" on="1"/>
        <pt x="284" y="219" on="0"/>
      </contour>
      <contour>
        <pt x="382" y="264" on="1"/>
        <pt x="393" y="279" on="0"/>
        <pt x="417" y="299" on="0"/>
        <pt x="428" y="306" on="1"/>
        <pt x="435" y="295" on="0"/>
        <pt x="457" y="281" on="0"/>
        <pt x="471" y="281" on="1"/>
        <pt x="492" y="281" on="0"/>
        <pt x="521" y="312" on="0"/>
        <pt x="521" y="335" on="1"/>
        <pt x="521" y="358" on="0"/>
        <pt x="492" y="387" on="0"/>
        <pt x="471" y="387" on="1"/>
        <pt x="436" y="387" on="0"/>
        <pt x="411" y="349" on="1"/>
        <pt x="409" y="369" on="0"/>
        <pt x="385" y="386" on="0"/>
        <pt x="365" y="386" on="1"/>
        <pt x="362" y="386" on="1"/>
        <pt x="371" y="401" on="0"/>
        <pt x="371" y="420" on="1"/>
        <pt x="371" y="433" on="0"/>
        <pt x="359" y="460" on="0"/>
        <pt x="335" y="481" on="0"/>
        <pt x="299" y="494" on="0"/>
        <pt x="276" y="494" on="1"/>
        <pt x="251" y="494" on="0"/>
        <pt x="211" y="480" on="0"/>
        <pt x="182" y="456" on="0"/>
        <pt x="167" y="425" on="0"/>
        <pt x="167" y="409" on="1"/>
        <pt x="167" y="387" on="0"/>
        <pt x="182" y="357" on="0"/>
        <pt x="198" y="340" on="1"/>
        <pt x="116" y="312" on="0"/>
        <pt x="116" y="249" on="1"/>
        <pt x="116" y="229" on="0"/>
        <pt x="133" y="195" on="0"/>
        <pt x="163" y="170" on="0"/>
        <pt x="202" y="156" on="0"/>
        <pt x="225" y="156" on="1"/>
        <pt x="288" y="156" on="0"/>
        <pt x="329" y="201" on="1"/>
        <pt x="354" y="175" on="0"/>
        <pt x="391" y="156" on="0"/>
        <pt x="414" y="156" on="1"/>
        <pt x="446" y="156" on="0"/>
        <pt x="492" y="206" on="0"/>
        <pt x="494" y="250" on="1"/>
        <pt x="487" y="252" on="1"/>
        <pt x="479" y="239" on="0"/>
        <pt x="460" y="223" on="0"/>
        <pt x="444" y="223" on="1"/>
        <pt x="429" y="223" on="0"/>
        <pt x="401" y="242" on="0"/>
      </contour>
      <contour>
        <pt x="274" y="122" on="1"/>
        <pt x="274" y="113" on="1"/>
        <pt x="267" y="113" on="1"/>
        <pt x="267" y="106" on="1"/>
        <pt x="274" y="106" on="1"/>
        <pt x="274" y="86" on="1"/>
        <pt x="274" y="73" on="0"/>
        <pt x="286" y="73" on="1"/>
        <pt x="297" y="73" on="0"/>
        <pt x="300" y="86" on="1"/>
        <pt x="295" y="88" on="1"/>
        <pt x="294" y="81" on="0"/>
        <pt x="290" y="81" on="1"/>
        <pt x="286" y="81" on="0"/>
        <pt x="286" y="86" on="1"/>
        <pt x="286" y="106" on="1"/>
        <pt x="299" y="106" on="1"/>
        <pt x="299" y="113" on="1"/>
        <pt x="286" y="113" on="1"/>
        <pt x="286" y="124" on="1"/>
      </contour>
      <contour>
        <pt x="174" y="94" on="1"/>
        <pt x="174" y="84" on="0"/>
        <pt x="186" y="73" on="0"/>
        <pt x="195" y="73" on="1"/>
        <pt x="204" y="73" on="0"/>
        <pt x="216" y="85" on="0"/>
        <pt x="216" y="94" on="1"/>
        <pt x="216" y="103" on="0"/>
        <pt x="204" y="114" on="0"/>
        <pt x="195" y="114" on="1"/>
        <pt x="186" y="114" on="0"/>
        <pt x="174" y="103" on="0"/>
      </contour>
      <contour>
        <pt x="203" y="94" on="1"/>
        <pt x="203" y="78" on="0"/>
        <pt x="195" y="78" on="1"/>
        <pt x="187" y="78" on="0"/>
        <pt x="187" y="94" on="1"/>
        <pt x="187" y="109" on="0"/>
        <pt x="195" y="109" on="1"/>
        <pt x="203" y="109" on="0"/>
      </contour>
      <contour>
        <pt x="379" y="93" on="1"/>
        <pt x="379" y="80" on="0"/>
        <pt x="372" y="80" on="1"/>
        <pt x="364" y="80" on="0"/>
        <pt x="364" y="93" on="1"/>
        <pt x="364" y="106" on="0"/>
        <pt x="372" y="106" on="1"/>
        <pt x="379" y="106" on="0"/>
      </contour>
      <contour>
        <pt x="219" y="74" on="1"/>
        <pt x="241" y="74" on="1"/>
        <pt x="241" y="81" on="1"/>
        <pt x="237" y="81" on="1"/>
        <pt x="237" y="96" on="1"/>
        <pt x="237" y="106" on="0"/>
        <pt x="244" y="106" on="1"/>
        <pt x="250" y="106" on="0"/>
        <pt x="250" y="99" on="1"/>
        <pt x="250" y="81" on="1"/>
        <pt x="246" y="81" on="1"/>
        <pt x="246" y="74" on="1"/>
        <pt x="268" y="74" on="1"/>
        <pt x="268" y="81" on="1"/>
        <pt x="262" y="81" on="1"/>
        <pt x="262" y="100" on="1"/>
        <pt x="262" y="114" on="0"/>
        <pt x="250" y="114" on="1"/>
        <pt x="241" y="114" on="0"/>
        <pt x="236" y="103" on="1"/>
        <pt x="236" y="113" on="1"/>
        <pt x="219" y="113" on="1"/>
        <pt x="219" y="106" on="1"/>
        <pt x="225" y="106" on="1"/>
        <pt x="225" y="81" on="1"/>
        <pt x="219" y="81" on="1"/>
      </contour>
      <contour>
        <pt x="125" y="74" on="1"/>
        <pt x="155" y="74" on="1"/>
        <pt x="155" y="81" on="1"/>
        <pt x="145" y="81" on="1"/>
        <pt x="145" y="97" on="1"/>
        <pt x="149" y="97" on="1"/>
        <pt x="154" y="97" on="0"/>
        <pt x="155" y="89" on="1"/>
        <pt x="162" y="89" on="1"/>
        <pt x="162" y="112" on="1"/>
        <pt x="155" y="112" on="1"/>
        <pt x="154" y="104" on="0"/>
        <pt x="149" y="104" on="1"/>
        <pt x="145" y="104" on="1"/>
        <pt x="145" y="122" on="1"/>
        <pt x="157" y="122" on="1"/>
        <pt x="162" y="122" on="0"/>
        <pt x="166" y="117" on="0"/>
        <pt x="168" y="109" on="1"/>
        <pt x="176" y="109" on="1"/>
        <pt x="176" y="129" on="1"/>
        <pt x="125" y="129" on="1"/>
        <pt x="125" y="122" on="1"/>
        <pt x="132" y="122" on="1"/>
        <pt x="132" y="81" on="1"/>
        <pt x="125" y="81" on="1"/>
      </contour>
      <contour>
        <pt x="302" y="74" on="1"/>
        <pt x="309" y="74" on="1"/>
        <pt x="310" y="78" on="1"/>
        <pt x="312" y="76" on="0"/>
        <pt x="318" y="73" on="0"/>
        <pt x="323" y="73" on="1"/>
        <pt x="337" y="73" on="0"/>
        <pt x="337" y="86" on="1"/>
        <pt x="337" y="92" on="0"/>
        <pt x="329" y="97" on="0"/>
        <pt x="320" y="99" on="0"/>
        <pt x="313" y="101" on="0"/>
        <pt x="313" y="104" on="1"/>
        <pt x="313" y="108" on="0"/>
        <pt x="318" y="108" on="1"/>
        <pt x="323" y="108" on="0"/>
        <pt x="328" y="101" on="1"/>
        <pt x="335" y="101" on="1"/>
        <pt x="335" y="114" on="1"/>
        <pt x="329" y="114" on="1"/>
        <pt x="327" y="109" on="1"/>
        <pt x="324" y="114" on="0"/>
        <pt x="316" y="114" on="1"/>
        <pt x="309" y="114" on="0"/>
        <pt x="302" y="107" on="0"/>
        <pt x="302" y="102" on="1"/>
        <pt x="302" y="96" on="0"/>
        <pt x="309" y="91" on="0"/>
        <pt x="318" y="88" on="0"/>
        <pt x="326" y="86" on="0"/>
        <pt x="326" y="83" on="1"/>
        <pt x="326" y="79" on="0"/>
        <pt x="321" y="79" on="1"/>
        <pt x="315" y="79" on="0"/>
        <pt x="309" y="88" on="1"/>
        <pt x="302" y="88" on="1"/>
      </contour>
      <contour>
        <pt x="352" y="73" on="1"/>
        <pt x="358" y="73" on="1"/>
        <pt x="362" y="81" on="1"/>
        <pt x="367" y="73" on="0"/>
        <pt x="376" y="73" on="1"/>
        <pt x="385" y="73" on="0"/>
        <pt x="392" y="87" on="0"/>
        <pt x="392" y="94" on="1"/>
        <pt x="392" y="114" on="0"/>
        <pt x="377" y="114" on="1"/>
        <pt x="367" y="114" on="0"/>
        <pt x="364" y="105" on="1"/>
        <pt x="364" y="132" on="1"/>
        <pt x="346" y="132" on="1"/>
        <pt x="346" y="125" on="1"/>
        <pt x="352" y="125" on="1"/>
      </contour>
      <contour>
        <pt x="405" y="65" on="1"/>
        <pt x="407" y="67" on="0"/>
        <pt x="407" y="69" on="1"/>
        <pt x="407" y="75" on="0"/>
        <pt x="400" y="75" on="1"/>
        <pt x="393" y="75" on="0"/>
        <pt x="393" y="68" on="1"/>
        <pt x="393" y="59" on="0"/>
        <pt x="404" y="59" on="1"/>
        <pt x="416" y="59" on="0"/>
        <pt x="422" y="75" on="1"/>
        <pt x="435" y="106" on="1"/>
        <pt x="440" y="106" on="1"/>
        <pt x="440" y="113" on="1"/>
        <pt x="423" y="113" on="1"/>
        <pt x="423" y="106" on="1"/>
        <pt x="428" y="106" on="1"/>
        <pt x="420" y="86" on="1"/>
        <pt x="411" y="106" on="1"/>
        <pt x="417" y="106" on="1"/>
        <pt x="417" y="113" on="1"/>
        <pt x="392" y="113" on="1"/>
        <pt x="392" y="106" on="1"/>
        <pt x="397" y="106" on="1"/>
        <pt x="399" y="99" on="0"/>
        <pt x="403" y="93" on="1"/>
        <pt x="405" y="88" on="0"/>
        <pt x="411" y="77" on="0"/>
        <pt x="413" y="73" on="1"/>
        <pt x="411" y="65" on="0"/>
      </contour>
      <contour>
        <pt x="446" y="33" on="1"/>
        <pt x="446" y="26" on="1"/>
        <pt x="452" y="26" on="1"/>
        <pt x="450" y="21" on="0"/>
        <pt x="446" y="17" on="1"/>
        <pt x="443" y="20" on="0"/>
        <pt x="438" y="26" on="0"/>
        <pt x="434" y="30" on="1"/>
        <pt x="445" y="35" on="0"/>
        <pt x="445" y="42" on="1"/>
        <pt x="445" y="47" on="0"/>
        <pt x="438" y="54" on="0"/>
        <pt x="431" y="54" on="1"/>
        <pt x="423" y="54" on="0"/>
        <pt x="414" y="45" on="0"/>
        <pt x="414" y="40" on="1"/>
        <pt x="414" y="34" on="0"/>
        <pt x="420" y="28" on="1"/>
        <pt x="407" y="24" on="0"/>
        <pt x="407" y="13" on="1"/>
        <pt x="407" y="-1" on="0"/>
        <pt x="425" y="-1" on="1"/>
        <pt x="434" y="-1" on="0"/>
        <pt x="440" y="5" on="1"/>
        <pt x="445" y="-1" on="0"/>
        <pt x="452" y="-1" on="1"/>
        <pt x="462" y="-1" on="0"/>
        <pt x="465" y="11" on="1"/>
        <pt x="460" y="12" on="1"/>
        <pt x="459" y="7" on="0"/>
        <pt x="456" y="7" on="1"/>
        <pt x="453" y="7" on="0"/>
        <pt x="450" y="12" on="1"/>
        <pt x="452" y="15" on="0"/>
        <pt x="457" y="21" on="0"/>
        <pt x="459" y="26" on="1"/>
        <pt x="464" y="26" on="1"/>
        <pt x="464" y="33" on="1"/>
      </contour>
      <contour>
        <pt x="294" y="42" on="1"/>
        <pt x="294" y="50" on="0"/>
        <pt x="298" y="54" on="0"/>
        <pt x="300" y="54" on="1"/>
        <pt x="301" y="54" on="0"/>
        <pt x="301" y="53" on="0"/>
        <pt x="302" y="53" on="1"/>
        <pt x="303" y="53" on="1"/>
        <pt x="302" y="52" on="1"/>
        <pt x="302" y="50" on="1"/>
        <pt x="302" y="44" on="0"/>
        <pt x="308" y="44" on="1"/>
        <pt x="308" y="39" on="1"/>
        <pt x="294" y="39" on="1"/>
      </contour>
      <contour>
        <pt x="469" y="27" on="1"/>
        <pt x="469" y="-1" on="0"/>
        <pt x="498" y="-1" on="1"/>
        <pt x="520" y="-1" on="0"/>
        <pt x="522" y="22" on="1"/>
        <pt x="514" y="22" on="1"/>
        <pt x="512" y="6" on="0"/>
        <pt x="500" y="6" on="1"/>
        <pt x="484" y="6" on="0"/>
        <pt x="484" y="28" on="1"/>
        <pt x="484" y="50" on="0"/>
        <pt x="498" y="50" on="1"/>
        <pt x="508" y="50" on="0"/>
        <pt x="513" y="34" on="1"/>
        <pt x="521" y="34" on="1"/>
        <pt x="521" y="56" on="1"/>
        <pt x="513" y="56" on="1"/>
        <pt x="512" y="50" on="1"/>
        <pt x="505" y="57" on="0"/>
        <pt x="496" y="57" on="1"/>
        <pt x="485" y="57" on="0"/>
        <pt x="469" y="41" on="0"/>
      </contour>
      <contour>
        <pt x="431" y="33" on="1"/>
        <pt x="425" y="39" on="0"/>
        <pt x="425" y="43" on="1"/>
        <pt x="425" y="48" on="0"/>
        <pt x="430" y="48" on="1"/>
        <pt x="436" y="48" on="0"/>
        <pt x="436" y="42" on="1"/>
        <pt x="436" y="36" on="0"/>
      </contour>
      <contour>
        <pt x="273" y="18" on="1"/>
        <pt x="273" y="21" on="1"/>
        <pt x="273" y="40" on="0"/>
        <pt x="254" y="40" on="1"/>
        <pt x="246" y="40" on="0"/>
        <pt x="234" y="28" on="0"/>
        <pt x="234" y="19" on="1"/>
        <pt x="234" y="-1" on="0"/>
        <pt x="255" y="-1" on="1"/>
        <pt x="269" y="-1" on="0"/>
        <pt x="273" y="13" on="1"/>
        <pt x="266" y="13" on="1"/>
        <pt x="265" y="6" on="0"/>
        <pt x="257" y="6" on="1"/>
        <pt x="247" y="6" on="0"/>
        <pt x="247" y="18" on="1"/>
      </contour>
      <contour>
        <pt x="189" y="20" on="1"/>
        <pt x="189" y="10" on="0"/>
        <pt x="201" y="-1" on="0"/>
        <pt x="210" y="-1" on="1"/>
        <pt x="219" y="-1" on="0"/>
        <pt x="231" y="11" on="0"/>
        <pt x="231" y="20" on="1"/>
        <pt x="231" y="29" on="0"/>
        <pt x="219" y="40" on="0"/>
        <pt x="210" y="40" on="1"/>
        <pt x="201" y="40" on="0"/>
        <pt x="189" y="29" on="0"/>
      </contour>
      <contour>
        <pt x="525" y="20" on="1"/>
        <pt x="525" y="10" on="0"/>
        <pt x="537" y="-1" on="0"/>
        <pt x="546" y="-1" on="1"/>
        <pt x="555" y="-1" on="0"/>
        <pt x="567" y="11" on="0"/>
        <pt x="567" y="20" on="1"/>
        <pt x="567" y="29" on="0"/>
        <pt x="555" y="40" on="0"/>
        <pt x="546" y="40" on="1"/>
        <pt x="537" y="40" on="0"/>
        <pt x="525" y="29" on="0"/>
      </contour>
      <contour>
        <pt x="366" y="18" on="1"/>
        <pt x="366" y="21" on="1"/>
        <pt x="366" y="40" on="0"/>
        <pt x="347" y="40" on="1"/>
        <pt x="339" y="40" on="0"/>
        <pt x="327" y="28" on="0"/>
        <pt x="327" y="19" on="1"/>
        <pt x="327" y="-1" on="0"/>
        <pt x="348" y="-1" on="1"/>
        <pt x="362" y="-1" on="0"/>
        <pt x="366" y="13" on="1"/>
        <pt x="359" y="13" on="1"/>
        <pt x="358" y="6" on="0"/>
        <pt x="350" y="6" on="1"/>
        <pt x="340" y="6" on="0"/>
        <pt x="340" y="18" on="1"/>
      </contour>
      <contour>
        <pt x="247" y="23" on="1"/>
        <pt x="247" y="35" on="0"/>
        <pt x="254" y="35" on="1"/>
        <pt x="261" y="35" on="0"/>
        <pt x="261" y="23" on="1"/>
      </contour>
      <contour>
        <pt x="218" y="20" on="1"/>
        <pt x="218" y="4" on="0"/>
        <pt x="210" y="4" on="1"/>
        <pt x="202" y="4" on="0"/>
        <pt x="202" y="20" on="1"/>
        <pt x="202" y="35" on="0"/>
        <pt x="210" y="35" on="1"/>
        <pt x="218" y="35" on="0"/>
      </contour>
      <contour>
        <pt x="554" y="20" on="1"/>
        <pt x="554" y="4" on="0"/>
        <pt x="546" y="4" on="1"/>
        <pt x="538" y="4" on="0"/>
        <pt x="538" y="20" on="1"/>
        <pt x="538" y="35" on="0"/>
        <pt x="546" y="35" on="1"/>
        <pt x="554" y="35" on="0"/>
      </contour>
      <contour>
        <pt x="340" y="23" on="1"/>
        <pt x="340" y="35" on="0"/>
        <pt x="347" y="35" on="1"/>
        <pt x="354" y="35" on="0"/>
        <pt x="354" y="23" on="1"/>
      </contour>
      <contour>
        <pt x="276" y="0" on="1"/>
        <pt x="299" y="0" on="1"/>
        <pt x="299" y="7" on="1"/>
        <pt x="294" y="7" on="1"/>
        <pt x="294" y="32" on="1"/>
        <pt x="308" y="32" on="1"/>
        <pt x="308" y="7" on="1"/>
        <pt x="303" y="7" on="1"/>
        <pt x="303" y="0" on="1"/>
        <pt x="326" y="0" on="1"/>
        <pt x="326" y="7" on="1"/>
        <pt x="320" y="7" on="1"/>
        <pt x="320" y="59" on="1"/>
        <pt x="310" y="57" on="1"/>
        <pt x="306" y="59" on="0"/>
        <pt x="301" y="59" on="1"/>
        <pt x="293" y="59" on="0"/>
        <pt x="282" y="50" on="0"/>
        <pt x="282" y="40" on="1"/>
        <pt x="282" y="39" on="1"/>
        <pt x="275" y="39" on="1"/>
        <pt x="275" y="32" on="1"/>
        <pt x="282" y="32" on="1"/>
        <pt x="282" y="7" on="1"/>
        <pt x="276" y="7" on="1"/>
      </contour>
      <contour>
        <pt x="368" y="0" on="1"/>
        <pt x="394" y="0" on="1"/>
        <pt x="394" y="7" on="1"/>
        <pt x="386" y="7" on="1"/>
        <pt x="386" y="23" on="1"/>
        <pt x="390" y="32" on="0"/>
        <pt x="393" y="32" on="1"/>
        <pt x="393" y="31" on="1"/>
        <pt x="393" y="25" on="0"/>
        <pt x="399" y="25" on="1"/>
        <pt x="406" y="25" on="0"/>
        <pt x="406" y="32" on="1"/>
        <pt x="406" y="40" on="0"/>
        <pt x="398" y="40" on="1"/>
        <pt x="390" y="40" on="0"/>
        <pt x="386" y="29" on="1"/>
        <pt x="386" y="39" on="1"/>
        <pt x="368" y="39" on="1"/>
        <pt x="368" y="32" on="1"/>
        <pt x="374" y="32" on="1"/>
        <pt x="374" y="7" on="1"/>
        <pt x="368" y="7" on="1"/>
      </contour>
      <contour>
        <pt x="437" y="9" on="1"/>
        <pt x="432" y="6" on="0"/>
        <pt x="429" y="6" on="1"/>
        <pt x="419" y="6" on="0"/>
        <pt x="419" y="16" on="1"/>
        <pt x="419" y="21" on="0"/>
        <pt x="423" y="25" on="1"/>
        <pt x="427" y="21" on="0"/>
        <pt x="433" y="14" on="0"/>
      </contour>
      <contour>
        <pt x="124" y="0" on="1"/>
        <pt x="153" y="0" on="1"/>
        <pt x="153" y="7" on="1"/>
        <pt x="145" y="7" on="1"/>
        <pt x="145" y="25" on="1"/>
        <pt x="167" y="25" on="1"/>
        <pt x="167" y="7" on="1"/>
        <pt x="159" y="7" on="1"/>
        <pt x="159" y="0" on="1"/>
        <pt x="188" y="0" on="1"/>
        <pt x="188" y="7" on="1"/>
        <pt x="180" y="7" on="1"/>
        <pt x="180" y="48" on="1"/>
        <pt x="188" y="48" on="1"/>
        <pt x="188" y="55" on="1"/>
        <pt x="159" y="55" on="1"/>
        <pt x="159" y="48" on="1"/>
        <pt x="167" y="48" on="1"/>
        <pt x="167" y="32" on="1"/>
        <pt x="145" y="32" on="1"/>
        <pt x="145" y="48" on="1"/>
        <pt x="153" y="48" on="1"/>
        <pt x="153" y="55" on="1"/>
        <pt x="124" y="55" on="1"/>
        <pt x="124" y="48" on="1"/>
        <pt x="132" y="48" on="1"/>
        <pt x="132" y="7" on="1"/>
        <pt x="124" y="7" on="1"/>
      </contour>
      <contour>
        <pt x="583" y="6" on="1"/>
        <pt x="583" y="13" on="0"/>
        <pt x="576" y="13" on="1"/>
        <pt x="569" y="13" on="0"/>
        <pt x="569" y="6" on="1"/>
        <pt x="569" y="-1" on="0"/>
        <pt x="576" y="-1" on="1"/>
        <pt x="583" y="-1" on="0"/>
      </contour>
    </TTGlyph>
    <TTGlyph name="hungarumlaut" xMin="152" yMin="623" xMax="647" yMax="883">
      <contour>
        <pt x="152" y="664" on="1"/>
        <pt x="171" y="687" on="0"/>
        <pt x="212" y="743" on="0"/>
        <pt x="252" y="802" on="0"/>
        <pt x="288" y="859" on="0"/>
        <pt x="301" y="883" on="1"/>
        <pt x="412" y="823" on="1"/>
        <pt x="393" y="800" on="0"/>
        <pt x="344" y="748" on="0"/>
        <pt x="289" y="695" on="0"/>
        <pt x="231" y="645" on="0"/>
        <pt x="204" y="624" on="1"/>
      </contour>
      <contour>
        <pt x="388" y="664" on="1"/>
        <pt x="407" y="686" on="0"/>
        <pt x="447" y="740" on="0"/>
        <pt x="485" y="796" on="0"/>
        <pt x="519" y="851" on="0"/>
        <pt x="532" y="875" on="1"/>
        <pt x="647" y="821" on="1"/>
        <pt x="628" y="798" on="0"/>
        <pt x="579" y="746" on="0"/>
        <pt x="525" y="694" on="0"/>
        <pt x="468" y="644" on="0"/>
        <pt x="441" y="623" on="1"/>
      </contour>
    </TTGlyph>
</ttFont>
